<svg width="99" height="49" viewBox="0 0 99 49" fill="none" xmlns="http://www.w3.org/2000/svg">
<g clip-path="url(#clip0_46_392)">
<g clip-path="url(#clip1_46_392)">
<g clip-path="url(#clip2_46_392)">
<path d="M20.4499 35.4447H3.10227C1.95456 35.4447 0.867256 34.8432 0.338272 33.8146C0.04372 33.2477 -0.0623817 32.6017 0.0353873 31.9703C0.133156 31.3391 0.429702 30.7554 0.881928 30.3042L12.9527 18.2454H4.30779C3.74223 18.2462 3.18205 18.1355 2.65933 17.9195C2.1366 17.7036 1.66159 17.3867 1.26148 16.987C0.861358 16.5873 0.543992 16.1126 0.327533 15.5901C0.111073 15.0676 -0.000227117 14.5075 3.47951e-07 13.9419H15.9807C17.1268 13.9419 18.2158 14.5443 18.7439 15.5729C19.0384 16.1397 19.1446 16.7858 19.0468 17.4171C18.949 18.0484 18.6524 18.6321 18.2003 19.0833L6.13032 31.1412H16.1421C18.5238 31.1412 20.4499 33.0655 20.4499 35.4447ZM89.1054 13.6192C87.9259 13.6157 86.7584 13.8627 85.6815 14.3438C84.6045 14.8249 83.6414 15.5292 82.8569 16.4099C82.0708 15.5309 81.1077 14.8279 80.0312 14.347C78.9545 13.8661 77.7884 13.6181 76.6092 13.6192C71.9925 13.6192 68.23 17.5551 68.23 22.1528V35.4447C70.6109 35.4447 72.5361 33.5203 72.5361 31.1412V22.1088C72.5361 19.891 74.2568 18.0107 76.4624 17.9227C77.012 17.9022 77.56 17.9925 78.0739 18.1884C78.5877 18.3843 79.0569 18.6816 79.4533 19.0627C79.8498 19.4438 80.1653 19.9008 80.3817 20.4065C80.5972 20.9122 80.7094 21.4562 80.711 22.0062V31.1412C80.7102 31.7067 80.8216 32.2666 81.038 32.7891C81.2543 33.3115 81.5716 33.7862 81.9723 34.1859C82.3721 34.5856 82.8465 34.9025 83.3697 35.1186C83.8922 35.3345 84.4523 35.4453 85.018 35.4447V22.1088C85.018 19.891 86.7384 18.0107 88.9428 17.9227C89.4925 17.902 90.0406 17.9924 90.555 18.1881C91.0686 18.384 91.5382 18.6812 91.9348 19.0623C92.3315 19.4434 92.6472 19.9005 92.8627 20.4063C93.0791 20.9121 93.1913 21.4561 93.1921 22.0062V31.1412C93.1921 31.7067 93.3035 32.2666 93.5198 32.7891C93.7362 33.3115 94.0535 33.7862 94.4533 34.1859C94.8532 34.5856 95.3284 34.9025 95.8508 35.1186C96.3732 35.3345 96.9334 35.4453 97.4991 35.4447V22.1537C97.4846 17.5542 93.7209 13.6192 89.1054 13.6192ZM42.1787 24.6933C42.1787 30.8038 37.2091 35.7683 31.0934 35.7683C24.9777 35.7683 20.009 30.8038 20.009 24.6933C20.009 18.5828 24.9924 13.6192 31.0934 13.6192C37.1944 13.6192 42.1787 18.5837 42.1787 24.6933ZM37.871 24.6933C37.871 20.9629 34.8273 17.9227 31.0934 17.9227C27.3595 17.9227 24.3159 20.9629 24.3159 24.6933C24.3159 28.4238 27.3595 31.4648 31.0934 31.4648C34.8273 31.4648 37.871 28.4247 37.871 24.6933ZM66.0684 24.6933C66.0684 30.8038 61.0996 35.7683 54.9839 35.7683C48.8683 35.7683 43.8977 30.8038 43.8977 24.6933C43.8977 18.5828 48.8821 13.6192 54.983 13.6192C61.084 13.6192 66.0684 18.5837 66.0684 24.6933ZM61.7606 24.6933C61.7606 20.9629 58.7179 17.9227 54.9839 17.9227C51.2491 17.9227 48.2055 20.9629 48.2055 24.6933C48.2055 28.4238 51.2491 31.4648 54.983 31.4648C58.7179 31.4648 61.7606 28.4247 61.7606 24.6933Z" fill="#181B4A"/>
</g>
</g>
</g>
<defs>
<clipPath id="clip0_46_392">
<rect width="98.56" height="48.0711" fill="white"/>
</clipPath>
<clipPath id="clip1_46_392">
<rect width="98.56" height="48.0711" fill="white"/>
</clipPath>
<clipPath id="clip2_46_392">
<rect width="98.56" height="48.078" fill="white" transform="translate(0 -0.00341797)"/>
</clipPath>
</defs>
</svg>
