<svg width="128" height="53" viewBox="0 0 128 53" fill="none" xmlns="http://www.w3.org/2000/svg">
<g clip-path="url(#clip0_46_361)">
<g clip-path="url(#clip1_46_361)">
<path d="M15.5914 19.5368H8.18809C7.95756 19.5368 7.72928 19.4913 7.51631 19.403C7.30335 19.3148 7.10988 19.1853 6.94697 19.0222C6.78405 18.8591 6.65488 18.6655 6.56686 18.4524C6.47883 18.2393 6.43367 18.011 6.43396 17.7805C6.43396 16.8107 7.21842 16.0241 8.18809 16.0241H15.5893C16.0551 16.0241 16.5017 16.2092 16.8311 16.5385C17.1605 16.8679 17.3456 17.3146 17.3456 17.7805C17.3456 18.2463 17.1605 18.693 16.8311 19.0223C16.5017 19.3517 16.0551 19.5368 15.5893 19.5368H15.5914ZM20.953 25.3907H2.82546C1.86667 25.3907 1.08984 24.6041 1.08984 23.6344C1.08984 22.6647 1.86667 21.8781 2.82546 21.8781H20.9519C21.9107 21.8781 22.6874 22.6647 22.6874 23.6344C22.6874 24.6041 21.9107 25.3907 20.9519 25.3907H20.953ZM19.4222 31.2426H4.35842C4.1293 31.2413 3.90269 31.1948 3.69155 31.106C3.48039 31.017 3.28884 30.8874 3.12785 30.7243C2.96686 30.5613 2.83957 30.3682 2.75329 30.1559C2.66701 29.9437 2.6234 29.7164 2.62499 29.4874C2.62499 28.5177 3.40072 27.7311 4.35733 27.7311H19.4233C20.3799 27.7311 21.1556 28.5177 21.1556 29.4874C21.1556 30.4571 20.3799 31.2437 19.4233 31.2437L19.4222 31.2426ZM14.7666 37.0966H9.01391C8.78341 37.0966 8.55513 37.0512 8.34217 36.9629C8.12921 36.8745 7.93573 36.7452 7.77282 36.582C7.6099 36.419 7.48075 36.2253 7.39272 36.0122C7.30469 35.7992 7.25953 35.5708 7.25981 35.3403C7.25981 34.3706 8.04427 33.584 9.01391 33.584H14.7666C15.2324 33.5841 15.6791 33.7693 16.0084 34.0988C16.3376 34.4282 16.5225 34.875 16.5224 35.3409C16.5222 35.8067 16.3371 36.2534 16.0076 36.5826C15.6782 36.9119 15.2314 37.0967 14.7656 37.0966H14.7666ZM113.504 28.522C113.652 26.197 115.507 24.6956 118.276 24.6956C120.897 24.6956 122.751 26.197 122.751 28.3456C122.751 28.4327 122.694 28.522 122.545 28.522H113.504ZM118.482 37.7939C121.221 37.7939 123.606 36.675 124.989 34.7324C125.196 34.4382 125.314 34.1146 125.314 33.791C125.314 33.0555 124.754 32.525 124.019 32.525C123.548 32.525 123.164 32.7319 122.663 33.2604C121.457 34.5548 120.19 35.1442 118.57 35.1442C115.625 35.1442 113.622 33.4369 113.475 30.8177H125.431C125.756 30.8177 125.932 30.6412 125.932 30.347V30.0234C125.932 25.2546 122.897 22.1352 118.245 22.1352C113.593 22.1352 110.264 25.284 110.264 30.0234C110.264 34.7628 113.504 37.7939 118.482 37.7939ZM107.115 37.7939C108.057 37.7939 108.735 37.0868 108.735 36.1455V17.4852C108.735 16.5428 108.028 15.8367 107.115 15.8367C106.202 15.8367 105.495 16.5438 105.495 17.4852V36.1455C105.495 37.0879 106.203 37.7939 107.115 37.7939ZM89.0632 37.7939C89.9766 37.7939 90.6234 37.0868 90.6234 36.1455V35.2041C91.6258 36.8515 93.5978 37.7939 96.0715 37.7939C100.754 37.7939 103.963 34.5864 103.963 29.9057C103.963 25.2262 100.783 22.1352 96.3373 22.1352C93.8346 22.1352 91.6539 23.1942 90.7132 24.9027V17.4852C90.7141 16.5428 90.0057 15.8367 89.0931 15.8367C88.1797 15.8367 87.4728 16.5438 87.4728 17.4852V36.1455C87.4728 37.0879 88.1506 37.7939 89.0632 37.7939ZM95.6298 35.1453C92.4486 35.1453 90.5645 33.232 90.5645 29.9646C90.5645 26.6971 92.4494 24.7839 95.6315 24.7839C98.8101 24.7839 100.725 26.6971 100.725 29.9646C100.725 33.232 98.84 35.1453 95.6298 35.1453ZM51.6045 37.7939C53.7542 37.7939 55.6096 36.8515 56.4933 35.3501V36.1455C56.4933 37.0868 57.2003 37.7928 58.1133 37.7928C59.0253 37.7928 59.7335 37.0857 59.7335 36.1443V24.2544C59.7335 23.312 59.0253 22.606 58.1133 22.606C57.2014 22.606 56.4933 23.313 56.4933 24.2544V31.3766C56.4933 33.9075 55.1379 35.2912 52.6646 35.2912C50.1914 35.2912 48.8066 33.9075 48.8066 31.3766V24.2544C48.8066 23.312 48.0984 22.606 47.1865 22.606C46.2746 22.606 45.5664 23.313 45.5664 24.2544V31.5531C45.5664 35.556 47.716 37.7928 51.6024 37.7928L51.6045 37.7939ZM30.3435 24.4908V18.8079C30.3435 18.6902 30.4613 18.5725 30.5789 18.5725H36.8807C38.9127 18.5725 40.1199 19.662 40.1199 21.5164C40.1199 23.3708 38.9127 24.4886 36.8807 24.4886H30.3435V24.4908ZM27.5457 37.3221H37.1465C41.387 37.3221 44.0378 34.9088 44.0378 31.0825C44.0378 28.0797 42.6541 26.3735 39.7668 25.843C42.0635 25.3722 43.3885 23.6943 43.3885 21.2811C43.3885 17.9547 40.9152 15.8357 37.0583 15.8357H27.5457C27.4835 15.8348 27.4219 15.8463 27.3644 15.8696C27.3068 15.893 27.2545 15.9276 27.2106 15.9715C27.1665 16.0154 27.1318 16.0676 27.1084 16.1251C27.0849 16.1826 27.0732 16.2442 27.0739 16.3063V36.8503C27.0739 37.1162 27.281 37.3221 27.5457 37.3221ZM30.3435 34.3194V27.3138H36.9983C39.3256 27.3138 40.7387 28.6975 40.7387 30.9343C40.7387 33.1711 39.3256 34.5536 36.9983 34.5536H30.5789C30.5179 34.55 30.4602 34.5242 30.4168 34.4811C30.3735 34.438 30.3475 34.3804 30.3435 34.3194ZM63.2374 37.7928C64.1798 37.7928 64.8575 37.0857 64.8575 36.1443V28.5504C64.8575 26.137 66.2412 24.6357 68.5096 24.6357C70.7779 24.6357 71.9841 26.0783 71.9841 28.5504V36.1443C71.9841 37.0868 72.6911 37.7928 73.6042 37.7928C74.5172 37.7928 75.2243 37.0857 75.2243 36.1443V28.5504C75.2243 26.137 76.608 24.6357 78.8753 24.6357C81.1426 24.6357 82.3509 26.0783 82.3509 28.5504V36.1443C82.3509 37.0868 83.0569 37.7928 83.9699 37.7928C84.8829 37.7928 85.59 37.0857 85.59 36.1443V28.3739C85.59 24.4592 83.411 22.1342 79.759 22.1342C77.3445 22.1342 75.549 23.1648 74.576 25.0781C73.6053 23.1061 71.9547 22.1342 69.5414 22.1342C67.3329 22.1342 65.7422 22.9579 64.8586 24.5769V24.2533C64.8586 23.312 64.1504 22.606 63.2385 22.606C62.3265 22.606 61.6184 23.312 61.6184 24.2533V36.1455C61.6184 37.0879 62.3265 37.7939 63.2385 37.7939L63.2374 37.7928Z" fill="#181B4A"/>
</g>
</g>
<defs>
<clipPath id="clip0_46_361">
<rect width="127.6" height="52.7911" fill="white"/>
</clipPath>
<clipPath id="clip1_46_361">
<rect width="127.6" height="52.7911" fill="white"/>
</clipPath>
</defs>
</svg>
