<svg width="151" height="53" viewBox="0 0 151 53" fill="none" xmlns="http://www.w3.org/2000/svg">
<g clip-path="url(#clip0_46_387)">
<g clip-path="url(#clip1_46_387)">
<g clip-path="url(#clip2_46_387)">
<path d="M146.514 33.9256H145.889V33.6269H147.45V33.9256H146.825V35.5272H146.514V33.9256ZM147.703 33.6269H148.217L148.733 34.8079H148.801L149.316 33.6278H149.817V35.5272H149.506V34.197L149.534 33.9392H149.506L149.004 35.0929H148.516L148.013 33.9392H147.986L148.013 34.197V35.5272H147.703V33.6269ZM80.1881 27.5678V35.5255H77.4473V27.8289C77.4473 25.4797 76.4038 24.4362 74.3158 24.4362C72.2278 24.4362 70.6629 26.0011 70.6629 28.3502V35.5264H67.923V22.2177H70.662V24.0437H70.7935C70.7935 24.0437 71.9676 21.9566 74.9686 21.9566C78.2306 21.9566 80.1881 23.9141 80.1881 27.5678ZM65.6805 28.8725C65.6805 32.7865 62.6787 35.7875 58.7647 35.7875C54.8507 35.7875 51.8497 32.7865 51.8497 28.8725C51.8497 24.9576 54.8507 21.9566 58.7647 21.9566C62.6787 21.9566 65.6805 24.9576 65.6805 28.8725ZM62.8093 28.8725C62.8093 26.1326 61.1129 24.4353 58.7647 24.4353C56.4165 24.4353 54.7202 26.1326 54.7202 28.8725C54.7202 31.6115 56.4157 33.3086 58.7647 33.3086C61.1129 33.3086 62.8093 31.6132 62.8093 28.8725ZM50.0808 30.3068C50.0808 33.3078 47.9604 35.5255 43.7853 35.5255H34.3438V32.9929H36.1186V19.7935H34.3438V17.2593H43.9159C47.4383 17.2593 49.4281 19.3472 49.4281 21.9566C49.4281 25.0882 46.7863 25.7409 46.7863 25.7409V25.8714C46.7863 25.8714 50.08 26.2631 50.08 30.3077M38.9659 24.8706H43.7606C45.6463 24.8706 46.6617 23.8551 46.6617 22.2305C46.6617 20.8089 45.6463 19.7935 43.7606 19.7935H38.9659V24.8706ZM47.3077 30.12C47.3077 28.3971 46.1592 27.2486 43.5755 27.2486H38.9659V32.9904H43.5755C46.1592 32.9904 47.3077 31.8419 47.3077 30.12ZM122.322 24.1751H122.191V22.2177H119.45V35.5264H122.191V28.3502C122.191 26.1317 123.757 24.6965 125.845 24.6965H127.541V22.0871H125.975C123.366 22.0871 122.322 24.1751 122.322 24.1751ZM111.712 24.1751H111.581V22.2177H108.841V35.5264H111.581V28.3502C111.581 26.1317 113.147 24.6965 115.235 24.6965H116.931V22.0871H115.366C112.757 22.0871 111.712 24.1751 111.712 24.1751ZM86.8548 31.9554V24.6965H90.4674V22.2177H86.8548V19.3472H84.1149V22.2177H82.5492V24.6965H84.1149V32.6739C84.1151 33.4303 84.4157 34.1557 84.9506 34.6906C85.4855 35.2255 86.211 35.5261 86.9675 35.5264H90.5977V32.9921H87.8915C87.7553 32.9921 87.6205 32.9653 87.4945 32.9131C87.3687 32.8609 87.2544 32.7845 87.1581 32.6881C87.0619 32.5918 86.9855 32.4774 86.9335 32.3515C86.8814 32.2256 86.8546 32.0916 86.8548 31.9554ZM106.06 28.8716V29.7846H95.2306C95.6222 32.0032 97.3187 33.2754 99.2757 33.3078C101.271 33.3402 102.722 32.4272 103.323 31.7728L105.167 33.458C104.366 34.389 102.409 35.7875 99.3734 35.7875C95.3608 35.7875 92.4904 32.7856 92.4904 28.8716C92.4904 24.9576 95.492 21.9557 99.2757 21.9557C103.06 21.9557 106.06 24.9567 106.06 28.8716ZM103.19 27.5661C102.929 26.0003 101.624 24.4345 99.2757 24.4345C97.449 24.4345 95.7524 25.6095 95.3608 27.5661H103.19ZM143.772 32.9929V35.5255H141.645C141.069 35.5216 140.507 35.3458 140.031 35.0207C139.556 34.6955 139.188 34.2358 138.975 33.7003H138.845C138.845 33.7003 137.41 35.7883 134.67 35.7883C131.147 35.7883 128.407 33.0484 128.407 28.8725C128.407 24.6973 131.147 21.9574 134.67 21.9574C137.41 21.9574 138.845 23.9149 138.845 23.9149H138.975V22.2186H141.716V32.5774C141.716 32.8078 141.902 32.9938 142.131 32.9938L143.772 32.9929ZM138.975 28.8725C138.975 26.002 137.41 24.4362 135.193 24.4362C132.842 24.4362 131.277 26.002 131.277 28.8733C131.277 31.7429 132.842 33.3086 135.193 33.3086C137.41 33.3086 138.975 31.7429 138.975 28.8725Z" fill="#181B4A"/>
<path fill-rule="evenodd" clip-rule="evenodd" d="M23.4007 15.8512C20.6795 13.4346 17.1248 12.1717 13.4889 12.3296H13.4813V16.2462H23.3998L23.4007 15.8512ZM6.52273 18.7063H12.8822V12.3706C10.6199 12.5601 8.43754 13.2972 6.52359 14.5183L6.52273 18.7063ZM15.2646 17.5355H21.6233V27.0155H15.2646V17.5355ZM6.52443 25.8465H12.8831V35.3264H6.52359L6.52443 25.8465ZM25.871 18.7063H23.9254V16.3366C24.6578 17.0538 25.3101 17.8483 25.871 18.7063ZM4.18303 17.5355H3.14203C0.971363 20.2045 -0.141462 23.5789 0.0155957 27.0155H4.18303V17.5355ZM24.9622 35.3264H23.9246V25.8465H28.144V25.8534C28.1509 26.0342 28.1577 26.2126 28.1577 26.396C28.1624 29.6537 27.0326 32.8114 24.9622 35.3264ZM23.387 28.1094H13.4684V32.9851H23.3878L23.387 28.1094ZM5.96127 28.1094V32.9851H1.63769C0.832778 31.4675 0.314154 29.8147 0.10775 28.1094H5.96127ZM14.6818 19.8377H4.76326V24.7133H14.6818V19.8377ZM14.6818 36.4579V40.459C14.483 40.4675 14.2808 40.4752 14.0785 40.4752C10.6465 40.4795 7.33201 39.2247 4.76326 36.9485V36.4579H14.6818ZM4.18303 36.4084V34.1182H2.30836C2.85276 34.9459 3.48163 35.7139 4.18303 36.4084ZM22.1455 37.9341V36.4204H23.9638C23.401 36.9744 22.7922 37.4807 22.1455 37.9341ZM6.00137 16.2471V14.8682C5.40838 15.2843 4.84839 15.7456 4.32638 16.2479L6.00137 16.2471ZM22.1455 24.7133V19.8377H26.5356C27.3384 21.3552 27.8535 23.0083 28.0545 24.7133H22.1455ZM15.2638 34.1182H21.6224V38.2831C19.7077 39.5015 17.5254 40.2359 15.2638 40.4231V34.1182Z" fill="#181B4A"/>
</g>
</g>
</g>
<defs>
<clipPath id="clip0_46_387">
<rect width="150.471" height="52.7911" fill="white"/>
</clipPath>
<clipPath id="clip1_46_387">
<rect width="150.471" height="52.7911" fill="white"/>
</clipPath>
<clipPath id="clip2_46_387">
<rect width="150.471" height="52.7969" fill="white" transform="translate(0 -0.00292969)"/>
</clipPath>
</defs>
</svg>
