<svg width="89" height="132" viewBox="0 0 89 132" fill="none" xmlns="http://www.w3.org/2000/svg">
<path d="M83.6598 66.7018C81.1405 64.3937 76.6108 61.2979 69.0049 56.686C65.0485 54.1774 59.0009 50.4351 55.4966 47.8447L71.8932 10.7773C73.4021 7.50893 72.2226 3.57575 69.2916 1.57258C67.386 0.0747743 65.2304 -0.225821 63.1961 0.142764C61.8398 0.388487 60.5644 1.08033 59.5555 1.95428L2.81172 49.5571C1.20548 51.0001 0.358183 52.7663 0.0437941 54.8967C-0.447293 61.206 3.32346 63.9785 4.65573 64.8891C4.65573 64.8891 4.65573 64.8891 4.61531 64.666C7.17505 67.1972 11.9308 70.252 19.3106 74.9049C23.267 77.4134 29.3146 81.1558 32.8189 83.7462L16.608 120.55C15.099 123.818 16.2786 127.751 19.2096 129.754C21.0747 131.029 23.2707 131.553 25.3051 131.184C26.6613 130.938 27.9367 130.247 28.9457 129.373L85.6894 81.7697C87.2957 80.3268 88.143 78.5606 88.4574 76.4302C88.7628 70.3849 84.9921 67.6123 83.6598 66.7018Z" fill="#F3FF00"/>
</svg>
