<svg width="1280" height="720" viewBox="0 0 1280 720" fill="none" xmlns="http://www.w3.org/2000/svg">
<g style="mix-blend-mode:multiply" opacity="0.5" clip-path="url(#clip0_2002_40)">
<mask id="mask0_2002_40" style="mask-type:luminance" maskUnits="userSpaceOnUse" x="-1" y="0" width="1347" height="1377">
<path d="M1345.63 0.320679H-0.0451355V1376.93H1345.63V0.320679Z" fill="white"/>
</mask>
<g mask="url(#mask0_2002_40)">
<g opacity="0.42">
<path d="M1586.68 348.376L1585.83 389.714C1420.76 384.237 1308.43 518.494 1179.79 636.635C1058.4 748.053 856.885 774.554 699.857 697.639C580.526 639.145 424.351 601.122 215.976 637.772C-110.198 695.161 -260.1 548.041 -260.1 548.041L-258.757 482.68C-258.757 482.68 -105.885 614.033 209.135 566.966C407.904 537.276 560.287 575.457 676.68 638.687C839.996 727.439 1033.74 683.892 1161.71 574.116C1209.03 533.425 1252.97 490.083 1303.78 460.062C1405.61 399.895 1489.22 345.141 1586.68 348.376Z" fill="#F3FF00"/>
<path d="M1588.39 265.291L1587.53 306.897C1499.82 303.992 1420.71 357.846 1295.53 406.792C1239.64 428.652 1193.22 471.505 1143.67 511.486C1009.27 619.589 823.091 680.577 653.534 579.624C539.954 511.991 391.426 473.226 202.357 495.97C-101.635 532.652 -257.399 417.051 -257.399 417.051L-256.04 351.438C-256.04 351.438 -97.5745 451.034 195.516 424.864C374.836 408.86 519.399 448.54 630.309 520.309C805.901 633.825 984.7 555.033 1125.6 448.603C1177.36 409.317 1227.41 367.806 1287.29 353.285C1438.07 316.872 1510.35 262.718 1588.39 265.291Z" fill="#F3FF00"/>
<path d="M1590.11 181.826L1589.24 223.605C1521.02 221.348 1456.53 277.602 1279.07 299.951C1215.68 307.938 1161.57 347.303 1107.6 385.862C960.164 490.682 788.585 587.531 607.163 461.151C498.655 385.562 358.248 344.509 188.707 353.821C-93.577 369.337 -254.665 285.841 -254.665 285.841L-253.307 220.038C-253.307 220.038 -89.6746 287.277 181.881 282.589C341.548 279.938 477.737 322.554 583.97 401.788C770.938 541.332 935.612 426.079 1089.54 322.869C1145.73 284.988 1203.95 248.402 1270.81 246.334C1475.03 240.131 1531.62 179.9 1590.11 181.826Z" fill="#F3FF00"/>
<path d="M1591.83 98.0771L1590.96 139.983C1542.24 138.405 1493.01 204.128 1262.61 192.78C1192.02 189.307 1129.89 222.769 1071.53 259.908C911.045 361.429 753.021 495.291 560.825 342.362C456.692 259.513 324.864 214.972 175.104 211.357C-85.8353 205.044 -251.916 154.251 -251.916 154.251L-250.557 88.3228C-250.557 88.3228 -82.0277 122.274 168.278 139.999C308.133 149.911 435.474 196.615 537.631 282.921C734.805 449.471 886.54 296.779 1053.54 196.899C1114.16 160.47 1179.85 130.402 1254.41 139.162C1510.35 169.23 1552.84 96.846 1591.83 98.0771Z" fill="#F3FF00"/>
<path d="M1593.27 28.108L1592.65 58.0971C1563.41 57.1185 1526.72 137.016 1246.1 87.3444C1167.29 73.3758 1098.28 99.9714 1035.43 135.69C861.909 233.897 716.194 405.592 514.375 225.279C414.05 135.595 291.338 86.3816 161.406 70.5031C-78.2518 41.0191 -249.278 24.2409 -249.278 24.2409L-248.156 -29.7237C-248.156 -29.7237 -74.539 -30.4656 154.328 11.0615C274.401 32.8746 392.311 84.7085 490.961 177.722C697.061 372.068 837.12 181.116 1017.15 84.598C1082.2 49.495 1154.34 26.498 1237.63 45.5806C1542.21 115.345 1573.77 27.3977 1593.27 28.108Z" fill="#F3FF00"/>
<path d="M1594.37 -25.8095L1593.84 0.328471C1584.1 0.0127954 1557.01 96.1517 1229.1 6.02641C1141.11 -18.1701 1066.11 1.29127 998.808 35.5894C812.284 130.513 677.564 340.8 467.467 132.328C370.412 36.0471 257.67 -18.7541 147.218 -46.1705C-70.5582 -100.277 -247.098 -81.5103 -247.098 -81.5103L-246.071 -131.671C-246.071 -131.671 153.205 -214.299 443.91 88.6228C734.615 391.545 869.872 -142.546 1220.57 -31.8862C1571.26 78.7737 1594.37 -25.8095 1594.37 -25.8095Z" fill="#F3FF00"/>
<path d="M1596.13 -111.152L1595.31 -71.0614C1595.31 -71.0614 1554.23 16.5227 1214.06 -76.0017C1181.24 -85.1399 1147.12 -88.6988 1113.12 -86.5295C951.364 -75.6545 846.584 16.349 728.975 81.7569C632.189 135.516 554.9 165.679 434.889 55.3665C413.213 35.4316 389.814 17.1066 365.736 -0.965755C80.1349 -215.451 -219.986 -184.957 -244.933 -189.739L-243.843 -242.631C-194.091 -233.161 64.2409 -223.801 352.465 -25.1149C378.534 -7.12143 403.465 9.48309 425.647 27.2714C547.869 125.162 610.276 79.484 712.497 25.5194C836.378 -40.0306 935.755 -100.956 1105.9 -120.717C1139.84 -124.598 1174.2 -122.655 1207.48 -114.972C1536.41 -40.141 1596.13 -111.152 1596.13 -111.152Z" fill="#F3FF00"/>
<path d="M1597.85 -194.917L1596.98 -152.427C1596.98 -152.427 1518.25 -97.4677 1200.91 -155.11C1167.13 -161.261 1132.55 -161.592 1098.66 -156.089C919.94 -127.141 826.045 -97.6887 695.892 -31.902C588.378 22.3152 540.728 83.4773 416.546 -2.00756C393.827 -17.6335 367.474 -32.5807 339.336 -50.4321C49.6423 -234.029 -168.023 -282.374 -242.674 -296.706L-241.536 -351.949C-142.002 -332.835 35.897 -246.198 326.175 -76.9173C356.462 -59.271 384.158 -45.918 407.399 -32.4386C533.523 40.6559 566.496 -36.0531 679.397 -90.5071C815.807 -156.483 904.251 -154.21 1091.47 -192.66C1125.31 -199.731 1160.1 -201.028 1194.37 -196.495C1499.64 -155.394 1597.85 -194.917 1597.85 -194.917Z" fill="#F3FF00"/>
<path d="M1586.68 348.376L1585.83 389.714C1420.76 384.237 1308.43 518.494 1179.79 636.635C1058.4 748.053 856.885 774.554 699.857 697.639C580.526 639.145 424.351 601.122 215.976 637.772C-110.198 695.161 -260.1 548.041 -260.1 548.041L-258.757 482.68C-258.757 482.68 -105.885 614.033 209.135 566.966C407.904 537.276 560.287 575.457 676.68 638.687C839.996 727.439 1033.74 683.892 1161.71 574.116C1209.03 533.425 1252.97 490.083 1303.78 460.062C1405.61 399.895 1489.22 345.141 1586.68 348.376Z" fill="#F3FF00"/>
</g>
</g>
</g>
<defs>
<clipPath id="clip0_2002_40">
<rect width="1280" height="720" fill="white"/>
</clipPath>
</defs>
</svg>
