<svg width="177" height="36" viewBox="0 0 177 36" fill="none" xmlns="http://www.w3.org/2000/svg">
<path d="M72.3243 34.2486C71.7909 34.3683 71.2624 34.5079 70.8137 34.832C70.6691 34.9368 70.5096 34.9517 70.35 34.9816C69.7418 35.0914 69.1634 35.2808 68.5851 35.4903C68.291 35.595 68.5004 35.2709 68.3757 35.221C68.2461 35.1661 68.1314 35.2459 68.0666 35.3158C67.8024 35.59 67.4733 35.5451 67.1493 35.5551C66.9748 35.5601 66.8302 35.5302 66.7155 35.3806C66.541 35.1562 66.2917 35.0963 66.0175 35.0814C65.5888 35.0614 65.4841 34.9318 65.3445 34.5328C65.16 34.0043 65.1301 33.4457 65.0005 32.9072C64.9406 32.6628 65.0703 32.4185 65.16 32.1941C65.3345 31.7652 65.5788 31.4012 66.0275 31.1668C66.3416 31.0023 66.6258 30.7779 66.9598 30.6582C66.9249 30.4986 66.7903 30.4787 66.7105 30.3939C66.5161 30.1795 66.4263 29.99 66.4812 29.6509C66.5859 28.9627 66.7504 28.2846 66.8601 27.6014C66.8701 27.5366 66.8651 27.4717 66.905 27.4169C67.3337 26.8434 67.3836 26.1303 67.6428 25.492C67.9968 24.6144 68.3209 23.7267 68.7247 22.864C69.4825 21.2484 70.2254 19.6227 71.048 18.037C71.4817 17.1992 71.9105 16.3664 72.3143 15.5137C72.6584 14.7807 72.9575 14.0277 73.2716 13.2797C73.5109 12.7012 73.7801 12.1327 74.0443 11.5692C74.3684 10.8861 74.6626 10.1879 74.9368 9.46487C74.6675 9.39007 74.4382 9.30031 74.1989 9.2654C73.3513 9.13575 72.778 8.5922 72.2794 7.97386C72.075 7.71954 71.8158 7.50013 71.6612 7.20591C71.4319 6.77207 71.1577 6.36317 71.0281 5.88943C70.9283 5.53039 70.9981 5.23618 71.2275 4.91703C71.7061 4.26877 72.3044 3.85986 73.117 3.79503C73.4461 3.7701 73.6854 3.54072 73.9696 3.41605C74.3784 3.24152 74.8071 3.13181 75.2409 3.04703C75.5001 2.99717 75.7594 2.92237 75.9788 2.77277C76.2729 2.57829 76.602 2.48853 76.936 2.39877C77.619 2.22423 78.312 2.06466 78.9901 1.87018C79.2842 1.78541 79.5933 1.72556 79.8426 1.49119C79.9473 1.39146 80.1417 1.37151 80.3013 1.33162C81.772 0.932686 83.2677 0.648446 84.7684 0.409086C85.4464 0.29938 86.1444 0.269457 86.8224 0.169724C88.2583 -0.0447026 89.6941 0.0101556 91.13 0.000182254C91.9227 -0.00480441 92.7005 0.144792 93.4682 0.314339C94.0765 0.448979 94.6897 0.578633 95.2381 0.907753C95.9511 1.34159 96.4995 1.9001 96.7837 2.70794C96.8435 2.8725 96.8485 3.02709 96.8535 3.19165C96.8585 3.9945 96.7687 4.78738 96.6989 5.58525C96.659 6.01909 96.669 6.45791 96.5643 6.88178C96.4247 7.46023 96.1306 7.94394 95.6868 8.34786C95.2132 8.7817 94.6847 9.11082 94.1313 9.43994C93.6078 9.74911 93.1442 10.1929 92.7802 10.7115C92.7204 10.7963 92.6805 10.8811 92.5858 10.926C91.7682 11.3249 91.0801 11.9532 90.2326 12.2923C89.8936 12.427 89.6941 12.7311 89.4499 12.9705C89.2405 13.175 89.0261 13.3445 88.712 13.3146C88.5524 13.2996 88.4079 13.3644 88.2982 13.4592C88.019 13.7035 87.6949 13.8432 87.3459 13.9329C87.0318 14.0127 86.8773 14.287 86.6878 14.5064C86.5532 14.6011 86.3887 14.6061 86.2242 14.646C86.3339 14.8505 86.5283 14.8405 86.7028 14.8754C87.311 15.1746 87.9243 15.4638 88.5325 15.768C89.5446 16.2717 90.4869 16.885 91.2397 17.7378C91.9975 18.5955 92.5908 19.5629 92.8301 20.6948C92.9348 21.1885 92.9647 21.7022 93.0594 22.2008C93.0694 22.2457 93.0744 22.2956 93.1841 22.2956C93.3336 21.9565 93.4982 21.6074 93.6378 21.2484C94.1612 19.9219 94.8792 18.6902 95.4824 17.4086C95.9561 16.4063 96.5494 15.4838 97.0928 14.5263C97.6362 13.5689 98.2395 12.6414 98.8128 11.6939C99.3862 10.7464 99.9495 9.79898 100.508 8.84154C100.782 8.37279 101.041 7.89407 101.311 7.41535C101.326 7.38543 101.346 7.35551 101.355 7.32559C101.555 6.7222 101.874 6.20858 102.293 5.72487C102.677 5.28106 103.424 5.01677 103.928 5.51045C104.187 5.76477 104.471 5.98917 104.671 6.30832C104.89 6.65738 105.055 6.69727 105.469 6.6125C106.999 6.30333 108.52 5.96423 110.055 5.70492C111.172 5.51543 112.289 5.32594 113.416 5.20127C114.577 5.07162 115.739 4.93199 116.911 4.927C117.2 4.927 117.469 5.00679 117.713 5.14143C117.958 5.27607 117.997 5.39575 117.843 5.65007C117.708 5.8645 117.863 6.12879 117.633 6.33823C117.529 6.43298 117.524 6.65239 117.314 6.69229C117.255 6.70226 117.21 6.77706 117.21 6.84687C117.22 7.24082 117.015 7.56495 116.901 7.919C116.821 8.16834 116.676 8.37279 116.422 8.51242C115.913 8.79167 115.42 9.13077 114.842 9.17565C114.134 9.2305 113.47 9.50476 112.753 9.51474C112.219 9.51972 111.691 9.70922 111.157 9.79898C110.369 9.93362 109.592 10.1281 108.814 10.3176C107.902 10.542 106.999 10.8113 106.107 11.1055C105.857 11.1853 105.603 11.2551 105.344 11.29C105.015 11.3349 104.82 11.5343 104.641 11.7887C104.337 12.2175 104.182 12.7311 103.863 13.155C103.674 13.4093 103.484 13.6537 103.255 13.8781C102.333 14.7757 101.64 15.8378 101.086 16.9947C101.051 17.0695 101.026 17.1443 100.972 17.274C101.525 17.2141 102.034 17.1543 102.542 17.0995C103.051 17.0446 103.574 17.0646 104.043 16.8252C103.973 16.6207 103.838 16.6407 103.739 16.5908C103.325 16.3714 103.28 15.8478 103.654 15.5735C103.813 15.4588 103.998 15.3641 104.182 15.3092C105.154 15.025 106.127 14.7457 107.139 14.6061C107.917 14.4964 108.699 14.3817 109.477 14.267C109.866 14.2072 110.265 14.2172 110.659 14.1673C110.968 14.1274 111.287 14.1773 111.551 13.9429C111.641 13.8631 111.765 13.8781 111.885 13.923C112.319 14.0925 112.777 14.1374 113.241 14.1623C113.545 14.1773 113.819 14.3069 114.079 14.4515C114.233 14.5363 114.463 15.2145 114.423 15.394C114.393 15.5287 114.303 15.5885 114.173 15.5885C113.75 15.5935 113.321 15.5735 112.897 15.6035C112.538 15.6284 112.184 15.7032 111.82 15.6882C111.716 15.6832 111.621 15.7481 111.606 15.8578C111.576 16.0922 111.416 16.1171 111.222 16.167C110.489 16.3515 109.741 16.4213 108.993 16.516C108.475 16.5808 108.231 16.6357 107.747 16.91C107.956 17.1992 108.325 17.284 108.555 17.5433C108.799 17.8225 108.794 18.0768 108.5 18.3012C108.29 18.4608 108.066 18.6104 107.817 18.6952C106.466 19.1589 105.1 19.5579 103.689 19.7723C102.602 19.9419 101.585 20.3358 100.573 20.7497C100.134 20.9292 99.6753 21.0688 99.2167 21.1885C98.9724 21.2533 98.8078 21.368 98.6782 21.5775C98.3342 22.131 98.1497 22.7494 97.8955 23.3378C97.6661 23.8664 97.5116 24.4249 97.2922 24.9584C97.1925 25.1978 97.347 25.3624 97.362 25.5568C98.0151 25.6715 98.5984 25.4272 99.1518 25.2128C100.972 24.5196 102.816 23.9063 104.661 23.2929C105.628 22.9688 106.595 22.6297 107.568 22.3255C108.226 22.121 108.894 21.9016 109.572 21.8019C110.09 21.7271 110.599 21.5525 111.127 21.5825C111.317 21.5924 111.441 21.4977 111.551 21.368C111.795 21.0788 112.099 21.004 112.473 20.9841C113.296 20.9392 114.094 20.7447 114.866 20.4405C114.926 20.4156 114.986 20.3657 115.046 20.3607C115.779 20.3208 116.088 19.7823 116.432 19.2437C117.01 18.3411 117.638 17.4735 118.227 16.5808C119.259 15.02 120.366 13.5091 121.482 12.0031C122.465 10.6816 123.422 9.35018 124.384 8.01375C124.504 7.84919 124.633 7.70458 124.778 7.56495C125.261 7.08623 125.68 6.56762 125.964 5.9393C126.049 5.75479 126.214 5.63511 126.398 5.54535C126.608 5.44562 126.837 5.36583 127.016 5.22122C127.38 4.92701 127.779 4.85719 128.238 4.79237C128.726 4.72255 129.205 4.79735 129.689 4.74749C130.063 4.70759 130.466 4.80234 130.85 4.91205C130.99 4.95194 131.09 5.03173 131.154 5.14642C131.299 5.42069 131.498 5.53039 131.803 5.4157C131.877 5.38578 131.967 5.39575 132.047 5.39575C132.785 5.37082 133.184 5.68996 133.268 6.42799C133.378 7.37546 133.533 8.32791 133.453 9.28535C133.348 10.5919 133.393 11.9033 133.358 13.2099C133.343 13.7285 133.253 14.2521 133.139 14.7657C133.064 15.0998 133.109 15.4239 133.084 15.7531C133.069 15.9376 133.189 15.9874 133.338 15.9625C134.186 15.8179 135.043 15.763 135.901 15.773C136.115 15.778 136.23 15.6384 136.32 15.4738C136.678 14.8305 137.242 14.3119 137.491 13.5988C137.506 13.5539 137.551 13.519 137.586 13.4841C138.224 12.8109 138.862 12.1377 139.505 11.4695C139.954 11.0058 140.393 10.537 140.871 10.1082C141.519 9.52471 142.178 8.94127 142.935 8.49247C143.165 8.35783 143.319 8.13343 143.529 7.96389C144.192 7.44029 144.97 7.07626 145.623 6.55266C146.056 6.20858 146.525 5.96423 146.999 5.70492C147.477 5.44562 147.871 5.05666 148.37 4.82229C148.764 4.63279 149.157 4.51311 149.606 4.52807C150.364 4.553 151.132 4.47322 151.865 4.72754C152.348 4.8921 152.902 4.88213 153.3 5.27109C153.32 5.29103 153.36 5.29602 153.395 5.29602C154.078 5.38578 154.617 5.77972 155.1 6.20359C155.399 6.4629 155.664 6.76708 155.649 7.30066C155.619 8.37279 155.155 9.3053 154.911 10.3026C154.881 10.4173 154.851 10.5021 154.896 10.6318C154.991 10.916 155.04 11.1903 154.726 11.4296C154.577 11.5443 154.622 11.8086 154.686 11.9931C154.826 12.422 154.726 12.791 154.472 13.1351C154.452 13.16 154.422 13.1849 154.412 13.2148C154.073 14.0277 153.315 14.1573 152.588 14.3169C152.413 14.3568 152.224 14.287 152.054 14.3967C152.029 14.4116 151.984 14.4216 151.959 14.4116C151.376 14.1124 150.593 14.1174 150.274 13.3994C150.17 13.165 150.15 12.8957 150.11 12.6364C150.075 12.412 150.12 12.1976 150.01 11.9632C149.945 11.8186 150.08 11.5692 150.15 11.3748C150.289 11.0058 150.449 10.6417 150.598 10.2727C150.633 10.1879 150.718 10.0932 150.628 10.0034C150.543 9.92365 150.449 9.99346 150.349 10.0184C149.272 10.2827 148.385 10.911 147.467 11.4895C146.645 12.0081 145.907 12.6364 145.104 13.1799C144.396 13.6587 143.658 14.1025 142.975 14.6111C142.502 14.9652 142.003 15.2993 141.599 15.7431C141.51 15.8378 141.39 15.9276 141.47 16.0822C141.529 16.2019 141.649 16.2068 141.764 16.2268C142.522 16.3814 143.269 16.2068 144.017 16.157C144.596 16.1221 145.164 16.0423 145.732 15.9475C146.425 15.8328 147.133 15.9475 147.806 15.8328C148.579 15.6982 149.322 15.8578 150.075 15.8727C150.982 15.8927 151.81 16.2617 152.583 16.7255C152.797 16.8551 153.006 17.0845 153.096 17.3139C153.35 17.9721 153.799 18.5057 154.153 19.0991C154.323 19.3883 154.397 19.6726 154.253 19.9768C154.063 20.3757 154.038 20.8145 154.013 21.2284C153.954 22.0961 153.58 22.7244 152.917 23.2879C152.109 23.9761 151.187 24.4149 150.224 24.7989C149.796 24.9684 149.357 25.1479 148.968 25.3624C148.584 25.5718 148.195 25.8012 147.796 25.9857C147.213 26.255 146.68 26.5791 146.156 26.9431C145.992 27.0578 145.887 27.362 145.593 27.2822C145.338 27.2124 145.179 27.4717 144.94 27.4717C144.745 27.4717 144.621 27.6363 144.466 27.726C144.396 27.7659 144.321 27.8358 144.351 27.9255C144.491 28.2846 144.202 28.3294 143.992 28.3693C143.803 28.4042 143.613 28.4441 143.394 28.4142C143.11 28.3743 142.761 28.3045 142.477 28.4691C142.332 28.5488 142.068 28.5339 142.128 28.8381C142.138 28.8929 141.973 29.0126 141.873 29.0425C141.619 29.1173 141.38 29.227 141.121 29.2769C140.846 29.3268 140.512 29.2819 140.353 29.616C140.348 29.626 140.323 29.6309 140.308 29.6359C139.675 29.7456 139.206 30.1845 138.653 30.4488C138.558 30.4936 138.498 30.5635 138.428 30.6333C138.134 30.9375 137.715 30.8477 137.361 30.9524C137.332 30.9624 137.277 30.9125 137.247 30.8776C137.052 30.6831 136.833 30.5684 136.544 30.5984C136.255 30.6283 136.165 30.3889 136.14 30.1845C136.11 29.985 136.04 29.9252 135.861 29.9401C135.661 29.9551 135.522 29.9002 135.417 29.7058C135.352 29.5911 135.228 29.4913 135.093 29.4165C134.729 29.2021 134.55 28.8082 134.42 28.4591C134.285 28.1 134.475 27.6612 134.824 27.4767C135.382 27.1875 135.796 26.6838 136.399 26.4744C137.137 26.2151 137.78 25.7713 138.493 25.4521C139.091 25.1878 139.615 24.764 140.178 24.4199C141.375 23.6868 142.561 22.9388 143.783 22.2457C144.112 22.0612 144.356 21.742 144.715 21.5974C145.548 21.2683 146.281 20.7447 147.053 20.3109C147.253 20.2012 147.542 20.1413 147.562 19.8222C147.393 19.7623 147.218 19.7175 147.058 19.6427C146.864 19.5479 146.675 19.5579 146.485 19.6227C146.271 19.6975 146.061 19.8022 145.842 19.6327C145.782 19.5878 145.712 19.6227 145.658 19.6476C145.189 19.892 144.66 19.8471 144.162 19.9668C143.818 20.0516 143.474 20.1014 143.1 20.0765C142.721 20.0466 142.327 20.1962 141.938 20.271C141.873 20.281 141.804 20.3308 141.749 20.3159C141.29 20.2311 140.846 20.3508 140.398 20.3757C139.874 20.4056 139.386 20.5303 138.907 20.6599C138.199 20.8544 137.611 20.6599 137.057 20.281C136.868 20.1463 136.738 19.9069 136.619 19.6925C136.32 19.1739 135.956 18.6852 135.821 18.0868C135.781 17.9173 135.686 17.8724 135.547 17.8674C135.018 17.8524 134.475 17.8125 134.036 18.1965C133.832 18.376 133.557 18.3312 133.338 18.5256C132.919 18.8947 132.894 19.3534 132.939 19.8172C132.964 20.0615 133.009 20.271 132.815 20.4505C132.685 20.5702 132.705 20.7198 132.705 20.8694C132.705 21.2184 132.67 21.5725 132.715 21.9166C132.79 22.49 132.565 23.0186 132.506 23.5722C132.496 23.6769 132.401 23.7367 132.311 23.7866C132.157 23.617 132.112 23.4126 132.127 23.1932C132.152 22.8291 132.102 22.4701 132.037 22.1111C132.022 22.0313 132.027 21.9166 131.927 21.9415C131.832 21.9615 131.648 21.9565 131.673 22.116C131.718 22.4402 131.603 22.7543 131.633 23.0835C131.688 23.7267 131.658 24.38 131.658 25.0283C131.658 25.2277 131.404 25.3773 131.493 25.5768C131.563 25.7413 131.528 25.9259 131.623 26.1154C131.832 26.0106 131.832 25.7264 132.107 25.7064C132.122 26.0306 132.321 26.3248 132.171 26.6838C132.127 26.7935 132.221 26.9631 132.241 27.1077C132.311 27.5515 132.122 27.9504 132.032 28.3594C131.977 28.6037 131.952 28.8431 131.952 29.0924C131.952 29.3018 131.902 29.5262 131.718 29.606C131.344 29.7706 131.508 30.2692 131.159 30.4238C131.369 30.6632 131.194 30.9175 131.189 31.1668C131.189 31.3314 131.129 31.2716 131.015 31.2616C130.91 31.2516 130.771 31.3514 130.696 31.4411C130.476 31.7004 130.227 31.6506 129.973 31.5408C129.609 31.3863 129.419 31.102 129.385 30.7081C129.37 30.5285 129.355 30.344 129.355 30.1645C129.35 29.9052 129.454 29.6359 129.245 29.4066C129.265 28.6835 129.055 27.9754 129.095 27.2523C129.125 26.7088 128.971 26.1852 128.986 25.6416C129.026 24.1207 128.986 22.5948 129.016 21.0738C129.026 20.6151 128.806 20.1862 128.896 19.7224C128.926 19.5828 128.791 19.5878 128.692 19.5828C128.392 19.5728 128.108 19.6776 127.819 19.7324C127.056 19.872 126.323 20.1164 125.576 20.3159C125.446 20.3508 125.296 20.4555 125.192 20.246C125.142 20.1413 125.042 20.2161 124.982 20.256C124.334 20.63 123.571 20.6699 122.888 20.9591C122.639 21.0639 122.345 21.0589 122.125 21.2583C122.096 21.2883 122.036 21.3331 122.001 21.2683C121.921 21.1087 121.821 21.1237 121.682 21.1935C121.517 21.2783 121.363 21.3481 121.278 21.5376C121.009 22.131 120.56 22.6247 120.316 23.238C120.161 23.632 119.932 23.996 119.568 24.2653C119.458 24.3451 119.383 24.5096 119.349 24.6443C119.279 24.9385 119.149 25.1679 118.895 25.3424C118.725 25.4621 118.631 25.6117 118.611 25.856C118.571 26.3198 118.222 26.6439 117.938 26.988C117.773 27.1875 117.569 27.3371 117.574 27.6562C117.579 27.9405 117.279 28.12 117.13 28.3544C116.921 28.6835 116.731 29.0425 116.357 29.237C116.203 29.3168 116.148 29.4913 116.078 29.6409C115.983 29.8454 115.824 29.9451 115.604 29.8903C115.41 29.8454 115.3 29.9501 115.181 30.0698C114.986 30.2692 114.782 30.4637 114.463 30.4338C114.418 30.4288 114.338 30.4388 114.323 30.4687C114.134 30.8577 113.844 30.6532 113.56 30.6333C113.017 30.5934 112.463 30.6183 111.915 30.6133C111.631 30.6133 111.352 30.6233 111.067 30.6083C110.768 30.5934 110.674 30.4338 110.698 30.1296C110.773 29.2171 111.097 28.3743 111.466 27.5515C111.696 27.0429 112.01 26.5741 112.284 26.0854C112.628 25.4671 112.982 24.8587 113.301 24.2254C113.485 23.8614 113.74 23.5372 113.964 23.1333C113.515 23.0186 113.146 23.243 112.763 23.1982C112.349 23.1483 112.109 23.5273 111.79 23.7267C111.81 23.7966 111.825 23.8863 111.85 23.9711C111.885 24.0908 112.05 24.2204 111.955 24.3251C111.855 24.4348 111.681 24.5246 111.526 24.5396C110.793 24.6144 110.15 24.9784 109.452 25.1579C109.193 25.2227 109.158 25.5519 108.879 25.5668C108.649 25.5818 108.415 25.5269 108.186 25.6067C108.081 25.6416 107.976 25.6865 107.842 25.7364C107.946 25.9558 108.196 25.7613 108.325 25.9458C107.877 26.1901 107.453 26.4395 106.949 26.5143C106.431 26.5941 105.967 26.8584 105.459 26.9731C105.035 27.4617 104.427 27.4568 103.863 27.5914C103.579 27.6562 103.34 27.8507 103.08 27.9804C102.432 28.3045 101.729 28.499 101.096 28.868C100.488 29.227 99.8299 29.5013 99.1419 29.6858C98.419 29.8803 97.7509 30.1944 97.0728 30.5036C96.325 30.8427 95.5273 30.9474 94.7496 30.6981C93.9917 30.4587 93.2439 30.1795 92.4811 29.9501C92.2617 29.8853 92.0623 29.7357 91.9177 29.5562C91.6635 29.242 91.5289 28.853 91.2347 28.5538C91.0303 28.3444 91.2048 28.0552 91.2546 27.7809C90.8707 27.8557 90.6663 28.1449 90.4171 28.3444C89.1956 29.3268 87.8744 30.1196 86.4336 30.728C85.9948 30.9125 85.576 31.1469 85.0924 31.2067C85.0027 31.2167 84.903 31.2815 84.8332 31.3464C84.5141 31.6306 84.1003 31.6954 83.7214 31.84C83.6466 31.87 83.5369 31.865 83.4871 31.9148C83.1381 32.2839 82.6694 32.3138 82.2157 32.4285C81.8568 32.5182 81.5028 32.7027 81.2286 32.962C81.0491 33.1316 80.8447 33.2413 80.6204 33.2513C80.1717 33.2762 79.7529 33.361 79.374 33.6153C79.3391 33.6402 79.2792 33.6352 79.2294 33.6352C78.9552 33.6352 78.661 33.7549 78.4267 33.735C78.0927 33.7051 77.8683 33.8746 77.5941 33.9344C77.3199 33.9943 77.0606 34.109 76.7964 34.2037C76.6568 34.2536 76.5172 34.3035 76.3776 34.3583C76.2978 34.3882 76.228 34.4281 76.1383 34.4032C76.0735 34.3882 76.0037 34.3533 75.9887 34.2885C75.9688 34.2187 76.0137 34.1638 76.0835 34.1389C76.2231 34.084 76.3577 34.0242 76.4973 33.9743C76.8163 33.8696 77.0856 33.6901 77.3448 33.4856C77.6689 33.3809 77.9929 33.2712 78.317 33.1665C78.4217 33.1316 78.4317 33.0618 78.4117 32.977C78.3818 32.8673 78.312 32.8773 78.2223 32.9122C77.9231 33.0368 77.619 33.1515 77.3149 33.2712C76.7067 33.3211 76.1433 33.6352 75.4902 33.5255C75.1661 33.4707 74.847 33.7449 74.523 33.8696C73.8848 34.1239 73.2417 34.3633 72.5536 34.4331C72.5487 34.3882 72.5237 34.2985 72.5337 34.2985C72.7331 34.2187 72.8677 34.0392 73.112 34.0043C73.3513 33.9693 73.6405 33.9195 73.7701 33.6402C73.7701 33.6402 73.7951 33.6452 73.8001 33.6502C73.83 33.71 73.825 33.5804 73.8549 33.5455C73.2766 33.8198 72.7979 34.0342 72.3243 34.2486ZM87.326 12.9256C87.0518 12.9206 86.8823 13.0902 86.6779 13.2946C87.0119 13.3445 87.1515 13.1051 87.3509 12.9855C87.5254 12.9356 87.7099 12.9007 87.7996 12.6314C87.5703 12.6962 87.4257 12.776 87.326 12.9256ZM88.014 12.5416C88.4278 12.407 88.717 12.053 89.1358 11.9333C88.6222 11.9383 88.3431 12.0829 87.9691 12.5067C87.9292 12.5217 87.8794 12.5466 87.9243 12.5915C87.9641 12.6314 87.999 12.5865 88.014 12.5416ZM79.4687 12.5915C79.6731 12.6912 79.8177 12.5416 79.9772 12.4718C81.1887 11.9283 82.2855 11.1853 83.4572 10.5669C84.7584 9.88375 86.0347 9.14573 87.316 8.42765C88.0389 8.02373 88.7818 7.6597 89.4598 7.19095C90.2027 6.67733 90.8857 6.07394 91.5737 5.4905C91.7682 5.32594 92.0623 5.25613 92.1221 4.97189C92.0573 4.85221 91.9576 4.84223 91.8579 4.84722C91.2696 4.88213 90.6963 4.75247 90.093 4.8173C89.1308 4.92202 88.1735 5.03172 87.2213 5.20626C86.987 5.25114 86.7826 5.44562 86.5831 5.39575C86.3438 5.33093 86.1743 5.4157 85.9749 5.47554C85.7904 5.53039 85.601 5.62015 85.4165 5.63012C84.215 5.68996 83.1929 6.27839 82.116 6.71223C81.9864 6.7621 81.8119 6.93165 81.9366 7.0613C82.2157 7.37047 82.0512 7.64474 81.9415 7.93397C81.777 8.37778 81.6923 8.88642 81.423 9.25543C80.6453 10.3076 80.0321 11.4496 79.4587 12.6164C79.4836 12.5965 79.4936 12.6164 79.4787 12.6214C79.4188 12.6214 79.5086 12.6414 79.4687 12.5915ZM69.2183 29.9601C69.8963 29.7107 70.5694 29.4315 71.2624 29.2121C72.7082 28.7533 74.164 28.3294 75.6098 27.8707C77.1952 27.367 78.7707 26.8434 80.3561 26.3348C82.2806 25.7214 84.1551 24.9784 85.95 24.0658C86.4934 23.7916 87.0169 23.4724 87.5653 23.2081C87.9691 23.0087 88.3431 22.7144 88.5225 22.2507C88.5724 22.116 88.6322 21.9864 88.7668 21.8867C88.8965 21.7919 89.0161 21.6224 88.9413 21.4578C88.8267 21.2035 88.707 20.9342 88.4378 20.8046C88.1037 20.65 87.8295 20.4106 87.5404 20.1962C87.3758 20.0765 87.2113 20.0017 87.0119 19.9518C86.5233 19.8222 86.0397 19.6626 85.5611 19.4881C85.1971 19.3534 84.8681 19.0891 84.4443 19.2736C84.4094 19.2886 84.3346 19.2786 84.3047 19.2537C83.9408 18.9246 83.4572 18.9794 83.0384 18.9346C82.3204 18.8598 81.6175 18.6703 80.8995 18.6054C80.6951 18.5855 80.4957 18.5057 80.2913 18.5905C79.9672 18.3112 79.5534 18.411 79.1795 18.3362C78.6461 18.2264 78.0976 18.2713 77.5592 18.1716C77.2252 18.1068 77.1105 18.1716 77.0008 18.5057C76.9011 18.8099 76.7465 19.0792 76.592 19.3534C76.4324 19.6427 76.248 19.9269 76.1433 20.2361C75.884 21.0389 75.565 21.8119 75.1163 22.5349C74.8769 22.9139 74.6476 23.2929 74.1939 23.4575C73.9696 23.5372 73.82 23.7267 73.6754 23.9063C73.6256 23.9661 73.6106 24.0808 73.5258 24.0958C73.127 24.1556 73.127 24.5296 72.9824 24.7839C72.9026 24.9235 72.8727 25.0931 72.8229 25.2527C72.7331 25.5319 72.6185 25.7812 72.2545 25.7314C72.1448 25.7164 72.08 25.8162 72.1 25.881C72.1897 26.1453 72.0601 26.255 71.8607 26.3946C71.6313 26.5592 71.6313 26.9481 71.2773 27.013C71.377 27.2822 71.1078 27.4318 71.058 27.6612C70.9882 27.9804 70.8286 28.2796 70.7239 28.5937C70.6143 28.9278 70.3251 29.0425 70.0459 29.1173C69.7418 29.1971 69.7218 29.1572 69.647 29.2869C69.5224 29.4913 69.3379 29.6309 69.1734 29.7905C69.0438 29.8803 68.8444 29.9002 68.7845 30.1446C68.969 30.1296 69.0936 30.0498 69.2183 29.9601ZM129.16 11.4097C128.946 11.4446 128.871 11.5692 128.791 11.6889C128.203 12.5566 127.475 13.3196 126.917 14.2172C126.627 14.6809 126.164 15.035 125.974 15.5785C125.954 15.6384 125.895 15.6832 125.845 15.7231C125.092 16.2966 124.773 17.1942 124.155 17.9522C125.685 17.5782 127.176 17.3338 128.592 16.8052C128.981 16.6606 129.006 16.6706 128.981 16.2667C128.916 15.1596 129.18 14.0676 129.065 12.9605C129.06 12.8907 129.08 12.8359 129.1 12.771C129.245 12.3372 129.14 11.8884 129.16 11.4097ZM70.2702 28.2596C70.3899 28.2197 70.4298 28.12 70.4298 28.0003C70.4298 27.9504 70.3999 27.9006 70.345 27.9106C70.2104 27.9405 70.1905 28.0601 70.1705 28.1699C70.1606 28.2197 70.2054 28.2546 70.2702 28.2596ZM131.244 21.6623C131.139 21.8468 131.12 22.0562 131.244 22.2607C131.244 22.0612 131.244 21.8617 131.244 21.6623ZM79.5784 32.6778C79.5634 32.6529 79.5534 32.608 79.5335 32.603C79.4836 32.5831 79.4388 32.613 79.4338 32.6678C79.4288 32.6928 79.4537 32.7376 79.4737 32.7426C79.5235 32.7576 79.5634 32.7327 79.5784 32.6778ZM79.1945 32.0993C79.1396 32.1093 79.1147 32.1492 79.1297 32.1991C79.1346 32.219 79.1795 32.244 79.2044 32.239C79.2593 32.234 79.2842 32.1941 79.2693 32.1442C79.2643 32.1243 79.2194 32.1143 79.1945 32.0993ZM79.4936 32.0046C79.4388 32.0196 79.4138 32.0545 79.4288 32.1043C79.4338 32.1243 79.4787 32.1492 79.5036 32.1442C79.5584 32.1392 79.5883 32.0993 79.5684 32.0445C79.5634 32.0246 79.5185 32.0146 79.4936 32.0046ZM116.372 28.3594C116.397 28.3494 116.437 28.3444 116.452 28.3244C116.477 28.2796 116.457 28.2347 116.412 28.2197C116.392 28.2147 116.347 28.2297 116.337 28.2496C116.307 28.2895 116.322 28.3344 116.372 28.3594ZM117.389 26.1154C117.339 26.1353 117.319 26.1752 117.344 26.2201C117.354 26.24 117.399 26.26 117.424 26.255C117.474 26.24 117.494 26.1951 117.469 26.1503C117.459 26.1303 117.414 26.1253 117.389 26.1154ZM111.601 24.2104C111.591 24.1805 111.586 24.1406 111.566 24.1257C111.521 24.1007 111.471 24.1207 111.456 24.1706C111.451 24.1955 111.466 24.2404 111.491 24.2503C111.536 24.2803 111.576 24.2603 111.601 24.2104ZM117.773 25.6566C117.803 25.6217 117.833 25.5868 117.863 25.5519C117.843 25.5369 117.818 25.512 117.798 25.512C117.743 25.512 117.708 25.5469 117.713 25.6017C117.708 25.6167 117.743 25.6316 117.773 25.6566Z" fill="#181B4A"/>
<path d="M29.0643 31.7302C28.7552 32.1192 28.6704 32.6428 28.3713 33.0567C28.117 32.9719 28.0173 32.7076 27.788 32.5929C27.6683 32.7326 27.6534 32.9021 27.6135 33.0716C27.5437 33.4008 27.434 33.4905 27.095 33.4656C26.6214 33.4307 26.1527 33.3609 25.6791 33.306C25.2503 33.2562 24.9611 33.0268 24.7717 32.6328C24.6421 32.3635 24.6221 32.3735 24.2881 32.4433C24.323 31.8499 24.318 31.2665 24.3429 30.683C24.3828 29.7206 24.677 28.813 24.7817 27.8656C24.8564 27.1724 25.1307 26.5092 25.3301 25.836C25.8237 24.1804 26.3721 22.5498 26.9454 20.9241C27.3792 19.6924 27.773 18.4408 28.2616 17.229C28.7701 15.9624 29.2886 14.6958 29.7723 13.4192C29.9019 13.0801 30.1212 12.7659 30.1462 12.382C29.9617 12.352 29.8919 12.4917 29.8072 12.5814C29.2288 13.1898 28.6455 13.7882 28.132 14.4514C27.5038 15.2543 26.8706 16.0571 26.2724 16.8899C25.8137 17.5332 25.3401 18.1665 24.9312 18.8447C24.6371 19.3334 24.2981 19.8121 23.8743 20.211C23.6599 20.4105 23.4854 20.6299 23.3707 20.9241C23.2262 21.2882 22.9121 21.5724 22.6329 21.8417C21.4513 22.9637 20.494 24.2702 19.5418 25.5767C19.3723 25.8061 19.1828 26.0055 18.9435 26.1601C18.5148 26.4444 18.091 26.7286 17.6722 27.0228C17.5675 27.0976 17.4578 27.0926 17.3431 27.1026C16.7 27.1724 16.0618 27.2672 15.4486 27.4816C15.0099 27.6312 14.5811 27.6113 14.1374 27.5015C13.6488 27.3819 13.3248 27.0677 13.2201 26.6189C13.1054 26.1202 12.7863 25.7113 12.7115 25.2027C12.6966 25.1079 12.6716 25.0182 12.6716 24.9184C12.6816 24.0358 12.6816 23.1582 12.6816 22.2755C12.6816 21.7868 12.8062 21.3081 12.8362 20.8294C12.876 20.226 13.0854 19.6525 13.0555 19.0342C13.0406 18.7499 13.1253 18.4308 13.1752 18.1266C13.2998 17.3138 13.3646 16.501 13.4594 15.6831C13.4893 15.4089 13.589 15.1396 13.6488 14.8703C13.8283 14.0326 13.6937 13.1898 13.6638 12.3171C13.5242 12.5017 13.3746 12.6862 13.24 12.8757C12.6218 13.7334 12.1083 14.6609 11.5947 15.5834C10.9416 16.7503 10.3483 17.9471 9.73512 19.1389C9.04711 20.4703 8.40396 21.8267 7.93532 23.2579C7.78076 23.7316 7.51653 24.1505 7.2822 24.5893C7.07281 24.9783 6.99802 25.3872 6.98307 25.826C6.95814 26.4144 6.84347 26.9879 6.68892 27.5664C6.52439 28.1847 6.18038 28.7382 6.1056 29.3865C6.07569 29.6558 5.88623 29.93 5.68681 30.1644C5.32286 30.5983 5.08854 31.087 4.97885 31.6604C4.88413 32.174 4.7545 32.7026 4.31078 33.0617C4.15623 33.1863 4.00168 33.316 3.76237 33.2562C3.7524 33.0667 3.74243 32.8871 3.72747 32.7076C3.54799 32.6827 3.4732 32.7575 3.4383 32.9121C3.39842 33.1066 3.26381 33.2661 3.06937 33.2661C2.33649 33.2611 1.63352 33.5554 0.890661 33.4756C0.790949 33.4656 0.701208 33.4556 0.601496 33.4207C0.0431089 33.2412 0.0131953 33.2013 0.00322407 32.6228C-0.00674713 31.9496 -0.00674714 31.2764 0.207634 30.6232C0.242533 30.5185 0.227576 30.3938 0.222591 30.2791C0.197663 29.586 0.357202 28.9327 0.666309 28.3144C0.721151 28.1997 0.71118 28.085 0.706194 27.9753C0.686252 27.4716 0.75605 27.0029 0.970431 26.5291C1.14493 26.1452 1.21971 25.7163 1.29449 25.2875C1.40916 24.6242 1.62354 23.981 1.86285 23.3476C2.64559 21.2832 3.26381 19.1688 4.02162 17.0944C4.56505 15.5984 5.09851 14.1024 5.6569 12.6163C6.23523 11.0755 6.84846 9.54954 7.5265 8.04855C8.1846 6.58746 8.85765 5.12637 9.67529 3.74008C9.90961 3.34613 10.1589 2.9472 10.453 2.59813C10.6375 2.37872 10.9616 2.28397 11.156 2.06955C11.4402 1.76037 11.7942 1.61077 12.1731 1.4861C12.6866 1.31656 12.891 1.39634 13.2201 1.84015C13.3896 2.06455 13.6588 2.07453 13.8881 2.07952C14.9002 2.08949 15.9023 2.23909 16.9194 2.18424C17.378 2.1593 17.7819 2.30392 18.1658 2.56821C18.4749 2.78264 18.8638 2.86242 19.2277 2.93722C19.6365 3.02698 19.9506 3.22645 20.2448 3.5057C20.6935 3.93456 21.0574 4.41826 21.4014 4.9269C21.5311 5.12138 21.5859 5.32584 21.6058 5.52032C21.6707 6.11872 21.6308 6.72211 21.4463 7.30555C21.3117 7.74437 21.3017 8.22309 21.1322 8.63698C20.8979 9.22541 20.853 9.84874 20.6835 10.4422C20.6237 10.6466 20.5339 10.8411 20.4641 11.0406C20.1849 11.8883 20.0802 12.761 19.9406 13.6336C19.7063 15.0548 19.3872 16.4611 19.0183 17.8523C18.9535 18.1017 18.9984 18.3261 18.9984 18.5754C19.3723 18.2313 19.6764 17.8523 19.9406 17.4434C20.4641 16.6406 20.9976 15.8477 21.5859 15.0897C21.9249 14.6509 22.1144 14.1074 22.4783 13.6785C22.7126 13.3992 22.937 13.115 23.1913 12.8557C23.4206 12.6163 23.625 12.362 23.7796 12.0628C24.0239 11.5891 24.3728 11.2001 24.7318 10.8162C25.1157 10.4072 25.5145 10.0083 25.8386 9.54955C25.8685 9.50965 25.8984 9.46477 25.9333 9.43485C26.6214 8.85141 27.1099 8.09344 27.7182 7.4352C27.9774 7.15096 28.2865 6.89165 28.4212 6.4977C28.466 6.36805 28.6156 6.27829 28.7253 6.17357C29.0394 5.8644 29.2986 5.50536 29.5479 5.14133C29.7623 4.83714 30.0564 4.58781 30.3207 4.3285C30.7245 3.92957 31.1732 3.57552 31.4873 3.0968C31.6568 2.84248 31.8961 2.67293 32.1255 2.49341C32.5891 2.1244 33.0428 1.73543 33.4616 1.31655C33.676 1.10213 33.9452 1.03231 34.2144 0.967488C34.723 0.842821 35.2415 0.768023 35.6254 0.339169C35.745 0.204529 35.9793 0.119756 36.1638 0.114769C36.787 0.0898361 37.4202 0.0200264 38.0384 0.199546C38.0982 0.219493 38.173 0.239437 38.2129 0.284317C38.6716 0.777997 39.2898 1.03731 39.8282 1.42128C40.3866 1.82021 40.8652 2.28896 41.2441 2.85744C41.5931 3.37605 41.5682 3.97445 41.4585 4.53795C41.294 5.35576 41.0447 6.1636 40.5511 6.86672C40.5262 6.90162 40.5312 6.96146 40.5212 7.0213C40.8503 7.09112 41.1344 6.93653 41.4336 6.88168C42.2612 6.74205 43.0489 6.45781 43.8616 6.25335C44.6892 6.04391 45.5317 5.90927 46.3743 5.80455C46.7133 5.75967 47.0523 5.68487 47.3864 5.60509C47.9797 5.46546 48.5829 5.40562 49.1812 5.32584C50.4775 5.14632 51.7837 5.17125 53.0899 5.12138C53.6982 5.09645 54.3114 5.02663 54.9196 5.05655C56.4851 5.13135 58.0356 5.30589 59.5014 5.90429C60.2443 6.20847 60.8026 6.73707 61.2912 7.35541C61.4258 7.52496 61.4657 7.69949 61.4607 7.90395C61.4508 8.25301 61.6701 8.61205 61.386 8.94615C61.366 8.97109 61.4258 9.06085 61.4458 9.12568C61.5904 9.55952 61.5455 10.0083 61.5505 10.4521C61.5555 10.6915 61.5006 10.9259 61.3411 11.0954C61.0768 11.3747 60.8774 11.6938 60.6531 12.003C60.5733 12.1127 60.5185 12.2174 60.339 12.1576C60.1396 12.0927 59.9601 12.2473 59.7706 12.2822C59.7008 12.2972 59.6659 12.3421 59.646 12.4169C59.4914 12.9654 59.0377 13.2846 58.6239 13.5838C57.8013 14.1822 56.874 14.5861 55.8868 14.8603C55.473 14.975 55.1191 15.2942 54.7052 15.4438C54.1469 15.6482 53.7281 16.107 53.1448 16.2367C52.8107 16.3115 52.5166 16.4411 52.2473 16.6406C52.1676 16.6954 52.1077 16.7353 52.0828 16.855C52.028 17.1592 51.8635 17.4384 51.5593 17.5232C51.3649 17.5781 51.3499 17.6728 51.3799 17.7975C51.5095 18.2912 51.4397 18.8048 51.5942 19.3084C51.7438 19.8071 51.7737 20.3357 51.8585 20.8543C51.9432 21.4028 52.033 21.9514 52.1077 22.5049C52.1825 23.0435 52.2473 23.582 52.3171 24.1206C52.4019 24.7539 52.5166 25.3872 52.5664 26.0255C52.5963 26.4194 52.6412 26.8034 52.7708 27.1774C52.8257 27.337 52.7459 27.4916 52.6312 27.5763C52.3022 27.8207 52.2274 28.1548 52.2274 28.5288C52.2274 28.7731 52.1825 28.9527 51.9133 29.0773C51.684 29.182 51.674 29.4763 51.664 29.7256C51.6491 30.1943 51.4995 30.339 51.0259 30.2691C50.622 30.2093 50.2282 30.0946 49.8243 30.0198C49.6149 29.9799 49.4803 29.8652 49.3607 29.6857C49.1214 29.3267 48.9668 28.9178 48.6826 28.5936C48.5381 28.4241 48.6178 28.2146 48.543 28.0251C48.2439 27.2871 48.1492 26.5042 48.0495 25.7163C47.875 24.3799 47.5559 23.0684 47.2518 21.7569C47.167 21.3879 47.0673 21.0189 47.0922 20.6399C47.1022 20.4504 47.0424 20.2808 46.9826 20.1113C46.823 19.6426 46.6535 19.1838 46.494 18.72C46.4291 18.5255 46.3294 18.4607 46.13 18.5555C45.7461 18.74 45.3174 18.6303 44.9135 18.72C44.754 18.7549 44.6593 18.7898 44.739 18.9594C44.8238 19.1289 44.7191 19.1987 44.6044 19.2735C44.2006 19.5229 43.8017 19.7722 43.5275 20.1811C43.4478 20.3058 43.3431 20.4155 43.2932 20.5551C43.019 21.2832 42.6152 21.9514 42.326 22.6744C42.0468 23.3776 41.633 24.0208 41.3887 24.7389C41.3139 24.9583 41.1943 25.1578 41.1245 25.3772C41.0796 25.5119 41.0347 25.5817 40.8901 25.6415C40.6159 25.7512 40.6708 26.0704 40.6409 26.2898C40.596 26.594 40.5362 26.8682 40.3667 27.1226C40.3417 27.1624 40.3367 27.2472 40.3068 27.2572C39.7484 27.4367 39.7734 27.9354 39.6786 28.3742C39.6637 28.444 39.6587 28.5238 39.5789 28.5238C39.1552 28.5188 39.1053 28.8679 39.0056 29.1422C38.8909 29.4613 38.5369 29.6009 38.4622 30.0547C38.3325 29.7755 38.1929 29.7555 37.9935 29.7854C37.6994 29.8253 37.3753 29.7256 37.141 30.0048C37.0762 30.0796 36.9565 30.1096 36.8618 30.0697C36.423 29.9101 35.9743 29.9849 35.5306 29.9949C35.1517 29.9999 34.9772 29.8353 34.9124 29.3516C34.8077 28.5537 35.1118 27.8456 35.3611 27.1176C35.9245 25.4869 36.423 23.8363 36.9316 22.1907C37.121 21.5774 37.3853 20.989 37.6196 20.3955C37.6994 20.1911 37.8639 20.0265 37.6595 19.7722C37.5448 19.6326 37.7243 19.2985 37.9287 19.2187C38.2827 19.084 38.4472 18.8198 38.5918 18.4856C39.2599 16.9298 40.0725 15.4488 40.8752 13.9627C41.2192 13.3245 41.5532 12.6762 41.8274 11.998C41.9969 11.5741 42.2363 11.1702 42.4556 10.7364C42.2014 10.6067 42.0269 10.7314 41.8524 10.8411C41.633 10.9857 41.4236 11.1503 41.1743 11.255C40.7805 11.4245 40.5112 11.4046 40.247 11.0904C40.0077 10.8112 39.6637 10.6815 39.4244 10.4023C39.2997 10.2577 39.0754 10.2277 38.876 10.2078C38.6666 10.1828 38.5419 10.2626 38.4572 10.4671C38.2278 11.0256 37.9486 11.5542 37.5797 12.0479C37.3603 12.3421 37.2058 12.7011 37.0961 13.0751C36.9914 13.4391 36.8369 13.7882 36.6723 14.1273C36.3483 14.8005 36.0242 15.4687 35.6154 16.097C35.5605 16.1818 35.5107 16.2566 35.4808 16.3563C35.3013 16.9797 35.0171 17.5581 34.718 18.1316C34.3341 18.8596 34.0599 19.6276 33.8056 20.4055C33.6311 20.9391 33.4117 21.4577 33.1724 21.9663C33.0129 22.3005 32.9481 22.6495 32.8783 23.0036C32.8434 23.1781 32.8334 23.4075 32.6838 23.5022C32.3498 23.7167 32.3249 24.1156 32.0906 24.3899C31.9609 24.5445 31.8562 24.7888 31.936 25.078C32.0357 25.4321 31.8064 25.7811 31.6967 26.1152C31.607 26.3895 31.5372 26.6389 31.587 26.9281C31.6618 27.3968 31.4574 27.8356 31.3876 28.2894C31.3826 28.3194 31.3676 28.3593 31.3427 28.3742C30.9189 28.6734 30.9887 29.1372 30.9289 29.561C30.8392 30.1943 30.7345 30.8227 30.6497 31.456C30.6198 31.6854 30.6497 31.9197 30.6397 32.1541C30.6348 32.3386 30.6148 32.5231 30.3705 32.3137C30.3257 32.2738 30.2708 32.2738 30.2459 32.3137C30.0265 32.6877 29.9966 32.2788 29.9019 32.2189C29.857 32.189 29.877 32.0643 29.867 31.9846C29.862 31.8998 29.857 31.815 29.7423 31.805C29.6526 31.7951 29.5778 31.835 29.5329 31.9098C29.4831 31.9945 29.4432 32.0893 29.3983 32.174C29.3634 32.2389 29.3036 32.2688 29.2338 32.2588C29.1241 32.2439 29.1291 32.1591 29.1142 32.0743C29.1241 31.9496 29.2388 31.8499 29.0643 31.7302ZM46.2497 15.3141C46.8679 15.1546 47.3266 14.8554 47.8301 14.6459C49.4604 13.9677 51.1106 13.3444 52.711 12.6014C53.0849 12.4268 53.4788 12.3022 53.8527 12.1276C54.8 11.6888 55.6725 11.1154 56.535 10.5369C56.8889 10.2975 57.223 10.0283 57.552 9.74901C57.8761 9.46976 57.8163 9.18053 57.4174 9.04589C57.3725 9.03093 57.3177 9.03093 57.2728 9.02095C56.7892 8.92122 56.3056 8.85141 55.8121 8.82149C55.3284 8.79157 54.8598 8.95114 54.3812 8.92122C53.8976 8.8913 53.4339 9.01597 52.9553 9.0409C52.3022 9.07581 51.6541 9.20047 51.0109 9.31517C50.3329 9.43485 49.6698 9.62434 48.9868 9.71909C48.7774 9.74901 48.6577 9.85872 48.7026 10.138C48.7724 10.5668 48.6926 10.9707 48.4284 11.3597C48.209 11.6838 47.9448 12.0229 47.8351 12.387C47.6406 13.0302 47.2268 13.504 46.843 14.0126C46.5638 14.3866 46.4142 14.8155 46.2497 15.3141ZM30.1212 31.7203C30.216 31.7302 30.2758 31.6754 30.2808 31.6155C30.2957 31.2017 30.2957 30.7878 30.2957 30.3689C30.2957 30.2691 30.2309 30.2193 30.1362 30.2243C30.0116 30.2292 29.9717 30.309 29.9717 30.4237C29.9767 30.8675 29.9218 31.3114 30.1212 31.7203ZM31.1184 26.1103C31.1882 26.0853 31.228 26.0305 31.2081 25.9656C31.1882 25.9058 31.1483 25.8111 31.1184 25.8111C31.0087 25.8111 31.0336 25.9158 31.0336 25.9856C31.0286 26.0454 31.0386 26.1053 31.1184 26.1103ZM30.1611 12.2822C30.1761 12.2972 30.1861 12.3072 30.196 12.3171C30.206 12.2972 30.221 12.2723 30.2259 12.2523C30.2259 12.2423 30.206 12.2324 30.196 12.2174C30.1811 12.2423 30.1711 12.2623 30.1611 12.2822Z" fill="#181B4A"/>
<path d="M158.865 7.51003C159.738 7.67957 160.655 7.32053 161.602 7.17592C162.525 7.03629 163.417 6.74208 164.364 6.72712C164.948 6.71714 165.531 6.57253 166.114 6.48776C166.179 6.47779 166.244 6.45285 166.309 6.45784C166.912 6.52267 167.47 6.24341 168.054 6.20352C168.597 6.16362 169.131 6.07386 169.664 5.97912C170.412 5.84946 171.165 5.79461 171.913 5.7248C172.536 5.66994 173.159 5.58018 173.787 5.60013C174.485 5.62506 175.183 5.6101 175.881 5.60512C176.086 5.60512 176.27 5.63504 176.444 5.75971C176.784 5.99907 176.788 5.99906 176.519 6.30325C176.37 6.4728 176.39 6.70219 176.589 6.83683C176.664 6.88669 176.759 6.96149 176.704 7.00637C176.504 7.16096 176.474 7.27066 176.704 7.42026C176.749 7.45018 176.739 7.62472 176.669 7.63469C176.4 7.67459 176.454 8.03363 176.185 8.08349C176.011 8.11341 175.971 8.35776 175.996 8.44752C176.061 8.67192 175.991 8.82651 175.861 8.98109C175.717 9.14565 175.557 9.31021 175.338 9.33016C174.67 9.38501 174.016 9.54458 173.353 9.63434C172.82 9.70416 172.247 9.72909 171.758 10.0532C171.554 10.1879 171.299 10.2377 171.055 10.2676C170.402 10.3524 170.282 10.4671 170.257 11.0904C170.247 11.3996 170.138 11.649 169.928 11.8883C169.669 12.1825 169.5 12.5515 169.185 12.8059C169.151 12.8358 169.126 12.8906 169.121 12.9355C169.031 13.7733 168.492 14.4066 168.153 15.1346C168.104 15.2443 168.014 15.3241 167.909 15.379C167.814 15.4288 167.76 15.5086 167.72 15.5984C167.291 16.5558 166.807 17.4883 166.428 18.4657C165.93 19.7573 165.381 21.0239 164.883 22.3154C164.624 22.9886 164.424 23.6868 164.115 24.345C163.796 25.0282 163.512 25.7313 163.218 26.4344C163.128 26.6489 163.063 26.8683 162.988 27.0877C162.909 27.3171 162.864 27.5514 162.56 27.6312C162.405 27.6711 162.335 27.8656 162.275 28.0252C162.071 28.5637 161.877 29.1023 161.677 29.6408C161.592 29.8752 161.448 30.0797 161.338 30.3041C161.124 30.7379 160.496 30.9573 159.977 30.8277C159.349 30.6681 158.756 30.8726 158.322 31.3563C158.102 31.6006 157.888 31.8499 157.499 31.7602C157.33 31.7203 157.215 31.6654 157.22 31.4759C157.23 31.2117 157.195 30.9474 157.265 30.6831C157.424 30.0697 157.554 29.4464 157.724 28.838C158.003 27.8307 158.287 26.8284 158.611 25.836C158.98 24.714 159.274 23.5671 159.663 22.4501C160.167 20.999 160.75 19.5778 161.298 18.1466C161.832 16.7503 162.46 15.3939 163.003 14.0027C163.243 13.3943 163.487 12.771 163.801 12.1925C163.856 12.0928 163.916 11.9881 163.946 11.8783C163.98 11.7437 163.856 11.6639 163.781 11.7238C163.522 11.9282 163.238 11.8135 162.978 11.7936C162.31 11.7487 161.797 12.0279 161.348 12.4767C161.303 12.5216 161.248 12.6263 161.228 12.6164C160.79 12.4518 160.481 12.9555 160.042 12.8408C159.872 12.7959 159.683 12.8109 159.533 12.6912C159.508 12.6712 159.483 12.6413 159.454 12.6363C158.556 12.4917 158.342 11.6739 157.908 11.0705C157.823 10.9508 157.744 10.8262 157.634 10.7264C157.519 10.6317 157.404 10.5519 157.375 10.3873C157.35 10.2527 157.24 10.1629 157.105 10.118C156.821 10.0183 156.751 9.76898 156.756 9.51965C156.761 9.24538 156.786 8.93621 156.966 8.72178C157.265 8.35277 157.609 8.02365 157.948 7.68456C158.172 7.46016 158.471 7.50504 158.865 7.51003Z" fill="#181B4A"/>
<path d="M72.3247 34.2486C72.8033 34.0342 73.277 33.8197 73.8453 33.5654C73.8154 33.6003 73.8204 33.73 73.7905 33.6701C73.7855 33.6652 73.7606 33.6552 73.7606 33.6602C73.6309 33.9394 73.3418 33.9843 73.1025 34.0242C72.8582 34.0591 72.7236 34.2386 72.5241 34.3184C72.5142 34.3234 72.5341 34.4082 72.5441 34.4531C72.3596 34.5079 72.3496 34.3733 72.3247 34.2486Z" fill="#181B4A"/>
<path d="M70.2704 28.2595C70.2056 28.2595 70.1607 28.2246 70.1707 28.1698C70.1906 28.0601 70.2106 27.9404 70.3452 27.9105C70.405 27.9005 70.4299 27.9504 70.4299 28.0002C70.4299 28.1199 70.3901 28.2196 70.2704 28.2595Z" fill="#181B4A"/>
<path d="M79.5776 32.6779C79.5626 32.7327 79.5228 32.7577 79.4729 32.7427C79.453 32.7377 79.428 32.6929 79.433 32.6679C79.438 32.6131 79.4829 32.5881 79.5327 32.6031C79.5527 32.6081 79.5626 32.653 79.5776 32.6779Z" fill="#181B4A"/>
<path d="M79.1941 32.0992C79.219 32.1142 79.2589 32.1242 79.2689 32.1441C79.2838 32.194 79.2589 32.2389 79.2041 32.2389C79.1791 32.2389 79.1392 32.2189 79.1293 32.199C79.1143 32.1491 79.1392 32.1142 79.1941 32.0992Z" fill="#181B4A"/>
<path d="M79.4945 31.9996C79.5194 32.0146 79.5593 32.0246 79.5693 32.0445C79.5892 32.0944 79.5593 32.1393 79.5045 32.1442C79.4795 32.1442 79.4347 32.1243 79.4297 32.1044C79.4147 32.0545 79.4397 32.0146 79.4945 31.9996Z" fill="#181B4A"/>
<path d="M79.469 12.5917C79.5089 12.6465 79.4242 12.6216 79.489 12.6116C79.5039 12.6116 79.494 12.5867 79.469 12.6116C79.4641 12.6116 79.469 12.5917 79.469 12.5917Z" fill="#181B4A"/>
<path d="M30.1615 12.2824C30.1715 12.2624 30.1864 12.2375 30.1964 12.2175C30.2064 12.2275 30.2313 12.2425 30.2263 12.2524C30.2213 12.2774 30.2064 12.2973 30.1964 12.3173C30.1864 12.3073 30.1715 12.2973 30.1615 12.2824Z" fill="#181B4A"/>
</svg>
