<svg width="113" height="33" viewBox="0 0 113 33" fill="none" xmlns="http://www.w3.org/2000/svg">
<g clip-path="url(#clip0_35_171)">
<path d="M72.2532 12.691L14.3475 10.8692C13.555 10.8653 12.7963 10.5486 12.2368 9.98816C11.6773 9.42772 11.3624 8.66902 11.3608 7.87759V6.48854C11.3655 5.69914 11.6817 4.94343 12.2409 4.38551C12.8001 3.82759 13.5571 3.5125 14.3475 3.50866L72.2532 1.3125V12.691Z" stroke="#1A1B49" stroke-width="1.17218" stroke-miterlimit="10"/>
<path d="M10.0404 15.4168C11.319 15.4085 12.5727 15.771 13.6491 16.4604C14.7255 17.1497 15.5785 18.1363 16.1044 19.3003L16.2567 19.6308L19.2433 18.2359L19.0911 17.9054C18.1266 15.8435 16.4869 14.1718 14.4426 13.1663C12.3984 12.1608 10.0719 11.8817 7.84737 12.375C5.62284 12.8684 3.63331 14.1047 2.20731 15.8798C0.781317 17.6549 0.00415039 19.8626 0.00415039 22.1384C0.00415039 24.4142 0.781317 26.6219 2.20731 28.397C3.63331 30.1721 5.62284 31.4084 7.84737 31.9017C10.0719 32.3951 12.3984 32.1159 14.4426 31.1104C16.4869 30.1049 18.1266 28.4332 19.0911 26.3713L19.2345 26.0263L16.2479 24.6314L16.1044 24.9647C15.5763 26.126 14.7224 27.1095 13.6462 27.7962C12.5699 28.4828 11.3174 28.8432 10.0404 28.8336C9.15827 28.8336 8.28481 28.6601 7.46987 28.323C6.65492 27.9858 5.91444 27.4917 5.29071 26.8688C4.66698 26.2458 4.1722 25.5063 3.83464 24.6924C3.49708 23.8785 3.32334 23.0062 3.32334 22.1252C3.32334 21.2443 3.49708 20.3719 3.83464 19.558C4.1722 18.7441 4.66698 18.0046 5.29071 17.3817C5.91444 16.7587 6.65492 16.2646 7.46987 15.9275C8.28481 15.5904 9.15827 15.4168 10.0404 15.4168Z" fill="#1A1B49"/>
<path d="M31.7899 19.5516C30.5279 17.8818 28.9467 17.1624 26.8122 17.294C25.5949 17.3558 24.4426 17.8615 23.5737 18.7152V17.5046H20.3997V31.9127H23.5415L23.5737 24.1779C23.5737 22.6777 25.1227 20.3382 27.184 20.3119C28.1708 20.2885 28.8706 20.733 29.4621 21.7741L29.7051 22.1923L31.9744 19.806L31.7899 19.5516Z" fill="#1A1B49"/>
<path d="M51.2568 17.5047H46.4196V20.5226H51.3797C53.4294 20.5226 54.3254 21.0724 54.4513 22.4585H50.9493C48.7122 22.4585 46.9466 23.0638 45.8369 24.2131C45.4086 24.6653 45.0778 25.2004 44.8647 25.7854C44.6517 26.3703 44.561 26.9927 44.5983 27.6141C44.5983 27.7427 44.5983 27.8685 44.6276 27.9942L42.1006 26.3946L41.9162 26.7338C41.5559 27.3921 41.0242 27.941 40.3774 28.3224C39.7306 28.7038 38.9926 28.9036 38.2414 28.9008C37.3013 28.8972 36.3893 28.5802 35.6501 28.0001L45.4182 22.4439L45.2893 22.1514C44.7414 20.9936 43.9575 19.9627 42.9878 19.1248C41.6788 17.9685 39.989 17.3344 38.2414 17.3439C36.9376 17.3446 35.6569 17.6882 34.5282 18.3401C33.3995 18.992 32.4626 19.9293 31.8116 21.0576C31.1607 22.1859 30.8187 23.4655 30.8201 24.7676C30.8214 26.0698 31.1661 27.3487 31.8194 28.4756C32.4726 29.6026 33.4115 30.5379 34.5416 31.1874C35.6716 31.837 36.953 32.1779 38.2569 32.176C39.5607 32.174 40.8411 31.8292 41.9692 31.1762C43.0973 30.5233 44.0333 29.5852 44.6832 28.4563C44.8493 29.3497 45.3039 30.1642 45.9774 30.7752C46.9876 31.6847 48.4868 32.1672 50.2524 32.1672C50.4945 32.1672 50.7404 32.1584 50.9903 32.1409C52.8145 32.021 53.7895 31.4098 54.4776 30.7694V31.9391H57.6224V23.3943C57.64 19.2651 55.7309 17.5047 51.2568 17.5047ZM34.0718 24.7219C34.0734 23.6164 34.5138 22.5566 35.2965 21.7749C36.0792 20.9932 37.1404 20.5534 38.2473 20.5518C39.2256 20.5546 40.1729 20.8944 40.9294 21.5139L34.1275 25.3828C34.0893 25.1646 34.0707 24.9434 34.0718 24.7219ZM47.8982 27.269C47.9246 26.0993 49.0402 25.4471 50.9552 25.4471H54.4952V26.6169C54.2258 27.0175 52.9492 28.7575 51.0781 29.0265C49.9245 29.2166 48.9494 29.0499 48.3989 28.5674C48.2208 28.4042 48.083 28.2021 47.9961 27.9768C47.9093 27.7516 47.8758 27.5093 47.8982 27.269Z" fill="#1A1B49"/>
<path d="M66.7429 28.9244H65.3842C63.5278 28.9244 62.9334 28.3132 62.9334 26.4153V20.5228H66.7399V17.5049H62.9012V14.873H59.7594V17.5049H57.4901V20.5228H59.7594V26.4153C59.7594 30.0619 61.6919 31.913 65.5043 31.913H66.7429V28.9244Z" fill="#1A1B49"/>
<path d="M73.7381 17.3233C72.2693 17.3262 70.8344 17.764 69.6148 18.5814C68.3953 19.3989 67.4458 20.5591 66.8865 21.9155C66.3273 23.2719 66.1833 24.7635 66.4729 26.2016C66.7625 27.6396 67.4726 28.9597 68.5135 29.9946C69.5543 31.0296 70.8791 31.7331 72.3203 32.0161C73.7614 32.2991 75.2543 32.1489 76.61 31.5844C77.9657 31.02 79.1233 30.0667 79.9365 28.8452C80.7497 27.6236 81.1818 26.1887 81.1784 24.7218C81.1772 23.7478 80.9837 22.7836 80.609 21.8844C80.2343 20.9852 79.6857 20.1686 78.9946 19.4814C78.3036 18.7942 77.4836 18.2499 76.5816 17.8796C75.6796 17.5092 74.7133 17.3202 73.7381 17.3233ZM73.7381 28.8919C72.9124 28.8913 72.1054 28.6462 71.4192 28.1877C70.7329 27.7291 70.1982 27.0776 69.8826 26.3156C69.567 25.5536 69.4847 24.7152 69.6462 23.9065C69.8076 23.0977 70.2055 22.355 70.7896 21.7721C71.3736 21.1892 72.1176 20.7923 72.9275 20.6316C73.7374 20.471 74.5768 20.5537 75.3396 20.8694C76.1024 21.1851 76.7543 21.7196 77.213 22.4053C77.6717 23.091 77.9165 23.8972 77.9165 24.7218C77.9157 25.828 77.4751 26.8887 76.6916 27.6707C75.9081 28.4526 74.8458 28.8919 73.7381 28.8919Z" fill="#1A1B49"/>
<path d="M89.0754 20.3119C90.0621 20.2885 90.7619 20.733 91.3534 21.774L91.5965 22.1922L93.8657 19.806L93.6813 19.5632C92.4192 17.8934 90.841 17.177 88.7035 17.3057C87.4878 17.3643 86.3357 17.8657 85.4651 18.7152V17.5045H82.2793V31.9126H85.4211L85.4533 24.1778C85.465 22.6776 87.014 20.3382 89.0754 20.3119Z" fill="#1A1B49"/>
<path d="M100.548 23.0138C98.8498 22.5781 97.3829 22.2038 97.3917 21.3703C97.3917 20.9492 97.6288 20.5223 99.3886 20.5223H106.073V17.5044H98.5717C97.052 17.5044 95.8837 17.9196 95.099 18.7385C94.7674 19.0978 94.5106 19.5194 94.3437 19.9788C94.1769 20.4382 94.1031 20.9261 94.1268 21.4142C94.285 24.8941 97.5849 25.6866 100.241 26.3183C101.998 26.7394 103.505 27.102 103.505 28.0729C103.505 28.2834 103.505 28.9209 101.476 28.9209H89.4712V31.9096H102.305C103.816 31.9096 104.978 31.506 105.754 30.7135C106.089 30.3551 106.35 29.9337 106.521 29.4739C106.692 29.0141 106.77 28.5249 106.75 28.0349C106.662 24.5637 103.271 23.7098 100.548 23.0138Z" fill="#1A1B49"/>
<path d="M72.8486 7.67633H81.0619V14.1946H82.9095V0H81.0619V5.94513H72.8486V0H71.0244V14.1946H72.8486V7.67633Z" fill="#1A1B49"/>
<path d="M89.2249 14.376C90.5055 14.3183 91.7216 13.7988 92.6479 12.9138V14.2151H94.4955V11.2323C95.8658 9.61519 97.5056 7.72316 98.261 6.97161C99.4 5.83113 100.358 5.64982 101.043 5.64982C101.72 5.64982 102.382 5.85039 102.945 6.22615C103.508 6.60191 103.946 7.13599 104.205 7.76081C104.464 8.38563 104.532 9.07313 104.4 9.73634C104.267 10.3996 103.941 11.0087 103.462 11.4866C102.983 11.9646 102.373 12.29 101.709 12.4215C101.044 12.5531 100.356 12.485 99.7308 12.2258C99.1053 11.9666 98.571 11.528 98.1952 10.9654C97.8194 10.4029 97.6192 9.74167 97.6198 9.06542C97.6186 8.83547 97.6422 8.60606 97.69 8.38113L95.7721 10.6592V14.2181H97.6198V12.9401C98.5515 13.813 99.7663 14.3226 101.043 14.376C101.742 14.3818 102.436 14.2484 103.084 13.9836C103.732 13.7188 104.32 13.3278 104.815 12.8334C105.309 12.3391 105.701 11.7513 105.965 11.1044C106.23 10.4574 106.363 9.7643 106.357 9.06542C106.363 8.36569 106.23 7.67177 105.965 7.02389C105.7 6.376 105.309 5.78705 104.815 5.29116C104.321 4.79527 103.733 4.40232 103.085 4.13509C102.438 3.86786 101.743 3.73166 101.043 3.73439C99.7591 3.7785 98.5383 4.29998 97.6198 5.19655V0.0234375H95.7721V7.06227C95.5906 7.29036 93.9948 9.22626 92.9436 10.3433C91.2805 12.0979 90.4811 12.598 89.2044 12.6448C86.944 12.712 86.1007 10.937 86.1007 9.04495V3.89523H84.2765V9.04495C84.2765 11.9897 85.8723 14.49 89.2249 14.376Z" fill="#1A1B49"/>
<path d="M94.4957 3.89502H92.6481V9.77289L94.4957 7.76974V3.89502Z" fill="#1A1B49"/>
<path d="M108.421 18.084L108.02 17.2535C107.516 16.3337 106.748 15.5852 105.815 15.1041L104.975 14.7239L105.537 14.3906C106.582 13.7035 107.444 12.7719 108.047 11.6768L108.295 11.1738L108.793 12.0014C109.329 12.8109 110.019 13.5066 110.825 14.0484L111.768 14.6333L110.995 15.0193C110.233 15.4449 109.592 16.0579 109.133 16.8002L108.421 18.084Z" fill="#1A1B49"/>
<path d="M108.398 18.8936L107.681 17.4109C107.217 16.568 106.514 15.881 105.66 15.437L104.167 14.7615L105.338 14.0626C106.318 13.4131 107.129 12.5387 107.701 11.5126L108.255 10.3955L109.107 11.8109C109.61 12.573 110.259 13.2288 111.016 13.7409L112.527 14.6796L111.153 15.3639C110.458 15.7556 109.872 16.3157 109.449 16.9928L108.398 18.8936ZM105.783 14.6709L105.971 14.7557C106.985 15.276 107.817 16.0918 108.357 17.0951L108.445 17.2793L108.805 16.636C109.301 15.8283 109.998 15.1624 110.828 14.703L111.004 14.6182L110.629 14.3843C109.77 13.8107 109.037 13.0685 108.474 12.2027L108.325 11.96C107.696 13.0454 106.826 13.9726 105.783 14.6709Z" fill="#1A1B49"/>
<path d="M8.3422 13.7151L7.77708 12.5454C7.23539 11.4283 5.63958 9.96029 4.50641 9.44853L3.51379 8.98941L4.86364 8.18815C5.91482 7.56527 7.2676 5.82823 7.81222 4.73161L8.16066 4.02393L8.87804 5.21412C9.64708 6.32485 10.6066 7.29108 11.7124 8.06825L13.0359 8.88999L11.9525 9.43099C11.0009 9.90765 9.66277 11.3376 9.14742 12.2822L8.3422 13.7151Z" fill="#1A1B49"/>
<path d="M8.31857 14.5276L7.44015 12.7058C6.95701 11.7027 5.45783 10.2844 4.35395 9.78144L2.69373 9.03282L4.67311 7.86309C5.61888 7.2987 6.93359 5.65523 7.47528 4.55861L8.12825 3.23975L9.197 5.01481C9.93549 6.07889 10.8552 7.00532 11.9143 7.75197L13.8058 8.92169L12.1222 9.7639C11.2437 10.2055 9.95244 11.5945 9.48688 12.4513L8.31857 14.5276ZM4.31003 8.94509L4.6614 9.103C5.91462 9.67032 7.5602 11.2319 8.11361 12.3812L8.36542 12.9046L8.8222 12.0858C9.36975 11.112 10.7577 9.60891 11.7883 9.09715L12.2744 8.85443L11.519 8.38362C10.3597 7.57301 9.35596 6.56066 8.55575 5.39497L8.19852 4.79256L8.15167 4.88614C7.56605 6.07926 6.14886 7.85724 5.05962 8.50059L4.31003 8.94509Z" fill="#1A1B49"/>
<path d="M26.0301 7.34877C25.8613 7.14403 25.6752 6.95422 25.4738 6.78145C25.3186 6.63816 25.0843 6.42176 24.9526 6.27847L25.9598 4.77245C25.9947 4.71959 26.0146 4.6583 26.0174 4.59507C26.0202 4.53184 26.0059 4.46902 25.9759 4.41327C25.9458 4.35752 25.9013 4.31092 25.8469 4.2784C25.7926 4.24587 25.7304 4.22864 25.667 4.22853C25.6053 4.22803 25.5446 4.2442 25.4913 4.27532L22.6277 5.9334C22.5879 5.95578 22.5532 5.98598 22.5255 6.02217C22.4978 6.05836 22.4778 6.0998 22.4666 6.14395C22.4398 6.22735 22.4371 6.31661 22.4589 6.40145C22.4806 6.4863 22.526 6.56328 22.5896 6.62354C22.7584 6.83008 22.9456 7.02094 23.1489 7.19378C23.3041 7.34 23.5383 7.5564 23.6701 7.69969L22.6628 9.19986C22.628 9.25272 22.6081 9.31402 22.6052 9.37725C22.6024 9.44048 22.6168 9.50329 22.6468 9.55904C22.6768 9.61479 22.7213 9.66139 22.7757 9.69392C22.8301 9.72644 22.8922 9.74367 22.9556 9.74379C23.0176 9.74354 23.0784 9.72635 23.1313 9.69407L25.995 8.03891C26.0741 7.99244 26.1319 7.91686 26.156 7.82836C26.1828 7.74473 26.1852 7.65521 26.1629 7.57027C26.1406 7.48533 26.0945 7.4085 26.0301 7.34877Z" fill="#F3FF00"/>
<path d="M32.8392 4.79001C32.8072 4.75727 32.7689 4.73133 32.7267 4.71374C32.6844 4.69615 32.639 4.68728 32.5932 4.68766C32.5699 4.68484 32.5463 4.68484 32.5229 4.68766L31.3517 4.92453C31.2846 4.93663 31.2225 4.96815 31.1731 5.01518L30.0019 6.16444H29.9696H29.8174H29.6241C29.4476 6.1538 29.2728 6.20442 29.1293 6.30773C28.8874 6.55737 28.6751 6.83409 28.4968 7.13239C28.4601 7.18505 28.4386 7.24682 28.4349 7.31089C28.4311 7.37496 28.4451 7.43882 28.4755 7.49541C28.5058 7.55201 28.5511 7.59913 28.6066 7.63157C28.662 7.66401 28.7254 7.68051 28.7896 7.67924H29.1351L28.1572 8.70275C28.0998 8.76661 28.068 8.8494 28.068 8.93523C28.068 9.02105 28.0998 9.10385 28.1572 9.16771C28.1895 9.207 28.2302 9.23864 28.2763 9.26038C28.3224 9.28212 28.3727 9.29342 28.4236 9.29346C28.4925 9.29436 28.56 9.27393 28.6169 9.23497L29.9579 8.35768C29.9326 8.52579 29.8954 8.69191 29.8467 8.85481C29.8259 8.92341 29.8268 8.99675 29.8494 9.06479C29.8719 9.13283 29.9149 9.19227 29.9726 9.23497C30.0323 9.2805 30.1053 9.30516 30.1805 9.30515C30.2481 9.30613 30.3144 9.28677 30.3708 9.24959C31.4103 8.57408 31.4454 8.3723 31.4688 8.26117C31.4849 8.13399 31.4849 8.00528 31.4688 7.87809C31.4688 7.82545 31.4688 7.74649 31.4688 7.69386L32.5991 6.5446C32.6463 6.49616 32.6788 6.43531 32.6928 6.36914L32.9475 5.12631C32.9611 5.0657 32.9583 5.00255 32.9392 4.94341C32.9202 4.88427 32.8856 4.83131 32.8392 4.79001Z" fill="#00FFB6"/>
<path d="M17.1885 4.5791H16.1812C16.0049 4.6143 15.843 4.70085 15.7158 4.82783C15.5887 4.95481 15.502 5.11654 15.4668 5.29263V6.30152C15.4668 6.39331 15.5031 6.48139 15.5678 6.54656C15.6325 6.61174 15.7204 6.64875 15.8123 6.64952H16.2837C16.3761 6.64952 16.4648 6.61285 16.5301 6.54759C16.5955 6.48233 16.6322 6.39382 16.6322 6.30152V5.74883H17.1885C17.2343 5.74883 17.2796 5.73983 17.3219 5.72234C17.3641 5.70485 17.4025 5.67922 17.4349 5.6469C17.4673 5.61459 17.4929 5.57623 17.5104 5.53401C17.5279 5.49179 17.537 5.44653 17.537 5.40083V4.9271C17.537 4.8814 17.5279 4.83614 17.5104 4.79392C17.4929 4.7517 17.4673 4.71334 17.4349 4.68103C17.4025 4.64871 17.3641 4.62308 17.3219 4.60559C17.2796 4.5881 17.2343 4.5791 17.1885 4.5791Z" fill="#FF001F"/>
<path d="M19.5724 4.57959H18.5622C18.5164 4.57959 18.4711 4.58859 18.4288 4.60608C18.3866 4.62357 18.3482 4.6492 18.3158 4.68151C18.2834 4.71383 18.2578 4.75219 18.2403 4.79441C18.2228 4.83663 18.2137 4.88188 18.2137 4.92758V5.40132C18.2145 5.49338 18.2515 5.58145 18.3166 5.64655C18.3818 5.71164 18.47 5.74855 18.5622 5.74932H19.1156V6.30201C19.1164 6.39407 19.1533 6.48214 19.2185 6.54724C19.2837 6.61233 19.3719 6.64924 19.464 6.65001H19.9384C20.0308 6.65001 20.1194 6.61334 20.1848 6.54808C20.2501 6.48282 20.2868 6.39431 20.2868 6.30201V5.29312C20.2512 5.11719 20.1644 4.95565 20.0374 4.82874C19.9103 4.70182 19.7485 4.61515 19.5724 4.57959Z" fill="#FF001F"/>
<path d="M17.1873 8.22637H16.6339V7.67368C16.6339 7.58138 16.5972 7.49287 16.5318 7.42761C16.4665 7.36235 16.3778 7.32568 16.2854 7.32568H15.8111C15.7187 7.32568 15.63 7.36235 15.5647 7.42761C15.4994 7.49287 15.4626 7.58138 15.4626 7.67368V8.67964C15.4979 8.85574 15.5846 9.01747 15.7117 9.14445C15.8388 9.27143 16.0008 9.35797 16.1771 9.39318H17.1873C17.2797 9.39318 17.3683 9.35651 17.4337 9.29125C17.499 9.22599 17.5357 9.13748 17.5357 9.04518V8.57437C17.5357 8.52867 17.5267 8.48342 17.5092 8.4412C17.4917 8.39898 17.466 8.36061 17.4337 8.3283C17.4013 8.29598 17.3629 8.27035 17.3206 8.25286C17.2784 8.23537 17.233 8.22637 17.1873 8.22637Z" fill="#FF001F"/>
<path d="M19.9384 7.32568H19.464C19.3716 7.32568 19.283 7.36235 19.2176 7.42761C19.1523 7.49287 19.1156 7.58138 19.1156 7.67368V8.22637H18.5622C18.4698 8.22637 18.3811 8.26304 18.3158 8.3283C18.2505 8.39356 18.2137 8.48207 18.2137 8.57437V9.04518C18.2137 9.13748 18.2505 9.22599 18.3158 9.29125C18.3811 9.35651 18.4698 9.39318 18.5622 9.39318H19.5724C19.7485 9.35761 19.9103 9.27095 20.0374 9.14403C20.1644 9.01711 20.2512 8.85558 20.2868 8.67964V7.67368C20.2868 7.58138 20.2501 7.49287 20.1848 7.42761C20.1194 7.36235 20.0308 7.32568 19.9384 7.32568Z" fill="#FF001F"/>
<path d="M17.6921 6.09709C19.1035 5.87484 19.1562 8.03884 17.7302 7.88092C16.7376 7.77272 16.72 6.24916 17.6921 6.09709Z" fill="#FF001F" stroke="#FF001F" stroke-width="0.660124"/>
</g>
<defs>
<clipPath id="clip0_35_171">
<rect width="112.535" height="32.1529" fill="white"/>
</clipPath>
</defs>
</svg>
