<svg width="38" height="30" viewBox="0 0 38 30" fill="none" xmlns="http://www.w3.org/2000/svg">
<path d="M33.5123 6.469C33.4515 6.52645 33.3875 6.58253 33.3177 6.63263L20.8961 15.5507C19.5299 16.5315 17.7059 16.5315 16.3398 15.5507L3.91813 6.63263C3.84834 6.58253 3.78429 6.52645 3.72358 6.469V23.5833C3.7239 25.0184 4.82894 26.0651 6.05082 26.0651H31.185C32.4069 26.0651 33.5119 25.0184 33.5123 23.5833V6.469ZM18.5106 12.5253C18.5494 12.5531 18.5865 12.5635 18.6179 12.5635C18.6493 12.5635 18.6864 12.5531 18.7252 12.5253L30.985 3.72358H6.25082L18.5106 12.5253ZM37.2358 23.5833C37.2355 26.9461 34.5898 29.7887 31.185 29.7887H6.05082C2.64601 29.7887 0.000318462 26.9461 0 23.5833V6.20537C0.000318229 2.84257 2.64601 0 6.05082 0H31.185C34.5898 0 37.2355 2.84257 37.2358 6.20537V23.5833Z" fill="white"/>
</svg>
