<svg width="637" height="286" viewBox="0 0 637 286" fill="none" xmlns="http://www.w3.org/2000/svg">
<path d="M992.917 451.977L996.973 470.556C922.482 485.844 886.604 557.964 841.692 624.614C799.314 687.514 711.931 720.992 633.391 703.449C573.697 690.155 499.675 689.907 410.333 728.686C270.464 789.401 187.561 739.721 187.561 739.721L181.145 710.34C181.145 710.34 263.688 752.662 399.671 697.762C485.473 663.119 557.793 663.819 616.691 679.596C699.335 701.738 781.4 661.437 826.911 598.592C843.728 575.31 858.746 551.205 878.272 532.319C917.378 494.468 948.942 461.002 992.917 451.977Z" fill="url(#paint0_linear_46_490)"/>
<path d="M771.864 305.262L775.919 323.841C701.429 339.129 665.548 411.242 620.638 477.899C578.253 540.77 490.877 574.277 412.319 556.753C352.616 543.416 278.614 543.194 189.258 581.975C49.3887 642.691 -33.5151 593.004 -33.5151 593.004L-39.9296 563.63C-39.9296 563.63 42.6114 605.945 178.595 551.045C264.398 516.408 336.718 517.109 395.615 532.879C478.259 555.021 560.325 514.727 605.836 451.882C622.653 428.6 637.671 404.495 657.197 385.609C696.326 347.759 727.881 314.288 771.864 305.262Z" fill="url(#paint1_linear_46_490)"/>
<path d="M763.709 267.922L767.793 286.62C728.21 294.747 698.575 327.332 647.786 362.672C625.107 378.455 608.926 402.607 591.035 425.811C542.466 488.599 465.66 535.88 378.913 508.952C320.803 490.911 250.145 489.535 167.94 520.023C35.7786 569.094 -46.3659 534.133 -46.3659 534.133L-52.8005 504.644C-52.8005 504.644 28.8357 532.157 157.244 488.959C235.809 462.532 304.789 464.743 362.148 484.921C452.946 516.819 524.537 462.369 576.193 399.631C595.149 376.501 613.101 352.558 638.351 339.629C701.95 307.142 728.498 275.156 763.709 267.922Z" fill="url(#paint2_linear_46_490)"/>
<path d="M755.521 230.41L759.617 249.188C728.832 255.509 705.997 287.596 628.948 316.66C601.427 327.043 581.426 350.463 561.402 373.507C506.645 436.227 440.224 497.977 345.435 460.952C288.742 438.808 221.475 435.536 146.57 457.919C21.856 495.191 -59.2263 475.16 -59.2263 475.16L-65.6812 445.586C-65.6812 445.586 14.7948 458.073 135.868 426.796C207.067 408.453 272.614 412.877 328.68 436.897C427.364 479.212 488.719 409.974 546.556 347.276C567.643 324.298 589.781 301.679 619.493 293.57C710.257 268.851 729.129 235.833 755.521 230.41Z" fill="url(#paint3_linear_46_490)"/>
<path d="M747.303 192.771L751.412 211.605C729.428 216.135 714.442 250.818 610.074 270.501C578.097 276.533 553.877 298.173 531.734 321.054C470.78 383.701 414.401 460.547 311.939 412.808C256.425 386.946 192.624 381.192 125.188 395.668C7.68691 420.885 -72.1201 416.016 -72.1201 416.016L-78.5886 386.386C-78.5886 386.386 0.5071 383.459 114.473 364.489C178.15 353.894 240.174 361.097 295.175 388.717C401.327 442.013 452.87 357.422 516.914 294.809C540.144 272.003 566.328 251.497 600.647 247.403C718.463 233.347 729.714 196.41 747.303 192.771Z" fill="url(#paint4_linear_46_490)"/>
<path d="M740.436 161.325L743.379 174.803C730.181 177.508 722.333 217.181 591.365 225.122C554.583 227.344 526.542 246.653 502.238 269.381C435.093 331.946 388.285 424.39 278.575 365.437C224.033 336.11 163.812 327.287 103.936 334.148C-6.52424 346.715 -84.8942 357.59 -84.8942 357.59L-90.1845 333.335C-90.1845 333.335 -12.5351 314.347 94.3869 308.326C150.486 305.178 208.838 315.689 262.988 346.685C376.121 411.453 418.329 311.006 488.57 248.496C513.923 225.808 543.751 207.771 583.09 207.355C726.939 205.826 731.631 163.103 740.436 161.325Z" fill="url(#paint5_linear_46_490)"/>
<path d="M735.143 137.094L737.708 148.841C733.317 149.745 731.506 195.652 575.025 190.583C533.036 189.216 501.548 205.979 475.097 228.55C401.778 291.044 364.036 399.564 247.597 328.909C193.811 296.28 137.453 283.887 85.0604 283.495C-18.2465 282.699 -95.2696 310.062 -95.2696 310.062L-100.194 287.519C-100.194 287.519 69.6944 207.661 232.359 311.895C395.025 416.128 398.25 162.74 567.136 174.544C736.021 186.349 735.143 137.094 735.143 137.094Z" fill="url(#paint6_linear_46_490)"/>
<path d="M726.768 98.7386L730.704 116.756C730.704 116.756 721.714 160.339 559.486 155.515C543.813 154.954 528.154 157.029 513.165 161.653C441.915 183.898 404.88 236.303 359.247 278.192C321.686 312.634 290.321 334.429 224.751 297.991C212.907 291.405 200.464 285.724 187.744 280.229C36.8567 214.998 -94.2354 260.886 -105.918 261.427L-111.107 237.656C-87.8163 236.546 28.8446 212.972 179.211 270.856C192.813 276.101 205.757 280.848 217.597 286.42C282.824 317.064 305.861 289.93 345.833 254.812C394.259 212.186 432.211 174.26 506.262 147.14C521.042 141.757 536.633 138.934 552.361 138.793C707.653 136.913 726.768 98.7386 726.768 98.7386Z" fill="url(#paint7_linear_46_490)"/>
<path d="M718.548 61.0928L722.72 80.1883C722.72 80.1883 693.372 113.227 545.11 121.549C529.327 122.428 513.808 125.996 499.226 132.099C422.32 164.249 383.444 187.51 332.235 230.917C289.921 266.717 275.153 299.19 210.38 274.304C198.532 269.757 185.129 265.904 170.615 260.944C21.2109 209.967 -81.428 211.735 -116.388 213.348L-121.808 188.52C-75.1946 186.372 13.7509 206.001 161.88 250.514C177.334 255.151 191.167 258.147 203.018 261.677C267.331 280.813 273.859 242.965 318.56 206.48C372.55 162.317 412.39 153.829 492.082 116.516C506.472 109.718 521.91 105.399 537.739 103.743C678.822 89.3209 718.548 61.0928 718.548 61.0928Z" fill="url(#paint8_linear_46_490)"/>
<path d="M709.866 21.3033L714.297 41.4489C714.297 41.4489 664.128 65.1886 530.284 85.3986C514.424 87.8746 499.078 92.9351 484.858 100.378C402.409 142.974 361.537 136.569 304.762 181.468C257.68 218.629 259.333 261.89 195.541 248.474C183.659 245.973 169.434 243.804 152.994 239.515C6.40949 201.127 -69.0823 160.441 -127.353 163.11L-133.01 137.204C-63.0974 133.981 -0.876066 195.395 144.04 227.988C161.437 231.897 176.035 233.283 187.937 234.749C251.191 242.523 241.376 193.808 290.851 155.954C350.422 110.301 392.38 131.704 477.446 83.7399C491.519 75.6799 506.773 69.8797 522.649 66.5522C649.239 40.9013 709.866 21.3033 709.866 21.3033Z" fill="url(#paint9_linear_46_490)"/>
<path d="M700.771 -20.3581L705.367 0.688733C705.367 0.688733 634.347 16.4731 514.949 47.2508C499.079 51.4618 483.921 57.9982 469.969 66.6469C382.316 120.07 339.197 83.5739 276.838 129.986C224.991 168.521 242.93 222.752 180.242 220.575C168.322 220.159 153.368 219.508 135.009 216.008C-8.12903 188.864 -57.198 107.07 -138.765 110.829L-144.617 84.0442C-51.3898 79.7491 -15.4651 181.644 125.804 203.623C141.227 206.074 156.871 206.865 172.467 205.98C234.561 202.625 208.504 142.811 262.729 103.585C327.878 56.4219 372.277 108.071 462.407 49.1042C476.268 39.9045 491.322 32.6391 507.151 27.5101C619.47 -8.07822 700.771 -20.3581 700.771 -20.3581Z" fill="url(#paint10_linear_46_490)"/>
<path d="M691.356 -63.4803L696.098 -41.7595C696.098 -41.7595 604.752 -32.7425 499.281 7.40616C483.52 13.4872 468.567 21.4815 454.76 31.2086C362.261 95.7313 316.478 28.9082 248.542 76.8301C191.936 116.732 226.175 182.182 164.602 191.041C152.613 192.769 136.977 193.386 116.566 190.879C-22.8622 173.797 -45.6645 52.052 -150.525 56.8771L-156.521 29.4027C-39.994 24.0321 -30.3667 165.408 107.258 177.78C128.669 179.718 144.672 178.505 156.674 175.744C217.771 161.475 175.314 90.3372 234.3 49.7523C305.023 1.06458 352.291 83.1785 447.053 12.9989C460.845 2.76662 475.698 -5.95671 491.356 -13.0207C590.216 -57.5249 691.356 -63.4803 691.356 -63.4803Z" fill="url(#paint11_linear_46_490)"/>
<path d="M771.864 305.262L775.919 323.841C701.429 339.129 665.548 411.242 620.638 477.899C578.253 540.77 490.877 574.277 412.319 556.753C352.616 543.416 278.614 543.194 189.258 581.975C49.3887 642.691 -33.5151 593.004 -33.5151 593.004L-39.9296 563.63C-39.9296 563.63 42.6114 605.945 178.595 551.045C264.398 516.408 336.718 517.109 395.615 532.879C478.259 555.021 560.325 514.727 605.836 451.882C622.653 428.6 637.671 404.495 657.197 385.609C696.326 347.759 727.881 314.288 771.864 305.262Z" fill="url(#paint12_linear_46_490)"/>
<defs>
<linearGradient id="paint0_linear_46_490" x1="407.594" y1="222.065" x2="356.365" y2="8.62724" gradientUnits="userSpaceOnUse">
<stop stop-opacity="0.05"/>
<stop offset="1" stop-opacity="0"/>
</linearGradient>
<linearGradient id="paint1_linear_46_490" x1="407.594" y1="222.065" x2="356.365" y2="8.62724" gradientUnits="userSpaceOnUse">
<stop stop-opacity="0.05"/>
<stop offset="1" stop-opacity="0"/>
</linearGradient>
<linearGradient id="paint2_linear_46_490" x1="407.594" y1="222.065" x2="356.365" y2="8.62724" gradientUnits="userSpaceOnUse">
<stop stop-opacity="0.05"/>
<stop offset="1" stop-opacity="0"/>
</linearGradient>
<linearGradient id="paint3_linear_46_490" x1="407.594" y1="222.065" x2="356.365" y2="8.62724" gradientUnits="userSpaceOnUse">
<stop stop-opacity="0.05"/>
<stop offset="1" stop-opacity="0"/>
</linearGradient>
<linearGradient id="paint4_linear_46_490" x1="407.594" y1="222.065" x2="356.365" y2="8.62724" gradientUnits="userSpaceOnUse">
<stop stop-opacity="0.05"/>
<stop offset="1" stop-opacity="0"/>
</linearGradient>
<linearGradient id="paint5_linear_46_490" x1="407.594" y1="222.065" x2="356.365" y2="8.62724" gradientUnits="userSpaceOnUse">
<stop stop-opacity="0.05"/>
<stop offset="1" stop-opacity="0"/>
</linearGradient>
<linearGradient id="paint6_linear_46_490" x1="407.594" y1="222.065" x2="356.365" y2="8.62724" gradientUnits="userSpaceOnUse">
<stop stop-opacity="0.05"/>
<stop offset="1" stop-opacity="0"/>
</linearGradient>
<linearGradient id="paint7_linear_46_490" x1="407.594" y1="222.065" x2="356.365" y2="8.62724" gradientUnits="userSpaceOnUse">
<stop stop-opacity="0.05"/>
<stop offset="1" stop-opacity="0"/>
</linearGradient>
<linearGradient id="paint8_linear_46_490" x1="407.594" y1="222.065" x2="356.365" y2="8.62724" gradientUnits="userSpaceOnUse">
<stop stop-opacity="0.05"/>
<stop offset="1" stop-opacity="0"/>
</linearGradient>
<linearGradient id="paint9_linear_46_490" x1="407.594" y1="222.065" x2="356.365" y2="8.62724" gradientUnits="userSpaceOnUse">
<stop stop-opacity="0.05"/>
<stop offset="1" stop-opacity="0"/>
</linearGradient>
<linearGradient id="paint10_linear_46_490" x1="407.594" y1="222.065" x2="356.365" y2="8.62724" gradientUnits="userSpaceOnUse">
<stop stop-opacity="0.05"/>
<stop offset="1" stop-opacity="0"/>
</linearGradient>
<linearGradient id="paint11_linear_46_490" x1="407.594" y1="222.065" x2="356.365" y2="8.62724" gradientUnits="userSpaceOnUse">
<stop stop-opacity="0.05"/>
<stop offset="1" stop-opacity="0"/>
</linearGradient>
<linearGradient id="paint12_linear_46_490" x1="407.594" y1="222.065" x2="356.365" y2="8.62724" gradientUnits="userSpaceOnUse">
<stop stop-opacity="0.05"/>
<stop offset="1" stop-opacity="0"/>
</linearGradient>
</defs>
</svg>
