<svg width="157" height="207" viewBox="0 0 157 207" fill="none" xmlns="http://www.w3.org/2000/svg">
<path d="M0 41.5261C0 37.566 0.777985 34.2429 2.38928 31.7945C3.96073 29.4067 6.30215 27.8862 9.38397 27.4154L9.68516 27.373C15.1373 26.6258 20.7587 26.9143 26.202 27.0848L26.2011 27.0866C26.5456 27.0921 26.8549 27.2979 27.0788 27.4928C27.3262 27.708 27.5671 27.994 27.7779 28.3013C28.1882 28.8994 28.5561 29.6827 28.5922 30.3219L28.6309 31.0338C28.7104 32.6957 28.7211 34.365 28.7211 36.0308C28.7211 37.9387 28.7069 39.8388 28.7635 41.7398V41.7444C28.819 44.4129 29.4971 46.3589 30.7484 47.6393C31.9963 48.9161 33.89 49.6074 36.542 49.6074C64.817 49.6644 93.0359 49.6644 121.311 49.6074C123.722 49.6074 125.553 48.9092 126.801 47.6513C128.053 46.3906 128.78 44.5079 128.863 42.0234V42.0179C129.033 38.2141 128.976 34.4649 128.919 30.6424C128.89 29.4571 129.107 28.4752 129.747 27.8068C130.392 27.1338 131.363 26.8853 132.583 26.9144H132.585C132.586 26.9144 132.588 26.9135 132.589 26.9135L132.588 26.9144C136.394 26.9713 140.134 26.9135 143.955 26.9135H143.958C148.029 26.9426 151.291 28.1252 153.535 30.3891C155.778 32.6526 156.943 35.9348 156.943 40.0415C157 58.2887 156.943 76.5382 156.943 94.7825C157 102.196 157 109.667 157 117.192V193.314C157 197.666 155.885 201.095 153.617 203.435C151.488 205.632 148.407 206.805 144.47 206.943L143.671 206.957C111.114 207 78.5568 207.011 45.9757 206.989L13.3861 206.957C9.19688 206.957 5.83519 205.716 3.52129 203.375C1.20818 201.034 0 197.652 0 193.485V41.5261ZM136.509 52.4706C140.834 51.4592 144.312 51.8164 146.612 53.6678C148.922 55.5277 149.893 58.7727 149.489 63.1793C145.906 103.421 148.695 143.595 147.84 183.915V183.917C147.783 186.357 147.658 188.311 147.342 189.86C147.026 191.413 146.509 192.605 145.633 193.483C144.756 194.362 143.571 194.873 142.025 195.169C140.484 195.464 138.54 195.553 136.104 195.553H79.2111C59.6971 195.553 40.1245 195.553 20.7225 195.439C18.626 195.438 16.2117 195.032 14.3025 194.015C11.2984 192.444 11.0373 189.181 11.0373 186.357C11.0373 176.265 11.023 166.187 11.0088 156.115C10.9945 146.044 10.9802 135.98 10.9802 125.916V122.595C11.0291 117.706 12.7038 113.587 15.6307 110.725C18.653 107.77 22.969 106.195 28.0883 106.457H28.0939C30.792 106.623 33.1263 106.073 35.2424 104.55L35.247 104.546C40.3777 100.947 45.5405 97.4786 50.5388 93.7215C51.0661 93.325 51.6147 92.7628 52.0567 92.132C52.501 91.4978 52.8172 90.8227 52.9161 90.2035L52.917 90.1998C53.4431 87.0658 54.6902 84.5677 56.5322 82.6398C58.3716 80.7148 60.7822 79.3816 63.6006 78.537L63.6034 78.5361C69.5235 76.7911 75.5474 77.5277 79.7444 82.5634C82.6173 85.9963 86.2687 87.6153 90.2309 88.9768L90.2327 88.9777C90.8869 89.2046 91.8209 89.2766 92.739 89.1684C93.6658 89.0591 94.4831 88.7775 94.9496 88.3801L94.9505 88.3782C101.087 83.1964 106.995 77.7309 112.973 72.3096C113.558 71.7742 113.816 71.2485 113.873 70.7071C113.932 70.1499 113.783 69.5137 113.432 68.7547C112.157 66.0544 111.838 63.7711 112.667 61.9176C113.497 60.0645 115.407 58.7942 118.218 57.9521C120.948 57.1255 123.664 56.2996 126.381 55.4729C129.097 54.6461 131.814 53.8187 134.545 52.9919L134.557 52.9882C134.873 52.9018 135.203 52.8157 135.53 52.7303C135.857 52.6447 136.181 52.5599 136.491 52.4752L136.5 52.4724L136.509 52.4706ZM11.9234 125.916C11.9234 135.98 11.9377 146.043 11.9519 156.115C11.9662 166.186 11.9805 176.264 11.9805 186.357C11.9805 189.144 12.2694 191.733 14.5181 193.056L14.7428 193.181L14.7456 193.183C16.4766 194.104 18.7262 194.496 20.7252 194.496H20.728C40.1268 194.61 59.6967 194.61 79.2111 194.61H136.104C138.532 194.61 140.4 194.52 141.847 194.243C143.289 193.967 144.27 193.513 144.965 192.817C145.661 192.12 146.122 191.127 146.419 189.671C146.716 188.211 146.841 186.329 146.898 183.895C147.75 143.703 144.964 103.364 148.549 63.0946C148.941 58.8346 147.978 55.9774 146.021 54.4018C144.056 52.82 140.94 52.4049 136.74 53.3842C136.424 53.4705 136.095 53.5576 135.768 53.643C135.442 53.7281 135.12 53.812 134.811 53.8962C132.083 54.7222 129.369 55.5484 126.655 56.3745C123.939 57.2012 121.222 58.0286 118.491 58.8555H118.489C115.781 59.6669 114.193 60.8202 113.529 62.3026C112.907 63.6921 113.037 65.5059 114.068 67.8715L114.286 68.3523L114.287 68.355C114.674 69.1914 114.895 70.0093 114.812 70.8057C114.726 71.6176 114.331 72.3456 113.609 73.0067L113.607 73.0086C107.638 78.4211 101.712 83.9035 95.5593 89.0993L95.5584 89.0984C94.887 89.6693 93.8562 89.9863 92.8495 90.105C91.8338 90.2247 90.7491 90.1543 89.9242 89.8683C85.9217 88.4929 82.0642 86.8055 79.0204 83.1684L79.0195 83.1675C75.1378 78.51 69.5554 77.7644 63.8696 79.4404L63.8686 79.4395C61.17 80.2485 58.9162 81.5104 57.2148 83.2909C55.5155 85.0692 54.3453 87.3896 53.8473 90.3564L53.8464 90.3555C53.7171 91.1608 53.3233 91.9677 52.8295 92.6726C52.3329 93.3814 51.7155 94.017 51.1052 94.4758C46.092 98.2441 40.9007 101.731 35.7923 105.314C33.4721 106.984 30.9157 107.574 28.0405 107.398C23.1468 107.148 19.0994 108.652 16.2902 111.399C13.5679 114.061 11.9701 117.928 11.9234 122.604V125.916ZM0.943186 193.485C0.943186 197.471 2.09584 200.59 4.19184 202.712C6.28705 204.832 9.38298 206.014 13.3861 206.014C56.8517 206.071 100.261 206.071 143.67 206.014C147.825 206.014 150.901 204.883 152.94 202.779C154.981 200.672 156.057 197.515 156.057 193.314V117.192C156.057 109.665 156.057 102.197 156 94.7861V94.7825C156 76.5341 156.057 58.2906 156 40.0452V40.0434C156 36.1112 154.888 33.0934 152.865 31.0522C150.842 29.0112 147.846 27.8844 143.952 27.8565C140.151 27.8566 136.384 27.9136 132.569 27.8565H132.565C131.455 27.8295 130.806 28.0648 130.428 28.4597C130.093 28.8095 129.89 29.3669 129.863 30.2326L129.862 30.623V30.6276C129.919 34.4457 129.977 38.2235 129.805 42.0603C129.716 44.7049 128.935 46.84 127.471 48.3153C126.003 49.7943 123.907 50.5495 121.312 50.5495L121.313 50.5504C93.0366 50.6075 64.8173 50.6075 36.5411 50.5504C33.7317 50.5503 31.5571 49.8159 30.0742 48.2987C28.5949 46.7852 27.8786 44.5688 27.8203 41.7637C27.7633 39.8463 27.7779 37.9271 27.7779 36.0308C27.7779 34.1287 27.7637 32.2444 27.6508 30.3781V30.3762C27.6294 29.9894 27.3713 29.3763 26.9996 28.8346C26.8194 28.5719 26.6302 28.3519 26.4599 28.2037C26.2865 28.0529 26.1957 28.0306 26.1872 28.0278H26.1799L26.1725 28.0269C20.6938 27.8553 15.1656 27.5742 9.80951 28.3087H9.8049C6.83447 28.6912 4.64098 30.0881 3.17681 32.313C1.70176 34.5545 0.943186 37.6746 0.943186 41.5261V193.485Z" fill="#00FFB6"/>
<path d="M78.5828 0.000414408C87.7385 -0.0578186 95.4911 6.02593 97.7036 15.242C98.0037 16.4728 98.4343 17.1913 99.005 17.6116C99.579 18.0342 100.379 18.2165 101.558 18.1891C106.29 18.0748 111.022 18.1321 115.799 18.1891H115.801C117.552 18.2178 118.87 18.487 119.735 19.3283C120.603 20.1728 120.902 21.4824 120.93 23.2717C121.016 26.5712 121.005 29.8378 120.97 33.1157L120.93 36.4007C120.916 37.3656 120.855 38.1732 120.699 38.8357C120.542 39.504 120.281 40.0536 119.848 40.4741C119.416 40.8939 118.855 41.1429 118.173 41.2891C117.496 41.4341 116.67 41.4843 115.679 41.4843H42.1173C40.9352 41.4843 39.9781 41.4491 39.2168 41.3158C38.4522 41.1819 37.8319 40.9408 37.37 40.487C36.9071 40.032 36.6606 39.4201 36.5245 38.6672C36.3892 37.919 36.3541 36.9802 36.3541 35.8242C36.3541 31.6708 36.2971 27.4389 36.3541 23.2727L36.355 23.2717C36.3835 21.4703 36.6334 20.1555 37.4649 19.3135C38.2985 18.4695 39.5996 18.2177 41.3703 18.1891H41.3721C46.3203 18.1321 51.2212 18.0748 56.1803 18.1891H56.1822C57.2171 18.2163 57.8834 18.0483 58.3486 17.689C58.8139 17.3294 59.1624 16.7129 59.4078 15.6473L59.4087 15.6463C61.6186 6.14598 69.1988 0.0590532 78.5828 0.000414408ZM78.0523 10.5489C81.8953 10.3765 85.5863 12.3721 86.9269 15.51L87.0494 15.8176L87.0503 15.8195L87.148 16.0994C87.6114 17.4858 87.6782 18.6665 87.0982 19.53C86.4771 20.4544 85.2508 20.8142 83.6571 20.8432L83.6562 20.8423C81.9429 20.8992 80.2102 20.8432 78.5285 20.8432C77.5857 20.8432 76.6292 20.8289 75.6768 20.8147C74.7254 20.8004 73.778 20.7862 72.8454 20.7861C71.6259 20.8151 70.6642 20.5365 70.1154 19.8062C69.5741 19.0859 69.5539 18.0806 69.8197 16.9559L69.8206 16.9541C70.6717 13.4203 74.169 10.7286 78.0523 10.5489ZM78.0947 11.4901L78.0956 11.491C74.584 11.6535 71.4803 14.0923 70.7371 17.1714L70.738 17.1723C70.4918 18.2142 70.5862 18.8626 70.8697 19.2399C71.145 19.6061 71.7174 19.8702 72.8279 19.8431H72.839C73.7818 19.8431 74.7384 19.8574 75.6907 19.8716C76.6442 19.8859 77.5939 19.9002 78.5285 19.9002C80.2576 19.9002 81.9355 19.9569 83.6331 19.9002H83.6405C85.1754 19.8722 85.9692 19.5191 86.3153 19.0041C86.6638 18.4853 86.6955 17.6001 86.1643 16.1427C85.1124 13.3003 81.75 11.3262 78.0947 11.4901ZM37.2973 35.8242C37.2973 36.9773 37.334 37.842 37.4529 38.4996C37.571 39.1522 37.7619 39.5488 38.0314 39.8137C38.302 40.0797 38.7098 40.2702 39.3798 40.3875C40.0533 40.5054 40.9385 40.5413 42.1173 40.5413H115.679C116.651 40.5413 117.397 40.4912 117.976 40.3672C118.549 40.2443 118.927 40.0553 119.191 39.7981C119.456 39.5415 119.65 39.1751 119.781 38.6193C119.913 38.0576 119.973 37.332 119.987 36.3869C120.044 31.9953 120.101 27.6714 119.987 23.292V23.2874C119.959 21.542 119.66 20.5709 119.077 20.0042C118.491 19.4342 117.505 19.1604 115.785 19.1321C111.603 19.0822 107.472 19.0326 103.349 19.0971L101.581 19.1321C100.315 19.1616 99.2657 18.9741 98.4459 18.3705C97.6229 17.7645 97.1136 16.8008 96.788 15.4658V15.464C94.709 6.80038 87.5255 1.06832 78.9955 0.944382L78.5884 0.94254C69.6532 0.998162 62.441 6.77192 60.327 15.86C60.0604 17.0171 59.6407 17.8825 58.9261 18.4349C58.2107 18.9878 57.2841 19.1618 56.1573 19.1321C51.218 19.0183 46.3342 19.0742 41.3841 19.1312L41.385 19.1321C39.6287 19.1605 38.6825 19.4229 38.1364 19.9757C37.5883 20.5306 37.3256 21.4968 37.2973 23.2874C37.2405 27.4456 37.2973 31.6531 37.2973 35.8242Z" fill="#00FFB6"/>
<path d="M137.852 145.813C137.908 133.67 137.908 121.526 137.852 109.268V109.266C137.852 107.457 137.638 106.534 137.144 106.023C136.656 105.518 135.77 105.29 133.999 105.29C126.888 105.29 119.779 105.289 112.67 105.346L112.671 105.347C110.823 105.376 109.841 105.64 109.283 106.215C108.723 106.794 108.471 107.812 108.471 109.722C108.443 121.782 108.428 133.842 108.414 145.902C108.4 157.961 108.385 170.022 108.357 182.082C108.357 183.473 108.612 184.296 109.089 184.779C109.562 185.259 110.363 185.514 111.744 185.487H111.75L114.565 185.47C121.128 185.443 127.66 185.487 134.226 185.487C135.199 185.487 135.904 185.471 136.429 185.393C136.951 185.315 137.22 185.183 137.386 185.011C137.554 184.836 137.683 184.546 137.759 183.993C137.836 183.44 137.852 182.698 137.852 181.681V145.813ZM138.795 181.681C138.795 182.689 138.781 183.495 138.694 184.123C138.607 184.75 138.438 185.277 138.065 185.664C137.69 186.055 137.177 186.235 136.569 186.326C135.963 186.416 135.188 186.43 134.226 186.43C126.713 186.43 119.268 186.372 111.762 186.429L111.763 186.43C110.3 186.459 109.167 186.202 108.417 185.442C107.671 184.685 107.414 183.54 107.414 182.081L107.448 163.99C107.457 157.96 107.464 151.931 107.471 145.901C107.485 133.841 107.499 121.781 107.528 109.721C107.528 107.812 107.759 106.435 108.606 105.56C109.457 104.682 110.807 104.433 112.657 104.404H112.66C119.774 104.347 126.888 104.347 133.999 104.347C135.754 104.347 137.031 104.547 137.823 105.367C138.609 106.182 138.795 107.481 138.795 109.264L138.826 118.44C138.847 127.598 138.837 136.708 138.795 145.818V181.681Z" fill="#00FFB6"/>
<path d="M61.2735 130.364C61.2735 128.146 61.5305 126.586 62.5161 125.615C63.4972 124.649 65.0779 124.389 67.3149 124.361H90.3622C92.3592 124.361 93.8177 124.623 94.7465 125.537C95.6767 126.452 95.9535 127.9 95.954 129.901L95.989 133.192C96.0552 140.866 96.0185 148.509 96.0683 156.134V181.51C96.0683 182.547 96.0505 183.379 95.955 184.03C95.8593 184.682 95.6765 185.224 95.2872 185.624C94.8959 186.026 94.3629 186.216 93.7241 186.315C93.0884 186.413 92.2779 186.43 91.2722 186.43H65.9554C65.0042 186.43 64.2365 186.41 63.6315 186.313C63.0238 186.216 62.5162 186.033 62.1384 185.659C61.7607 185.285 61.576 184.782 61.4743 184.186C61.3732 183.592 61.3448 182.84 61.3306 181.917V181.912C61.2737 164.748 61.2735 147.527 61.2735 130.364ZM62.2167 130.364C62.2167 147.525 62.2169 164.742 62.2738 181.902L62.2876 182.555C62.3058 183.163 62.3382 183.643 62.4037 184.027C62.4905 184.536 62.6258 184.814 62.8025 184.989C62.9794 185.164 63.2614 185.298 63.7807 185.381C64.3028 185.464 65.0008 185.487 65.9554 185.487H91.2722C92.2862 185.487 93.0267 185.468 93.5804 185.383C94.1309 185.298 94.4264 185.156 94.6111 184.966C94.7977 184.775 94.938 184.466 95.0219 183.894C95.106 183.32 95.1251 182.555 95.1251 181.51V156.14L95.1085 152.865C95.0797 145.226 95.1104 137.597 95.0109 129.913V129.907C95.0108 127.92 94.7185 126.833 94.0852 126.209C93.4495 125.584 92.3476 125.304 90.3622 125.304H67.3269L66.5283 125.327C64.7754 125.409 63.7759 125.699 63.1783 126.288C62.4998 126.956 62.2167 128.134 62.2167 130.364Z" fill="#00FFB6"/>
<path d="M138.441 57.9451C140.08 57.5568 141.418 57.7219 142.356 58.5584C143.275 59.3782 143.685 60.7368 143.744 62.4365L143.746 62.4807L143.738 62.524C142.83 68.4422 142.031 74.3886 140.948 80.2706C140.674 81.8783 139.889 83.0004 138.722 83.3723C137.567 83.7406 136.234 83.3092 135.001 82.2543C133.857 81.2937 133.042 80.614 132.382 80.1785C131.724 79.744 131.294 79.6043 130.915 79.6296C130.527 79.6557 130.09 79.8607 129.433 80.3627C129.105 80.6132 128.743 80.9219 128.321 81.2919L126.859 82.5914C120.486 88.23 113.836 93.6637 107.329 99.1647L104.551 101.527C103.374 102.538 102.222 103.88 101.916 105.209V105.212C101.451 107.192 100.756 108.799 99.684 110.019C98.6046 111.247 97.1731 112.046 95.3006 112.463L95.2942 112.465C91.8113 113.187 87.8463 111.63 85.9728 108.42C84.1592 105.328 79.9382 102.855 75.3085 101.872C70.6814 100.89 65.8247 101.434 62.7395 104.146L62.7376 104.147C55.7052 110.278 47.2216 114.822 39.3569 119.869L39.3542 119.87C37.7023 120.919 36.6686 121.919 36.1424 123.816C34.7629 128.865 29.8419 131.613 24.7247 130.539C19.936 129.52 16.6424 124.905 17.2418 120.099L17.2427 120.095C17.8958 115.156 22.4847 110.903 27.7071 111.998C32.6313 113.04 36.2459 111.195 39.9695 108.594L39.9713 108.593C45.653 104.664 51.2195 100.565 56.6143 96.2398L56.618 96.2361C57.8084 95.3023 58.7385 93.4244 59.1242 91.7677L59.1252 91.7631C59.6773 89.4915 60.5301 87.6554 61.7899 86.2945C63.0563 84.9264 64.7048 84.0697 66.7849 83.7122L67.168 83.6523C69.0772 83.3897 70.8562 83.675 72.4421 84.4839C74.1296 85.3447 75.5691 86.7838 76.7141 88.7249L76.8504 88.9662C76.8944 89.0478 76.9369 89.1295 76.9775 89.2084C77.0612 89.3706 77.1378 89.5207 77.217 89.6596C77.3877 89.9591 77.5132 90.0967 77.6011 90.1413C78.9873 90.8004 80.3556 91.5328 81.7091 92.2318C83.0712 92.9353 84.4266 93.6096 85.8098 94.1676C88.5701 95.2812 91.4221 95.9227 94.6061 95.4008C95.5055 95.2413 96.4958 94.8178 97.1538 94.2091L97.1566 94.2054C105.008 87.0778 112.858 79.9517 120.651 72.7686C121.444 72.0257 121.729 71.3664 121.702 70.7554C121.673 70.1247 121.309 69.4166 120.517 68.5958L120.514 68.593C119.375 67.3925 118.771 66.1725 118.985 65.0511C119.205 63.9036 120.228 63.105 121.739 62.6299C127.269 60.8588 132.854 59.3164 138.438 57.946L138.441 57.9451ZM141.729 59.262C141.117 58.7162 140.151 58.5095 138.662 58.8614C133.096 60.2277 127.531 61.765 122.025 63.5288L121.771 63.6135C120.559 64.0449 120.026 64.6333 119.912 65.2279C119.785 65.8877 120.119 66.8053 121.196 67.941C122.054 68.8308 122.601 69.7482 122.644 70.714C122.688 71.6988 122.204 72.6066 121.293 73.4593L121.29 73.4621C113.494 80.6478 105.642 87.7764 97.7912 94.9035C96.9707 95.6612 95.8014 96.1482 94.7682 96.3309L94.7627 96.3319C91.3487 96.8923 88.3129 96.1941 85.4561 95.0416C84.0305 94.4665 82.6439 93.7757 81.2772 93.0699C79.9044 92.3609 78.5586 91.6407 77.1885 90.9895L77.1793 90.9849C76.8121 90.8008 76.5682 90.4248 76.3982 90.1265C76.3068 89.9663 76.2192 89.7959 76.1394 89.6412C76.0572 89.4819 75.982 89.3372 75.9054 89.2093L75.9036 89.2065C74.83 87.3857 73.5107 86.0878 72.0129 85.3238C70.5187 84.5618 68.8168 84.3153 66.9461 84.6414C65.0442 84.9682 63.5911 85.7371 62.4825 86.9346C61.3672 88.1394 60.5704 89.8104 60.0416 91.9859C59.6306 93.7478 58.6271 95.8558 57.2038 96.9747C51.7895 101.316 46.2055 105.428 40.5092 109.367C36.723 112.012 32.8283 114.046 27.5118 112.921C22.9503 111.965 18.778 115.69 18.1776 120.215C17.6394 124.53 20.6045 128.697 24.9172 129.617C29.5854 130.596 33.9956 128.098 35.2333 123.568L35.2342 123.566C35.8457 121.36 37.0868 120.193 38.8467 119.076C46.798 113.973 55.1547 109.508 62.1178 103.437C65.5183 100.448 70.7311 99.9371 75.5047 100.95C80.2764 101.963 84.7879 104.537 86.7861 107.944L86.7871 107.945C88.4409 110.779 91.9859 112.188 95.1026 111.541C96.8106 111.16 98.0509 110.448 98.9757 109.396C99.9082 108.336 100.551 106.893 100.997 104.998L101.079 104.692C101.542 103.175 102.801 101.787 103.937 100.811C111.349 94.4679 118.952 88.3274 126.233 81.885C127.33 80.913 128.169 80.1417 128.861 79.6131C129.551 79.0855 130.175 78.7338 130.852 78.6884C131.54 78.6425 132.184 78.917 132.902 79.3911C133.439 79.7457 134.059 80.241 134.812 80.8665L135.611 81.5351L135.614 81.5378C136.714 82.4785 137.713 82.7039 138.436 82.4735C139.145 82.2472 139.781 81.5177 140.02 80.1067L140.021 80.1002L140.413 77.8992C141.298 72.7738 142.004 67.6127 142.799 62.4301C142.739 60.8448 142.355 59.8205 141.729 59.262Z" fill="#00FFB6"/>
<path d="M24.5338 142.436C31.9322 142.379 39.3306 142.379 46.729 142.436H46.7346C48.314 142.465 49.5575 142.788 50.3968 143.604C51.2406 144.424 51.5774 145.647 51.5776 147.24L51.5942 151.688C51.6062 156.137 51.6062 160.586 51.6062 165.039C51.6062 170.976 51.6063 176.919 51.6347 182.876V182.879C51.6347 183.982 51.4146 184.915 50.8002 185.557C50.1804 186.206 49.2566 186.457 48.0876 186.429C48.0861 186.429 48.0846 186.429 48.083 186.429C48.0816 186.429 48.0798 186.43 48.0784 186.429C39.6635 186.373 31.1913 186.373 22.7763 186.429H22.7736C21.5825 186.429 20.631 186.178 19.9892 185.517C19.3505 184.859 19.116 183.895 19.116 182.708V182.694C19.2864 176.887 19.2302 170.968 19.2302 165.088C19.2302 159.393 19.1733 153.683 19.2302 147.978V147.975C19.2588 146.058 19.5237 144.638 20.388 143.712C21.2614 142.778 22.6327 142.465 24.5301 142.436H24.5338ZM20.1734 165.088C20.1734 170.955 20.2301 176.897 20.0592 182.722C20.061 183.807 20.2815 184.465 20.6652 184.86C21.0474 185.254 21.6887 185.485 22.7727 185.486C31.1942 185.429 39.6726 185.429 48.0941 185.486H48.1033C49.1485 185.513 49.7577 185.282 50.1177 184.905C50.4844 184.522 50.6913 183.887 50.6915 182.881L50.6749 178.414C50.6629 173.949 50.663 169.491 50.663 165.039C50.663 159.101 50.6629 153.172 50.6344 147.243V147.241C50.6344 145.756 50.317 144.842 49.7391 144.28C49.1562 143.713 48.2094 143.407 46.7171 143.379C39.326 143.322 31.9349 143.321 24.5439 143.378L24.5448 143.379C22.6873 143.407 21.6686 143.723 21.077 144.356C20.4768 144.999 20.201 146.086 20.1725 147.987C20.1156 153.686 20.1734 159.38 20.1734 165.088Z" fill="#00FFB6"/>
</svg>
