<svg width="195" height="172" viewBox="0 0 195 172" fill="none" xmlns="http://www.w3.org/2000/svg">
<mask id="path-1-inside-1_1_342" fill="white">
<path d="M154.481 120.84C154.481 127.468 154.481 133.652 154.481 139.866C154.481 147.411 154.481 154.956 154.481 162.501C154.481 167.354 150.409 171.496 145.571 171.526C122.559 171.556 99.5463 171.556 76.5341 171.556C76.2095 171.556 75.885 171.526 75.354 171.496C78.0092 168.301 79.8384 164.868 80.517 160.904C80.753 159.602 80.9005 158.27 80.9005 156.939C80.93 147.411 80.9595 137.913 80.9005 128.386C80.812 118.858 74.9704 110.81 65.9131 107.94C63.6708 107.23 61.1926 106.934 58.8029 106.934C45.8216 106.845 32.8404 106.904 19.8591 106.904C19.2691 106.904 18.7085 106.904 17.9709 106.904C17.9709 106.135 17.9709 105.543 17.9709 104.951C17.9709 73.528 18.0004 42.1344 18.0004 10.7111C18.0004 4.49749 22.4849 0.0295887 28.9165 0.0295887C44.9955 0 61.0746 0.0295887 77.1536 0.0295887C90.5184 0.0295887 103.913 0.0295887 117.277 0C118.399 0 119.195 0.295887 119.992 1.09478C131.291 12.4865 142.62 23.8485 153.92 35.2698C154.392 35.7728 154.746 36.6309 154.746 37.3114C154.805 41.8977 154.746 46.4839 154.805 51.0702C154.835 52.4017 154.392 53.4077 153.536 54.3841C144.066 65.5095 134.596 76.6349 125.125 87.7602C118.399 95.6604 111.76 103.649 104.945 111.461C102.202 114.597 99.1037 117.438 96.1535 120.426C93.8817 122.705 92.7606 125.545 92.1411 128.652C90.7544 135.457 89.3383 142.233 87.8632 149.009C87.4501 150.873 86.7716 152.678 86.329 154.542C85.5324 158.152 86.6535 161.229 89.3678 163.567C91.9936 165.815 95.0914 166.851 98.5137 165.431C106.863 161.939 115.006 158.063 122.854 153.536C127.19 151.021 130.406 147.293 133.711 143.624C140.29 136.375 146.81 129.066 153.359 121.787C153.684 121.551 153.92 121.343 154.481 120.84ZM70.191 41.3947C64.6444 41.3947 59.0979 41.3947 53.5219 41.3947C48.3589 41.3947 43.1959 41.3947 38.0329 41.4242C35.7317 41.4538 34.286 42.7557 34.1385 44.7974C33.991 47.1053 35.6726 48.5255 38.3869 48.5255C51.5452 48.5255 64.7329 48.5255 77.8912 48.5255C85.9455 48.5255 93.9998 48.5551 102.054 48.5551C104.001 48.5551 105.476 47.5195 105.978 45.833C106.42 44.2944 105.86 42.6966 104.355 41.9568C103.559 41.5722 102.585 41.4242 101.67 41.3947C91.2265 41.3651 80.7235 41.3947 70.191 41.3947ZM66.4146 69.1193C66.4146 69.0897 66.4146 69.0897 66.4146 69.0601C74.9704 69.0601 83.5263 69.0601 92.0821 69.0601C93.1737 69.0601 94.2358 69.0897 95.3274 69.001C97.2451 68.853 98.5727 67.4623 98.6022 65.6574C98.6317 63.7342 97.3926 62.3435 95.4159 62.0772C94.8848 62.018 94.3243 62.018 93.7932 62.018C78.0092 62.018 62.2547 62.018 46.4707 62.018C43.7269 62.018 40.9537 61.9884 38.2099 62.018C36.3512 62.0476 34.9646 62.9057 34.4335 64.3259C33.4599 66.9889 35.2006 69.0897 38.4164 69.0897C47.7393 69.1489 57.0917 69.1193 66.4146 69.1193ZM56.8852 82.7597C50.6896 82.7597 44.5235 82.7597 38.3279 82.7597C36.6462 82.7597 35.2006 83.2331 34.463 84.8901C33.3419 87.4347 35.1711 89.7131 38.3574 89.7131C50.7781 89.7131 63.1988 89.7131 75.6195 89.6835C76.239 89.6835 76.9176 89.6243 77.5077 89.4172C79.6319 88.7367 80.4875 85.9553 79.1303 84.2096C78.1862 83.026 76.8881 82.7301 75.4425 82.7301C69.2764 82.7597 63.0808 82.7597 56.8852 82.7597ZM56.5017 18.6705C56.5017 17.5461 56.5017 16.3922 56.5017 15.2678C56.4721 13.2262 55.5281 12.2793 53.5514 12.2497C52.1352 12.2202 50.7191 12.2202 49.2735 12.2497C47.5623 12.2793 46.5002 13.2853 46.4707 14.9719C46.4412 17.4278 46.4412 19.8836 46.5002 22.3395C46.5297 24.0852 47.6213 25.2096 49.3325 25.2688C50.7486 25.328 52.1942 25.328 53.6104 25.2688C55.3805 25.18 56.4722 24.0261 56.5312 22.2211C56.5312 21.0376 56.5017 19.854 56.5017 18.6705ZM103.057 18.6113C103.057 19.854 103.057 21.0672 103.087 22.3099C103.146 24.1444 104.208 25.2392 106.037 25.2984C107.365 25.3576 108.692 25.328 110.02 25.2984C111.908 25.2392 113.029 24.1148 113.059 22.2211C113.118 19.7949 113.118 17.3982 113.059 14.9719C113.029 13.3149 111.996 12.3089 110.374 12.2497C108.84 12.1906 107.335 12.1906 105.801 12.2202C104.119 12.2497 103.087 13.3149 103.057 15.0311C103.028 16.2442 103.057 17.4278 103.057 18.6113ZM37.5903 18.6705C37.5903 18.0787 37.5903 17.4869 37.5903 16.8952C37.5903 16.2442 37.6198 15.6229 37.5903 14.9719C37.5313 13.2853 36.6167 12.3089 34.9351 12.2497C33.3714 12.1906 31.8078 12.1906 30.2441 12.2202C28.7395 12.2497 27.5889 13.3149 27.5594 14.7944C27.5004 17.339 27.5004 19.9132 27.5889 22.4579C27.6479 24.0557 28.8575 25.18 30.4506 25.2392C31.8668 25.2984 33.2829 25.2984 34.6991 25.2392C36.4102 25.1504 37.5018 24.0557 37.5608 22.3099C37.6198 21.1264 37.5903 19.9132 37.5903 18.6705ZM84.1753 18.6113C84.1753 19.854 84.1458 21.0672 84.2048 22.3099C84.2638 24.0852 85.3849 25.2392 87.1846 25.2984C88.5417 25.3576 89.9284 25.3576 91.2855 25.2984C93.0262 25.2392 94.1768 24.1148 94.2063 22.4283C94.2653 19.9132 94.2653 17.4278 94.2063 14.9127C94.1768 13.2853 93.1442 12.3385 91.4625 12.2793C89.9579 12.2202 88.4237 12.2202 86.9191 12.2497C85.3554 12.2793 84.2638 13.3445 84.2048 14.9423C84.1458 16.1555 84.1753 17.3982 84.1753 18.6113ZM65.2935 18.6113C65.2935 19.7949 65.264 20.9784 65.2935 22.162C65.3525 24.0852 66.5031 25.2688 68.4208 25.2984C69.7484 25.328 71.0761 25.328 72.4037 25.2984C74.1148 25.2392 75.295 24.1444 75.3245 22.4283C75.3835 19.9132 75.3835 17.3982 75.3245 14.9127C75.295 13.2558 74.2919 12.3385 72.5807 12.2793C71.0761 12.2202 69.5419 12.2497 68.0078 12.2793C66.3261 12.3089 65.323 13.3741 65.2935 15.0903C65.264 16.2442 65.2935 17.4278 65.2935 18.6113Z"/>
</mask>
<path d="M154.481 120.84C154.481 127.468 154.481 133.652 154.481 139.866C154.481 147.411 154.481 154.956 154.481 162.501C154.481 167.354 150.409 171.496 145.571 171.526C122.559 171.556 99.5463 171.556 76.5341 171.556C76.2095 171.556 75.885 171.526 75.354 171.496C78.0092 168.301 79.8384 164.868 80.517 160.904C80.753 159.602 80.9005 158.27 80.9005 156.939C80.93 147.411 80.9595 137.913 80.9005 128.386C80.812 118.858 74.9704 110.81 65.9131 107.94C63.6708 107.23 61.1926 106.934 58.8029 106.934C45.8216 106.845 32.8404 106.904 19.8591 106.904C19.2691 106.904 18.7085 106.904 17.9709 106.904C17.9709 106.135 17.9709 105.543 17.9709 104.951C17.9709 73.528 18.0004 42.1344 18.0004 10.7111C18.0004 4.49749 22.4849 0.0295887 28.9165 0.0295887C44.9955 0 61.0746 0.0295887 77.1536 0.0295887C90.5184 0.0295887 103.913 0.0295887 117.277 0C118.399 0 119.195 0.295887 119.992 1.09478C131.291 12.4865 142.62 23.8485 153.92 35.2698C154.392 35.7728 154.746 36.6309 154.746 37.3114C154.805 41.8977 154.746 46.4839 154.805 51.0702C154.835 52.4017 154.392 53.4077 153.536 54.3841C144.066 65.5095 134.596 76.6349 125.125 87.7602C118.399 95.6604 111.76 103.649 104.945 111.461C102.202 114.597 99.1037 117.438 96.1535 120.426C93.8817 122.705 92.7606 125.545 92.1411 128.652C90.7544 135.457 89.3383 142.233 87.8632 149.009C87.4501 150.873 86.7716 152.678 86.329 154.542C85.5324 158.152 86.6535 161.229 89.3678 163.567C91.9936 165.815 95.0914 166.851 98.5137 165.431C106.863 161.939 115.006 158.063 122.854 153.536C127.19 151.021 130.406 147.293 133.711 143.624C140.29 136.375 146.81 129.066 153.359 121.787C153.684 121.551 153.92 121.343 154.481 120.84ZM70.191 41.3947C64.6444 41.3947 59.0979 41.3947 53.5219 41.3947C48.3589 41.3947 43.1959 41.3947 38.0329 41.4242C35.7317 41.4538 34.286 42.7557 34.1385 44.7974C33.991 47.1053 35.6726 48.5255 38.3869 48.5255C51.5452 48.5255 64.7329 48.5255 77.8912 48.5255C85.9455 48.5255 93.9998 48.5551 102.054 48.5551C104.001 48.5551 105.476 47.5195 105.978 45.833C106.42 44.2944 105.86 42.6966 104.355 41.9568C103.559 41.5722 102.585 41.4242 101.67 41.3947C91.2265 41.3651 80.7235 41.3947 70.191 41.3947ZM66.4146 69.1193C66.4146 69.0897 66.4146 69.0897 66.4146 69.0601C74.9704 69.0601 83.5263 69.0601 92.0821 69.0601C93.1737 69.0601 94.2358 69.0897 95.3274 69.001C97.2451 68.853 98.5727 67.4623 98.6022 65.6574C98.6317 63.7342 97.3926 62.3435 95.4159 62.0772C94.8848 62.018 94.3243 62.018 93.7932 62.018C78.0092 62.018 62.2547 62.018 46.4707 62.018C43.7269 62.018 40.9537 61.9884 38.2099 62.018C36.3512 62.0476 34.9646 62.9057 34.4335 64.3259C33.4599 66.9889 35.2006 69.0897 38.4164 69.0897C47.7393 69.1489 57.0917 69.1193 66.4146 69.1193ZM56.8852 82.7597C50.6896 82.7597 44.5235 82.7597 38.3279 82.7597C36.6462 82.7597 35.2006 83.2331 34.463 84.8901C33.3419 87.4347 35.1711 89.7131 38.3574 89.7131C50.7781 89.7131 63.1988 89.7131 75.6195 89.6835C76.239 89.6835 76.9176 89.6243 77.5077 89.4172C79.6319 88.7367 80.4875 85.9553 79.1303 84.2096C78.1862 83.026 76.8881 82.7301 75.4425 82.7301C69.2764 82.7597 63.0808 82.7597 56.8852 82.7597ZM56.5017 18.6705C56.5017 17.5461 56.5017 16.3922 56.5017 15.2678C56.4721 13.2262 55.5281 12.2793 53.5514 12.2497C52.1352 12.2202 50.7191 12.2202 49.2735 12.2497C47.5623 12.2793 46.5002 13.2853 46.4707 14.9719C46.4412 17.4278 46.4412 19.8836 46.5002 22.3395C46.5297 24.0852 47.6213 25.2096 49.3325 25.2688C50.7486 25.328 52.1942 25.328 53.6104 25.2688C55.3805 25.18 56.4722 24.0261 56.5312 22.2211C56.5312 21.0376 56.5017 19.854 56.5017 18.6705ZM103.057 18.6113C103.057 19.854 103.057 21.0672 103.087 22.3099C103.146 24.1444 104.208 25.2392 106.037 25.2984C107.365 25.3576 108.692 25.328 110.02 25.2984C111.908 25.2392 113.029 24.1148 113.059 22.2211C113.118 19.7949 113.118 17.3982 113.059 14.9719C113.029 13.3149 111.996 12.3089 110.374 12.2497C108.84 12.1906 107.335 12.1906 105.801 12.2202C104.119 12.2497 103.087 13.3149 103.057 15.0311C103.028 16.2442 103.057 17.4278 103.057 18.6113ZM37.5903 18.6705C37.5903 18.0787 37.5903 17.4869 37.5903 16.8952C37.5903 16.2442 37.6198 15.6229 37.5903 14.9719C37.5313 13.2853 36.6167 12.3089 34.9351 12.2497C33.3714 12.1906 31.8078 12.1906 30.2441 12.2202C28.7395 12.2497 27.5889 13.3149 27.5594 14.7944C27.5004 17.339 27.5004 19.9132 27.5889 22.4579C27.6479 24.0557 28.8575 25.18 30.4506 25.2392C31.8668 25.2984 33.2829 25.2984 34.6991 25.2392C36.4102 25.1504 37.5018 24.0557 37.5608 22.3099C37.6198 21.1264 37.5903 19.9132 37.5903 18.6705ZM84.1753 18.6113C84.1753 19.854 84.1458 21.0672 84.2048 22.3099C84.2638 24.0852 85.3849 25.2392 87.1846 25.2984C88.5417 25.3576 89.9284 25.3576 91.2855 25.2984C93.0262 25.2392 94.1768 24.1148 94.2063 22.4283C94.2653 19.9132 94.2653 17.4278 94.2063 14.9127C94.1768 13.2853 93.1442 12.3385 91.4625 12.2793C89.9579 12.2202 88.4237 12.2202 86.9191 12.2497C85.3554 12.2793 84.2638 13.3445 84.2048 14.9423C84.1458 16.1555 84.1753 17.3982 84.1753 18.6113ZM65.2935 18.6113C65.2935 19.7949 65.264 20.9784 65.2935 22.162C65.3525 24.0852 66.5031 25.2688 68.4208 25.2984C69.7484 25.328 71.0761 25.328 72.4037 25.2984C74.1148 25.2392 75.295 24.1444 75.3245 22.4283C75.3835 19.9132 75.3835 17.3982 75.3245 14.9127C75.295 13.2558 74.2919 12.3385 72.5807 12.2793C71.0761 12.2202 69.5419 12.2497 68.0078 12.2793C66.3261 12.3089 65.323 13.3741 65.2935 15.0903C65.264 16.2442 65.2935 17.4278 65.2935 18.6113Z" stroke="#00FFB6" stroke-width="1.77778" mask="url(#path-1-inside-1_1_342)"/>
<path d="M14.1377 114.391C27.5095 114.339 40.88 114.31 54.25 114.383L59.9795 114.42C67.4272 114.476 73.0792 120.213 73.2812 127.647L73.2871 128.003C73.3166 137.943 73.3166 147.914 73.2871 157.884C73.2586 165.097 67.2888 171.081 60.0996 171.11C56.2506 171.11 52.3941 171.104 48.5371 171.097C44.6797 171.089 40.8213 171.082 36.9707 171.082C29.391 171.082 21.8351 171.052 14.252 171.082H14.25C6.33462 171.139 0.277163 164.545 0.448242 157.216V157.215C0.629068 148.795 0.651247 140.375 0.515625 131.975L0.448242 128.376C0.305793 121.005 6.02169 114.419 14.1367 114.391H14.1377ZM32.0898 129.506C30.9614 128.949 29.8804 128.873 29.0391 129.354C28.1379 129.869 27.6758 130.928 27.6758 132.262V142.322C27.6758 145.779 27.6463 149.218 27.6758 152.682V152.684C27.6922 153.92 28.2316 154.906 29.0928 155.413C29.9567 155.921 31.0601 155.896 32.0928 155.278L32.0938 155.279C38.0513 151.73 44.0139 148.207 49.9453 144.626L49.9473 144.624C50.9811 143.992 51.5664 143.101 51.543 142.141C51.5209 141.243 50.9706 140.424 50.0391 139.832L49.8477 139.717C47.8132 138.534 45.7765 137.35 43.7109 136.166C39.9123 133.981 36.1569 131.756 32.3184 129.624L32.3164 129.623L32.0898 129.506Z" stroke="#00FFB6" stroke-width="0.888889"/>
<path d="M158.457 61.4893C158.867 61.4364 159.319 61.557 159.843 61.9248L160.073 62.0977C166.142 67.1803 172.209 72.2309 178.246 77.3408H178.247C178.535 77.6159 178.785 77.9586 179.059 78.3682C179.277 78.695 179.516 79.0711 179.785 79.4551C179.501 79.8827 179.247 80.2878 179.012 80.6494C178.724 81.0912 178.451 81.4837 178.133 81.8438V81.8447C172.498 88.2354 166.836 94.5953 161.199 100.958H161.198C150.902 112.616 140.605 124.274 130.28 135.932C127.915 138.599 125.626 141.25 123.158 143.783C122.077 144.868 120.729 145.79 119.343 146.514C112 150.27 104.602 153.906 97.2229 157.606C96.6574 157.89 96.1419 158.003 95.6672 157.964C95.196 157.924 94.7266 157.731 94.2551 157.337C93.8069 156.962 93.612 156.564 93.5471 156.133C93.4791 155.68 93.5501 155.164 93.6946 154.556L93.6956 154.552C95.3749 147.193 96.9838 139.824 98.7034 132.488L99.4475 129.347C99.7509 128.074 100.534 126.747 101.443 125.722L101.447 125.717C108.526 117.523 115.692 109.418 122.833 101.279C134.162 88.3787 145.491 75.4781 156.85 62.5479L156.851 62.5469C157.45 61.8618 157.979 61.551 158.457 61.4893ZM104.931 131.73C104.119 131.81 103.429 132.046 102.876 132.466C102.322 132.887 101.938 133.469 101.694 134.185C101.421 134.955 101.34 135.731 101.511 136.464C101.683 137.202 102.103 137.862 102.778 138.406C105.465 140.627 108.18 142.788 110.923 144.947V144.948C112.668 146.335 115.026 146.059 116.249 144.39L116.248 144.389C117.446 142.773 116.999 140.558 115.344 139.224L115.341 139.222L113.337 137.619C111.332 136.006 109.326 134.373 107.314 132.799H107.313C106.967 132.523 106.573 132.341 106.206 132.193C105.817 132.036 105.49 131.927 105.167 131.772L105.055 131.719L104.931 131.73Z" stroke="#00FFB6" stroke-width="0.888889"/>
<path d="M176.365 44.6794C178.926 44.7364 181.29 45.8388 183.532 47.3279H183.533C187.373 49.8759 190.98 52.4752 192.81 56.7771V56.7781C194.008 59.5807 194.072 62.3743 192.435 64.8503C190.828 67.283 188.986 69.569 186.969 71.6501V71.6511C186.147 72.504 185.429 72.8309 184.751 72.825C184.145 72.8196 183.483 72.5479 182.716 71.9724L182.38 71.7068C176.393 66.7076 170.405 61.679 164.447 56.6501H164.448C163.89 56.1731 163.603 55.6994 163.536 55.2537C163.47 54.8209 163.601 54.3299 164.058 53.78L164.06 53.7781C165.946 51.4723 167.883 49.1784 169.991 47.0642L169.995 47.0583C171.627 45.3671 173.794 44.6809 176.365 44.6794Z" stroke="#00FFB6" stroke-width="0.888889"/>
</svg>
