<svg width="223" height="160" viewBox="0 0 223 160" fill="none" xmlns="http://www.w3.org/2000/svg">
<g clip-path="url(#clip0_40_215)">
<path d="M59.7876 6.48584C61.7202 6.48584 63.6022 6.4868 65.5435 6.54541V6.54443H125.566C128.523 6.54444 130.624 7.01141 131.956 8.34424C133.289 9.67845 133.739 11.7684 133.709 14.6997C133.709 35.6257 133.651 56.6063 133.709 77.5298V77.5308C133.709 79.6264 133.148 81.2533 131.852 82.8618C128.195 87.5683 125.807 92.9256 123.757 98.5522L123.756 98.5513C123.112 100.426 122.466 102.308 121.76 104.191L121.761 104.192C120.798 106.903 119.289 109.261 117.056 111.254C113.055 114.847 109.112 118.391 106.274 122.97L106.272 122.973C103.998 126.591 102.206 130.302 101.339 134.463C101.04 135.902 100.562 137.333 100.093 138.682C97.7877 145.848 90.8255 149.163 85.2153 149.104V149.105C73.4707 149.046 61.7877 149.105 50.0386 149.105H15.5044C13.7462 149.105 11.4192 149.311 9.27393 149.111C7.10775 148.908 4.96274 148.285 3.52783 146.53L3.5249 146.526C-0.353901 141.673 0.0502054 135.938 0.050293 130C0.0503444 129.186 0.221451 128.309 0.481934 127.245C0.751327 126.144 1.09554 124.916 1.50049 123.224C2.29475 119.905 3.25197 115.063 3.896 107.481C4.30558 88.4247 2.60648 65.4815 1.08154 51.6792C0.698921 49.9431 -0.200684 46.0356 -0.200684 42.5493C-0.200663 40.8023 0.0244041 39.099 0.699707 37.8179C1.04094 37.1706 1.50241 36.621 2.11572 36.2349C2.73075 35.8476 3.47264 35.6411 4.34619 35.6411H124.17L124.184 35.6421C124.592 35.6676 124.842 35.5847 124.984 35.4663C125.115 35.3569 125.233 35.1507 125.233 34.7388V32.1528C125.233 31.7432 125.116 31.5323 124.978 31.4136C124.828 31.2841 124.57 31.192 124.157 31.1919H6.66162L6.62842 31.187C5.49312 31.0166 4.29453 31.0161 2.99561 31.0161C2.43425 31.0161 1.93484 30.8834 1.5874 30.5132C1.24617 30.1493 1.13525 29.6441 1.13525 29.0962V10.1694C1.13525 9.3847 1.13875 8.75526 1.19678 8.271C1.25452 7.78922 1.37521 7.36118 1.68311 7.04736C1.99267 6.7319 2.41705 6.60752 2.89307 6.54834C3.36987 6.48908 3.98842 6.48584 4.75732 6.48584H59.7876ZM82.5952 127.434C82.7956 127.427 83.0232 127.426 83.2593 127.458C83.9275 127.516 84.5134 127.621 84.9087 127.974C85.3304 128.351 85.4323 128.904 85.4331 129.544L85.4663 132.237C85.4884 134.93 85.4772 137.623 85.4331 140.316C85.4324 140.979 85.3327 141.565 84.895 141.958C84.4774 142.334 83.8544 142.433 83.1216 142.462L83.1167 142.463C81.0536 142.522 78.9743 142.463 76.937 142.463H65.4263C61.3743 142.463 57.3532 142.463 53.3403 142.438L49.3286 142.405H47.7349L47.7212 142.404C47.1773 142.372 46.6734 142.241 46.3062 141.905C45.9259 141.557 45.771 141.063 45.771 140.485V129.375C45.771 128.836 45.9058 128.338 46.2573 127.975C46.6115 127.61 47.1136 127.456 47.689 127.456H82.0464C82.2136 127.456 82.37 127.442 82.5952 127.434ZM102.093 91.0503C102.093 90.4437 102.116 89.7335 102.417 89.1597C102.746 88.5304 103.359 88.1424 104.325 88.0737C104.401 88.0653 104.43 88.0467 104.437 88.0415C104.443 88.0373 104.451 88.03 104.458 88.0063C104.48 87.9427 104.481 87.8055 104.413 87.6226L104.407 87.6069C104.176 86.9144 103.89 86.1718 103.55 85.4917L103.544 85.48V85.479C98.021 73.6088 88.9673 66.0013 76.2983 62.8022H76.2974C75.598 62.6235 75.1099 62.5028 74.7544 62.4575C74.3845 62.4104 74.2886 62.4653 74.2651 62.4839C74.2377 62.5058 74.1621 62.5945 74.1128 62.9702C74.0654 63.3309 74.0545 63.8338 74.0396 64.5503L74.0376 64.5815C74.0247 64.7237 74.0209 64.8806 74.019 65.0552C74.0173 65.2239 74.017 65.414 74.0093 65.5962C73.9944 65.9458 73.9503 66.3758 73.7358 66.7192L73.6235 66.8989C73.4137 67.2736 73.4069 67.5806 73.4819 67.8765C73.58 68.2625 73.8122 68.63 74.0942 69.1313L78.5708 76.7153C82.2897 83.032 85.9894 89.3402 89.7446 95.6294L92.0054 99.4009L92.0073 99.4028H92.0063C92.4986 100.234 92.7988 101.027 92.8403 101.859C92.8819 102.693 92.6611 103.52 92.1958 104.421C89.379 109.942 86.6806 115.463 84.0991 121.042L84.0933 121.053C83.7196 121.801 83.2891 122.353 82.7056 122.707C82.1232 123.06 81.4433 123.183 80.6372 123.183H80.6313C75.5838 123.124 70.6015 123.183 65.5435 123.183H65.5376C60.4355 123.124 55.3337 123.124 50.4663 123.182L50.4673 123.183C49.685 123.214 49.015 123.107 48.4429 122.767C47.87 122.427 47.4522 121.886 47.1069 121.164L47.106 121.161C44.4061 115.404 41.7075 109.65 38.9507 103.956C38.5966 103.279 38.4391 102.624 38.4819 101.962C38.5246 101.304 38.7624 100.676 39.1392 100.047C43.6604 92.4664 48.124 84.8857 52.5874 77.3032L52.5913 77.2954H52.5923C54.2931 74.5367 55.9355 71.7766 57.5786 68.9575C57.6909 68.7648 57.7867 68.6123 57.8687 68.4507C57.9482 68.2938 57.9915 68.1692 58.0044 68.064C58.0159 67.9696 58.0038 67.8839 57.9517 67.7886C57.8954 67.6857 57.7794 67.548 57.5415 67.3843L57.4233 67.2915C57.3149 67.1918 57.234 67.0739 57.1724 66.9614C57.0891 66.8095 57.0269 66.6402 56.978 66.4771C56.882 66.1567 56.8174 65.7864 56.7622 65.5103C56.6956 65.1766 56.6808 64.8505 56.6733 64.5522C56.6656 64.2431 56.6654 63.9755 56.6382 63.7036C56.6095 63.4169 56.5767 63.2185 56.5337 63.0796C56.4915 62.9435 56.452 62.9043 56.438 62.8931C56.427 62.8843 56.3881 62.8571 56.2593 62.8521C56.1251 62.8468 55.9335 62.8667 55.6538 62.9224C54.2935 63.2183 52.9178 63.5068 51.6606 63.9644L51.6519 63.9673C40.3856 67.8034 32.6057 75.3515 27.7192 86.1226L27.7163 86.1304L27.7124 86.1382C27.5436 86.476 27.3765 86.8675 27.2671 87.1958L27.2632 87.2075C27.209 87.3568 27.1712 87.4857 27.1528 87.5952C27.1342 87.7065 27.1391 87.7739 27.1489 87.8101C27.1557 87.8349 27.1652 87.8506 27.1919 87.8696C27.2189 87.8888 27.273 87.9164 27.3716 87.939L27.4868 87.9595L27.4937 87.9604C28.1782 88.0632 28.6753 88.3533 28.981 88.8325C29.2706 89.2868 29.3452 89.8469 29.3452 90.4038V90.4116C29.3159 92.1705 29.3159 93.9154 29.3159 95.6646C29.3159 97.4126 29.3161 99.1654 29.2866 100.933C29.2865 101.284 29.2762 101.593 29.229 101.85C29.1806 102.114 29.0854 102.371 28.8784 102.572C28.6733 102.77 28.4122 102.861 28.145 102.907C27.8823 102.952 27.5645 102.961 27.1987 102.961L27.1997 102.962C23.6184 103.021 20.0282 103.081 16.437 103.022V103.021C16.0505 103.021 15.7137 103.003 15.4312 102.943C15.1417 102.881 14.876 102.768 14.6685 102.554C14.4617 102.341 14.3569 102.074 14.3013 101.791C14.247 101.513 14.2331 101.185 14.2329 100.816L14.1997 98.1763C14.1776 95.5439 14.1888 92.9278 14.2329 90.2788C14.2331 89.8624 14.2511 89.493 14.3101 89.1812C14.3693 88.8679 14.4772 88.5716 14.686 88.3394C15.122 87.855 15.8056 87.8435 16.564 87.9595C17.9797 88.154 18.9045 87.9106 19.5972 87.3735C20.2233 86.888 20.7122 86.1244 21.1743 85.0659L21.3706 84.5942C25.0472 75.2772 31.1609 67.9115 39.7622 62.687L39.8052 62.6606L39.853 62.644C39.9914 62.5979 40.1363 62.5159 40.1929 62.4683C40.2775 62.3606 40.3553 62.2518 40.437 62.1353C40.3615 62.1203 40.2918 62.1108 40.23 62.1108V62.1099C36.4079 62.2274 32.6662 62.2865 28.9165 62.4624L28.9116 62.4634V62.4624C28.5156 62.4771 28.2445 62.4993 28.0503 62.5396C27.8611 62.5788 27.7949 62.6261 27.7651 62.6567C27.7345 62.6884 27.689 62.7577 27.6528 62.9487C27.6159 63.1435 27.5983 63.4089 27.5835 63.7935L27.5815 63.8169C27.5543 64.1163 27.5542 64.4339 27.5542 64.7759C27.5542 65.1098 27.5545 65.4687 27.5229 65.8159L27.522 65.8149C27.4634 66.5721 27.3443 67.2139 26.9155 67.6431C26.4809 68.0781 25.8329 68.1936 25.0356 68.2231H25.0288C22.2629 68.282 19.4387 68.2827 16.6792 68.2827C15.2711 68.2827 13.9111 68.2824 12.4907 68.2231C11.7913 68.194 11.1855 68.0956 10.7983 67.6743C10.4184 67.2605 10.3564 66.6488 10.356 65.9585L10.2759 60.2622C10.2539 58.3766 10.2388 56.4977 10.2388 54.6187L10.2319 54.2056C10.2289 53.8101 10.2401 53.466 10.2808 53.1733C10.3353 52.7815 10.4494 52.4259 10.7026 52.1499C10.9589 51.8707 11.302 51.7325 11.687 51.6597C12.067 51.5878 12.5376 51.5708 13.0972 51.5708H24.8433C25.3544 51.5708 25.7817 51.5809 26.1245 51.6372C26.4728 51.6944 26.7924 51.8077 27.0376 52.0591C27.2784 52.3061 27.3913 52.6291 27.4575 52.978C27.5236 53.3259 27.5534 53.7629 27.5825 54.2866L27.6274 54.939C27.6433 55.1226 27.6611 55.2754 27.6851 55.4048C27.7327 55.662 27.7918 55.7547 27.8364 55.7983C27.8797 55.8406 27.9717 55.8974 28.229 55.9341C28.488 55.971 28.8443 55.978 29.3608 55.978C33.6182 55.9193 37.8906 55.862 42.1626 55.8032C46.4351 55.7444 50.7075 55.6852 54.9653 55.6265H54.9722C55.4758 55.6265 55.8182 55.6186 56.064 55.5835C56.308 55.5486 56.3845 55.4955 56.4155 55.4644C56.4491 55.4307 56.5011 55.3512 56.5435 55.1069C56.5858 54.8624 56.6064 54.5333 56.6362 54.0552C56.6657 53.4658 56.7075 52.9733 56.7964 52.5747C56.886 52.1725 57.0336 51.8206 57.3071 51.5522C57.5821 51.2826 57.9343 51.146 58.3345 51.0728C58.7278 51.0008 59.2091 50.9831 59.7808 50.9829L62.6567 50.9497C65.5397 50.9276 68.4397 50.9388 71.3062 50.9829H71.3052C71.7938 50.9831 72.2126 51.0044 72.561 51.0786C72.918 51.1546 73.2316 51.2923 73.478 51.5444C73.7215 51.7936 73.8572 52.1124 73.9419 52.4702C74.0257 52.8246 74.0676 53.2541 74.0972 53.7573V53.7603C74.127 54.3268 74.1519 54.7185 74.2036 55.0054C74.255 55.2901 74.3216 55.3964 74.3774 55.4497C74.4349 55.5044 74.5492 55.5681 74.8452 55.6118C75.1422 55.6557 75.5461 55.6702 76.1265 55.6851H76.1255C81.8215 55.8026 87.5202 55.9208 93.2192 56.0972H93.2241C95.9971 56.2153 98.7997 56.391 101.554 56.4497H101.558C102.077 56.4646 102.434 56.4664 102.691 56.436C102.946 56.4059 103.028 56.3512 103.062 56.3169C103.1 56.2792 103.157 56.1889 103.198 55.9214C103.239 55.655 103.253 55.2917 103.268 54.77V53.9429C103.297 53.1882 103.395 52.542 103.823 52.1245C104.251 51.7068 104.895 51.6299 105.648 51.6294L107.986 51.5952C110.324 51.5704 112.661 51.5708 114.995 51.5708C116.016 51.5708 117.119 51.5112 118.191 51.5708H118.19C118.852 51.5999 119.445 51.6837 119.837 52.0649C120.24 52.4559 120.318 53.0444 120.319 53.7183C120.378 57.8372 120.378 61.9568 120.319 66.0757V66.0874C120.29 66.7902 120.19 67.4021 119.779 67.8022C119.367 68.2033 118.756 68.2814 118.053 68.2817L118.054 68.2827C113.822 68.3415 109.589 68.3416 105.356 68.2827L105.343 68.2817C104.678 68.2528 104.105 68.1706 103.725 67.7788C103.534 67.5815 103.423 67.338 103.351 67.0747C103.28 66.8156 103.241 66.5104 103.211 66.1665L103.209 66.147V64.3784C103.195 63.9016 103.181 63.5691 103.144 63.3237C103.107 63.0776 103.056 62.9897 103.022 62.9517C102.994 62.9208 102.932 62.8703 102.724 62.8306C102.51 62.7895 102.211 62.7712 101.765 62.7563H101.764C98.4761 62.6388 95.2515 62.5221 92.0278 62.4634C91.9515 62.4637 91.8661 62.4797 91.7632 62.5083C91.841 62.5881 91.906 62.6476 91.9683 62.6851L91.9702 62.687C97.5463 66.0711 102.179 70.5269 105.625 76.0552C107.697 79.3151 109.352 82.866 110.936 86.3296C111.283 87.0534 111.614 87.5744 112.026 87.896C112.412 88.1973 112.915 88.3556 113.693 88.2534C113.845 88.2172 113.99 88.2221 114.086 88.229C114.239 88.2399 114.278 88.2495 114.348 88.2495H114.37L114.39 88.2515C115.011 88.3092 115.518 88.3554 115.909 88.436C116.301 88.517 116.658 88.6467 116.919 88.9312C117.18 89.2153 117.282 89.5855 117.331 89.9937C117.379 90.4014 117.382 90.9267 117.382 91.5796V100.514C117.382 101.041 117.372 101.485 117.318 101.842C117.263 102.201 117.156 102.533 116.917 102.791C116.673 103.051 116.351 103.175 115.997 103.239C115.647 103.302 115.215 103.316 114.701 103.316V103.315C111.412 103.374 108.064 103.374 104.775 103.315C104.304 103.315 103.905 103.302 103.581 103.244C103.252 103.185 102.951 103.072 102.717 102.838C102.485 102.606 102.373 102.305 102.31 101.984C102.248 101.666 102.226 101.277 102.211 100.823V100.816C102.153 97.5252 102.093 94.2879 102.093 91.0503ZM103.718 54.7827L104.167 54.7964C104.153 55.3029 104.138 55.7258 104.087 56.0581C104.037 56.3894 103.94 56.7111 103.699 56.9526C103.454 57.1975 103.132 57.29 102.796 57.3296C102.463 57.369 102.04 57.3637 101.532 57.3491V57.3481C98.7669 57.2892 95.9323 57.1135 93.186 56.9966V56.9956C87.4937 56.8194 81.8004 56.703 76.105 56.5854H76.103C75.5383 56.571 75.0752 56.5559 74.7134 56.5024C74.3511 56.4489 74.0135 56.3475 73.7554 56.1011C73.4956 55.8532 73.3821 55.5218 73.3179 55.1655C73.2541 54.8119 73.2276 54.3591 73.1987 53.8101C73.1696 53.3145 73.1307 52.9509 73.0659 52.6772C73.0019 52.4068 72.9213 52.2622 72.8345 52.1733C72.7506 52.0875 72.6201 52.012 72.3735 51.9595C72.1198 51.9054 71.7768 51.8823 71.2993 51.8823H71.2915C67.4788 51.8236 63.6072 51.8236 59.7944 51.8823H59.7876C59.217 51.8823 58.8046 51.9022 58.4966 51.9585C58.1942 52.0138 58.0364 52.0973 57.937 52.1948C57.8362 52.2938 57.7453 52.457 57.6753 52.771C57.6045 53.0886 57.5649 53.5142 57.5356 54.1001V54.106L57.0864 54.0776L57.5347 54.106C57.506 54.5652 57.4831 54.9547 57.4302 55.2603C57.3771 55.5665 57.2827 55.8692 57.0522 56.1001C56.8191 56.3335 56.513 56.4282 56.1919 56.4741C55.8725 56.5198 55.4662 56.5269 54.9722 56.5269V56.5259C50.7161 56.5846 46.445 56.6439 42.1743 56.7026C37.9018 56.7614 33.6294 56.8206 29.3716 56.8794H29.3647C28.856 56.8794 28.4351 56.8722 28.1021 56.8247C27.7669 56.7769 27.4514 56.6796 27.2085 56.4429C26.9669 56.2073 26.8608 55.8955 26.8003 55.5688C26.74 55.2436 26.713 54.8312 26.6841 54.3394V54.3384C26.6545 53.8047 26.6259 53.4261 26.5728 53.146C26.5197 52.8668 26.4531 52.7485 26.3931 52.687C26.3373 52.6299 26.2341 52.5669 25.979 52.5249C25.7182 52.4821 25.3596 52.4702 24.8433 52.4702H13.0972C12.5409 52.4702 12.1439 52.4896 11.854 52.5444C11.5697 52.5983 11.4398 52.6776 11.3657 52.7583C11.2887 52.8422 11.2152 52.9896 11.1724 53.2974C11.1293 53.607 11.1245 54.0224 11.1392 54.5952V54.6069C11.1392 58.3648 11.1976 62.1234 11.2563 65.9448V65.9517L11.2603 66.1997C11.2784 66.7331 11.3574 66.9524 11.4604 67.0649C11.5724 67.1869 11.8184 67.2941 12.5278 67.3237C13.9264 67.3821 15.2684 67.3823 16.6792 67.3823C19.438 67.3823 22.25 67.3822 25.0024 67.3237C25.7907 67.2945 26.1114 67.1747 26.2788 67.0073C26.451 66.835 26.5674 66.5094 26.6265 65.7407V65.7349C26.6537 65.4355 26.6538 65.1179 26.6538 64.7759C26.6538 64.4419 26.6535 64.083 26.6851 63.7358C26.6995 63.3665 26.718 63.045 26.7681 62.7808C26.82 62.507 26.9144 62.2416 27.1187 62.0308C27.3238 61.819 27.5878 61.7157 27.8677 61.6577C28.1423 61.6008 28.4796 61.5787 28.8745 61.564L30.2856 61.5024C33.5805 61.3712 36.8843 61.3131 40.2163 61.2104H40.23L40.3774 61.2173C40.7226 61.2475 41.0791 61.3746 41.3374 61.478L41.8999 61.7036L41.522 62.1763C41.4149 62.3102 41.3192 62.4457 41.2153 62.5942C41.1137 62.7396 41.0033 62.8982 40.8755 63.0581L40.8599 63.0776L40.8423 63.0952C40.6699 63.2678 40.3958 63.4019 40.1948 63.4761C31.7826 68.5953 25.8087 75.7994 22.2075 84.9263L22.2065 84.9282C21.6716 86.2668 21.063 87.3766 20.1489 88.0854C19.2118 88.8121 18.0214 89.068 16.4419 88.8511L16.4351 88.8501C15.6698 88.7323 15.4462 88.8405 15.355 88.9419C15.2996 89.0035 15.2383 89.119 15.1948 89.3491C15.1514 89.579 15.1323 89.8834 15.1323 90.2866V90.2944C15.0737 93.816 15.0737 97.2787 15.1323 100.8V100.808C15.1323 101.17 15.148 101.427 15.1851 101.617C15.2212 101.801 15.2712 101.883 15.314 101.927C15.356 101.971 15.4348 102.024 15.6187 102.063C15.8078 102.103 16.071 102.122 16.4448 102.122H16.4517C20.0256 102.18 23.6013 102.122 27.1851 102.063H27.1919C27.5573 102.063 27.8101 102.051 27.9917 102.02C28.1696 101.989 28.2288 101.947 28.2515 101.925C28.272 101.905 28.3128 101.854 28.3433 101.688C28.3747 101.517 28.3862 101.277 28.3862 100.925V100.918C28.4155 99.1594 28.4155 97.4139 28.4155 95.6646C28.4155 93.9189 28.4165 92.169 28.4458 90.4038L28.4321 90.0562C28.4047 89.735 28.3352 89.4932 28.2222 89.3159C28.088 89.1056 27.8526 88.9253 27.3677 88.8511V88.8521C27.1022 88.8166 26.863 88.74 26.6694 88.6021C26.4669 88.4577 26.34 88.2637 26.2808 88.0464C26.1737 87.6536 26.2993 87.2224 26.4165 86.8999C26.5419 86.5258 26.7251 86.0995 26.9067 85.7358C31.8862 74.7689 39.8418 67.0407 51.353 63.1187L51.855 62.9458C53.0384 62.5608 54.2899 62.2988 55.4634 62.0435L55.4702 62.0425H55.4712C55.7751 61.9817 56.0517 61.9432 56.2944 61.9526C56.5434 61.9624 56.7913 62.0234 57.0005 62.1909C57.2066 62.356 57.3215 62.5818 57.3931 62.813C57.4638 63.0414 57.5036 63.314 57.5337 63.6147C57.5652 63.9305 57.5658 64.2512 57.5728 64.5298C57.58 64.819 57.5943 65.0807 57.645 65.3345C57.7073 65.646 57.7602 65.952 57.8403 66.2192C57.8795 66.3499 57.9199 66.453 57.9614 66.5288C57.9829 66.568 58.0014 66.5935 58.0151 66.6099L58.0405 66.6353L58.0454 66.6382C58.3619 66.855 58.5965 67.0914 58.7417 67.3569C58.8913 67.6306 58.9304 67.9079 58.8979 68.1733C58.8668 68.428 58.7716 68.6604 58.6714 68.8579C58.5736 69.0506 58.4491 69.2509 58.356 69.4106C56.7118 72.2316 55.0656 74.9945 53.3618 77.7583L53.3628 77.7593C48.8994 85.3417 44.4346 92.9254 39.9116 100.509V100.51C39.5837 101.057 39.4111 101.547 39.3804 102.02C39.3537 102.431 39.4315 102.859 39.647 103.333L39.7485 103.539L39.7544 103.551C42.5157 109.255 45.2185 115.017 47.9194 120.776L48.0327 121C48.2998 121.495 48.582 121.803 48.9028 121.994C49.2703 122.212 49.7455 122.311 50.4312 122.284L50.4438 122.283C55.3215 122.224 60.4341 122.224 65.5464 122.283C70.5874 122.283 75.5867 122.224 80.6382 122.283C81.3583 122.283 81.8523 122.171 82.2388 121.937C82.6243 121.703 82.9575 121.314 83.2886 120.651C85.8736 115.065 88.5758 109.539 91.395 104.013L91.396 104.011C91.8108 103.209 91.9725 102.538 91.9409 101.904C91.9091 101.266 91.6794 100.618 91.2319 99.8618V99.8608C85.1828 89.8095 79.3066 79.6943 73.3198 69.5903L73.314 69.5815V69.5806C73.0698 69.1462 72.7461 68.6342 72.6099 68.0972C72.4619 67.5138 72.5276 66.9012 72.9731 66.2417C73.052 66.115 73.0963 65.8984 73.1108 65.5581C73.1178 65.3949 73.1177 65.2275 73.1196 65.0454C73.1214 64.8776 73.1246 64.6989 73.1392 64.5259C73.1535 63.8344 73.165 63.2737 73.2202 62.853C73.2735 62.4475 73.3814 62.0354 73.7065 61.7778C74.0355 61.5174 74.4608 61.513 74.8687 61.5649C75.291 61.6188 75.8381 61.7555 76.5181 61.9292C89.4513 65.1949 98.72 72.9841 104.356 85.0894L104.618 85.645C104.868 86.2077 105.082 86.7842 105.261 87.3228H105.26C105.364 87.6076 105.421 87.9633 105.312 88.2905C105.254 88.465 105.148 88.6302 104.983 88.7563C104.819 88.8814 104.622 88.9499 104.409 88.9712L104.395 88.9722C103.663 89.0227 103.368 89.282 103.213 89.5767C103.029 89.9284 102.994 90.4229 102.994 91.0503C102.994 94.2763 103.052 97.5032 103.111 100.793L103.14 101.384C103.153 101.552 103.171 101.693 103.194 101.812C103.24 102.047 103.3 102.148 103.354 102.202C103.407 102.254 103.505 102.315 103.74 102.357C103.979 102.4 104.307 102.416 104.775 102.416H104.784L107.255 102.449C109.734 102.471 112.23 102.46 114.693 102.416H114.701C115.214 102.416 115.575 102.4 115.836 102.353C116.093 102.307 116.2 102.239 116.258 102.177C116.32 102.111 116.386 101.987 116.428 101.707C116.471 101.425 116.483 101.045 116.483 100.514V91.5796C116.483 90.9102 116.478 90.4435 116.437 90.1001C116.396 89.7578 116.326 89.6165 116.256 89.5405C116.187 89.4651 116.056 89.3857 115.727 89.3179C115.397 89.2497 114.948 89.2077 114.306 89.1479V89.147C114.255 89.1454 114.206 89.1429 114.166 89.1392C114.107 89.1338 114.068 89.1297 114.023 89.1265C113.938 89.1204 113.907 89.1258 113.904 89.1265L113.863 89.1401L113.821 89.145C112.842 89.2756 112.084 89.0822 111.473 88.606C110.887 88.1487 110.483 87.4646 110.125 86.7192L110.122 86.7114C108.535 83.2417 106.902 79.7418 104.866 76.5386L104.863 76.5347C101.496 71.1316 96.9674 66.7716 91.5034 63.4556V63.4546C91.2967 63.3298 91.1273 63.1564 90.9976 63.0112C90.8473 62.8431 90.7624 62.7332 90.6548 62.6255L90.1411 62.1108L90.8315 61.8804C90.9102 61.8541 90.9903 61.824 91.0796 61.7905C91.1663 61.758 91.2625 61.7214 91.3599 61.689C91.5527 61.6246 91.7829 61.563 92.0308 61.563H92.0386C95.2735 61.6219 98.5084 61.7394 101.796 61.8569H101.795C102.231 61.8715 102.599 61.8905 102.893 61.9468C103.193 62.0043 103.48 62.112 103.695 62.353C103.903 62.5867 103.988 62.8846 104.034 63.1909C104.08 63.4984 104.094 63.8865 104.109 64.3501L104.11 64.3647V66.104C104.138 66.428 104.171 66.6621 104.219 66.8374C104.267 67.0113 104.321 67.0994 104.372 67.1519C104.475 67.2589 104.693 67.3518 105.368 67.3823H105.369C109.593 67.441 113.818 67.441 118.042 67.3823H118.048C118.752 67.3823 119.021 67.2843 119.151 67.1577C119.283 67.0288 119.39 66.7582 119.419 66.0503C119.478 61.9442 119.478 57.8381 119.419 53.7319V53.7251C119.419 53.05 119.321 52.8178 119.21 52.7104C119.09 52.5932 118.832 52.5001 118.146 52.4702H118.141C117.099 52.4122 116.087 52.4702 114.995 52.4702C111.881 52.4702 108.772 52.4701 105.665 52.5288L105.656 52.5298C104.885 52.5298 104.593 52.63 104.451 52.769C104.307 52.909 104.199 53.1999 104.168 53.9604V54.7964L103.718 54.7827ZM19.0483 19.5151C19.0483 18.5901 19.1069 17.823 19.0493 16.9585V16.9575C18.9926 16.3171 18.8585 15.9837 18.6665 15.7915C18.4779 15.6028 18.1478 15.4667 17.4829 15.439V15.438C15.7326 15.3797 13.9236 15.3796 12.1733 15.438L12.1743 15.439C11.4413 15.4672 11.0708 15.6074 10.8638 15.8101C10.6594 16.0102 10.5207 16.3631 10.4927 17.064C10.4344 18.7567 10.4344 20.508 10.4927 22.2007L10.5083 22.436C10.5558 22.9565 10.6821 23.2639 10.853 23.4517C11.0398 23.6567 11.3546 23.7999 11.9429 23.8267H11.9517V23.8276C13.7524 23.9439 15.6125 23.943 17.4731 23.8267H17.4819C18.0839 23.8005 18.4324 23.6352 18.647 23.3911C18.8714 23.1356 19.0208 22.7138 19.0483 22.0249L19.0493 22.0103C19.1067 21.2062 19.0483 20.4417 19.0483 19.5151ZM35.728 19.5151C35.728 18.5901 35.7866 17.823 35.729 16.9585H35.728C35.672 16.3262 35.5266 15.9731 35.3237 15.77C35.1281 15.5743 34.7994 15.439 34.1812 15.439H34.1665C32.3557 15.3805 30.4861 15.3805 28.6753 15.439L28.6743 15.438C28.1136 15.4657 27.7863 15.5978 27.5903 15.7847C27.3977 15.9684 27.2574 16.2778 27.231 16.8325C27.1728 18.6406 27.1728 20.5069 27.231 22.3149L27.2456 22.5142C27.2933 22.9566 27.4245 23.2502 27.6021 23.4409C27.8002 23.6537 28.1154 23.8012 28.6245 23.8267H28.6304V23.8276C30.4317 23.9439 32.292 23.9439 34.0933 23.8276L34.104 23.8267C34.738 23.8002 35.0859 23.6328 35.2993 23.395C35.5241 23.1445 35.6728 22.7365 35.729 22.0718C35.7866 21.2074 35.728 20.4401 35.728 19.5151ZM46.9253 14.48C47.3773 14.48 47.8604 14.48 48.3481 14.5376C49.238 14.537 50.2238 14.4808 51.0591 14.5396H51.0601C51.6985 14.5732 52.2559 14.779 52.6548 15.1782C53.0531 15.5771 53.2446 16.121 53.2476 16.7378H53.2485C53.3076 18.5111 53.3076 20.3434 53.2485 22.1167V22.1196C53.2167 22.8831 53.0229 23.5376 52.5728 24.0073C52.1194 24.4803 51.476 24.6938 50.7036 24.7261L50.7026 24.7251C48.9277 24.843 47.0947 24.8431 45.3198 24.7251V24.7261C44.6059 24.6936 44.004 24.4939 43.5796 24.0396C43.1607 23.591 42.9843 22.9676 42.9526 22.2388L42.9517 22.2349C42.8926 20.5199 42.8926 18.7457 42.9517 17.0308L42.9526 17.0278C42.9839 16.2474 43.1574 15.6084 43.6157 15.1597C44.0679 14.717 44.7134 14.5433 45.48 14.4819L45.4985 14.48H46.9253ZM45.5327 15.3804C44.8435 15.4377 44.4667 15.5867 44.2456 15.8032C44.0286 16.0157 43.8786 16.3752 43.8511 17.064C43.7928 18.7563 43.7929 20.5073 43.8511 22.1997L43.8667 22.4214C43.9157 22.9137 44.0511 23.2263 44.2368 23.4253C44.4438 23.6469 44.7827 23.8004 45.3608 23.8267H45.3696V23.8276C47.1116 23.9439 48.9128 23.9439 50.6548 23.8276L50.6655 23.8267C51.3023 23.8001 51.6867 23.6312 51.9233 23.3843C52.1632 23.1339 52.3222 22.7296 52.3491 22.0825C52.4074 20.3303 52.4075 18.5192 52.3491 16.7671V16.7524C52.3491 16.3174 52.2183 16.0145 52.0181 15.814C51.8149 15.6107 51.4906 15.4631 51.0132 15.438H51.0044C50.2015 15.3806 49.3179 15.439 48.3354 15.439H48.3071L48.2798 15.4351C47.8424 15.3803 47.3997 15.3804 46.9253 15.3804H45.5327ZM46.6704 140.485C46.6704 140.906 46.7799 141.118 46.9136 141.241C47.0589 141.374 47.3154 141.477 47.7622 141.504H49.3384C54.68 141.563 60.0226 141.563 65.4263 141.563H76.937C78.7517 141.563 80.5343 141.609 82.3237 141.581L83.0913 141.563C83.8228 141.533 84.1388 141.427 84.2935 141.289C84.4265 141.169 84.5327 140.934 84.5327 140.308V140.301C84.5914 136.721 84.5914 133.14 84.5327 129.559V129.551C84.5327 128.961 84.4288 128.753 84.3091 128.646C84.1611 128.514 83.8648 128.413 83.1821 128.354L83.1694 128.353L83.1577 128.351C82.9918 128.327 82.8173 128.326 82.6284 128.333C82.4572 128.34 82.2315 128.356 82.0464 128.356H47.689C47.2662 128.356 47.0341 128.467 46.9038 128.601C46.771 128.738 46.6704 128.974 46.6704 129.375V140.485ZM19.9487 19.5151C19.9487 20.3518 20.0078 21.2331 19.9478 22.0747L19.9468 22.0737C19.9142 22.8482 19.7418 23.5093 19.3228 23.9858C18.8913 24.4765 18.2698 24.6935 17.521 24.7261L17.52 24.7251C15.6284 24.843 13.7363 24.8432 11.9019 24.7251V24.7261C11.1982 24.6941 10.6023 24.5133 10.187 24.0571C9.78052 23.6104 9.62426 22.982 9.59326 22.2378V22.2349C9.53417 20.5199 9.53417 18.7457 9.59326 17.0308V17.0278C9.62401 16.2596 9.77872 15.6129 10.2349 15.1665C10.6885 14.7228 11.3464 14.5701 12.1401 14.5396H12.1421C13.914 14.4804 15.7452 14.4804 17.5171 14.5396H17.52C18.2645 14.5706 18.8752 14.7274 19.3032 15.1558C19.6739 15.5268 19.8412 16.0366 19.9185 16.6304L19.9468 16.8901L19.9478 16.8989C20.0076 17.7978 19.9487 18.6768 19.9487 19.5151ZM36.6284 19.5151C36.6284 20.3535 36.6863 21.2324 36.6265 22.1313V22.1392C36.5647 22.8804 36.3896 23.5281 35.9692 23.9966C35.5367 24.4785 34.9161 24.6938 34.1411 24.7261L34.1401 24.7251C32.3059 24.843 30.4137 24.8432 28.5796 24.7251V24.7261C27.9143 24.6928 27.3477 24.4878 26.9438 24.0542C26.5448 23.6256 26.3638 23.0368 26.3315 22.3579V22.3511C26.2725 20.5192 26.2725 18.6282 26.3315 16.7964V16.7896L26.3511 16.5405C26.4133 15.9699 26.5991 15.487 26.9702 15.1333C27.39 14.7334 27.9712 14.5714 28.6392 14.5396H28.646C30.4715 14.4806 32.3554 14.4799 34.1812 14.5386L34.4497 14.5464C35.0633 14.5827 35.5791 14.7518 35.9604 15.1333C36.3344 15.5075 36.516 16.025 36.5972 16.6265L36.6274 16.8989H36.6265C36.6863 17.7978 36.6284 18.6768 36.6284 19.5151ZM2.03564 29.0962C2.03564 29.5471 2.13013 29.7769 2.24365 29.8979C2.35137 30.0127 2.55854 30.1157 2.99561 30.1157C4.26753 30.1157 5.52261 30.1158 6.7251 30.2925H124.157C124.682 30.2925 125.188 30.4061 125.566 30.7319C125.957 31.0687 126.133 31.5632 126.133 32.1528V34.7388C126.133 35.3261 125.957 35.8262 125.56 36.1577C125.18 36.4741 124.678 36.5687 124.157 36.5405V36.5415H4.34619C3.61934 36.5415 3.04835 36.7113 2.59521 36.9966C2.14064 37.2828 1.77831 37.7015 1.49561 38.2378C0.92294 39.3242 0.699728 40.8505 0.699707 42.5493C0.699707 45.937 1.582 49.7666 1.96631 51.5122L1.97119 51.5356L1.97412 51.5601C3.50232 65.3845 5.20707 88.3884 4.79541 107.509V107.524L4.79443 107.538C4.14641 115.178 3.18145 120.07 2.37646 123.434C1.98147 125.085 1.60577 126.438 1.35596 127.458C1.09735 128.515 0.949759 129.302 0.949707 130C0.949618 136.06 0.589428 141.412 4.22803 145.964C5.43601 147.439 7.28276 148.02 9.35791 148.214C11.4556 148.41 13.6214 148.206 15.5044 148.206H50.0386C61.7814 148.206 73.4729 148.147 85.2202 148.206H85.2231C90.5364 148.263 97.0801 145.113 99.2378 138.408L99.2407 138.397C99.7104 137.046 100.171 135.659 100.458 134.28C101.354 129.977 103.203 126.164 105.51 122.494C108.427 117.788 112.47 114.161 116.456 110.583L116.457 110.583C118.569 108.697 119.997 106.469 120.914 103.89L120.916 103.883C121.618 102.009 122.262 100.134 122.909 98.2524L122.912 98.2437C124.973 92.5847 127.4 87.1257 131.142 82.3101L131.147 82.3032H131.148C132.314 80.8578 132.81 79.4304 132.81 77.5327L132.792 69.6821C132.764 51.36 132.81 33.0032 132.81 14.6948V14.6909C132.839 11.8031 132.379 10.0421 131.319 8.98096C130.257 7.91863 128.482 7.44483 125.566 7.44482H65.5298C63.5996 7.38628 61.7267 7.38623 59.7876 7.38623H4.75732C3.96998 7.38623 3.41306 7.38999 3.00342 7.44092C2.59364 7.49191 2.41992 7.58138 2.32568 7.67725C2.22991 7.77484 2.14088 7.95657 2.09033 8.37842C2.04009 8.79788 2.03564 9.3672 2.03564 10.1694V29.0962Z" fill="#00FFB6"/>
<path d="M219.134 -0.153288C220.022 -0.248515 220.797 -0.128302 221.432 0.283235C222.066 0.69434 222.496 1.35464 222.781 2.20902C222.902 2.57323 223.029 3.0134 223.093 3.46292L223.1 3.51175L223.096 3.56156C223.04 4.28478 223.095 4.9545 223.155 5.72562L223.158 5.75784L223.156 5.78909C222.917 9.4872 221.964 12.9985 220.966 16.5225L220.964 16.5293C217.724 27.3207 213.13 37.5739 208.312 47.6299V47.6309C201.844 61.0491 194.61 73.9963 186.614 86.5313L186.613 86.5332C183.201 91.8318 179.552 96.956 175.974 102.122L175.972 102.127C175.65 102.581 175.369 102.951 175.115 103.206C174.874 103.447 174.561 103.684 174.175 103.66C173.785 103.636 173.506 103.359 173.303 103.086C173.09 102.8 172.87 102.395 172.622 101.9L172.314 101.324C170.752 98.4589 168.924 95.8165 166.594 93.4844L166.592 93.4834L166.912 93.167L166.592 93.4825C161.664 88.4924 155.748 85.3545 149.059 83.5498L149.055 83.5489C146.557 82.8511 143.968 82.5662 141.285 82.0889V82.0879C140.874 82.0289 140.501 81.9683 140.066 81.8438L140.057 81.8409L140.047 81.8379C139.731 81.7325 139.409 81.5446 139.244 81.2149C139.068 80.862 139.135 80.4786 139.327 80.1338H139.327C139.574 79.6455 139.889 79.1971 140.16 78.7627L140.172 78.7451C145.704 70.7352 151.762 63.0808 158.113 55.666C167.87 44.2532 178.159 33.1909 189.037 22.833C195.603 16.5551 202.034 10.1191 209.466 4.8057C211.724 3.20026 214.285 1.88791 216.672 0.547883L216.676 0.544954C217.398 0.150594 218.351 -0.0339193 219.114 -0.151335L219.124 -0.152312L219.134 -0.153288ZM220.942 1.03909C220.535 0.775379 219.99 0.660434 219.237 0.740266C218.478 0.857558 217.677 1.02462 217.112 1.33206C214.683 2.69576 212.193 3.96967 209.988 5.53812L209.989 5.53909C202.621 10.8058 196.248 17.1838 189.659 23.4844L189.658 23.4854C178.806 33.8182 168.538 44.8572 158.797 56.251V56.252C152.462 63.6497 146.422 71.2787 140.912 79.2569C140.605 79.7484 140.342 80.1141 140.122 80.5537L140.119 80.5625L140.114 80.5713C140.062 80.6639 140.047 80.7259 140.043 80.7608C140.04 80.7911 140.045 80.8047 140.049 80.8125C140.06 80.8351 140.118 80.9103 140.325 80.9805C140.701 81.0876 141.027 81.1429 141.428 81.2002L141.436 81.2012L141.444 81.2032C144.046 81.6661 146.742 81.9684 149.293 82.6807L149.93 82.8575C156.489 84.723 162.333 87.8898 167.231 92.8487L167.704 93.334C169.885 95.6191 171.618 98.1679 173.104 100.894L173.418 101.48L173.423 101.488C173.673 101.988 173.863 102.331 174.025 102.548C174.197 102.78 174.261 102.764 174.23 102.762C174.203 102.76 174.269 102.78 174.478 102.57C174.673 102.375 174.914 102.062 175.238 101.605C178.823 96.4286 182.455 91.3274 185.855 86.0479L187.342 83.6983C194.732 71.9263 201.451 59.79 207.5 47.2412L208.4 45.3555C212.88 35.9172 217.083 26.3224 220.102 16.2705C221.098 12.7512 222.021 9.33545 222.255 5.75589C222.199 5.03025 222.141 4.31814 222.195 3.54886C222.14 3.18883 222.036 2.82158 221.927 2.4932C221.683 1.76067 221.35 1.30394 220.942 1.03909Z" fill="#00FFB6"/>
<path d="M130.745 112.724C134.312 112.632 137.907 113.595 141.506 115.434L142.226 115.813L142.229 115.816C145.244 117.492 147.962 119.649 149.977 122.394L150.37 122.95V122.951C154.292 128.749 154.223 134.869 150.921 140.878C148.941 144.482 146.007 147.352 142.675 149.616L142.674 149.615C134.507 155.241 125.395 158.557 115.582 159.859L115.581 159.858C115.26 159.912 114.935 159.974 114.556 159.978L114.557 159.979C112.893 160.098 111.219 160.039 109.599 160.038C105.747 160.274 101.942 159.977 98.248 158.904V158.903C97.1 158.599 95.8974 158.119 94.874 157.576L94.8672 157.573L94.8613 157.57C94.2288 157.208 93.7188 156.736 93.7314 156.097C93.7377 155.785 93.8717 155.506 94.0615 155.264C94.2504 155.023 94.5131 154.796 94.8262 154.576C96.5177 153.368 98.2696 152.356 99.706 150.976L99.709 150.973C102.694 148.158 104.603 144.583 106.119 140.788C107.288 137.864 108.282 134.878 109.281 131.878C111.239 125.882 114.338 120.619 119.544 116.786L119.545 116.785C123.193 114.122 126.936 112.822 130.745 112.724ZM130.768 113.624C127.162 113.717 123.593 114.945 120.076 117.513C115.064 121.204 112.055 126.284 110.137 132.16L110.136 132.162C109.138 135.158 108.135 138.169 106.955 141.122C105.418 144.969 103.45 148.683 100.327 151.628C98.8285 153.067 96.9419 154.17 95.3467 155.311L95.3428 155.314C95.0688 155.506 94.8834 155.675 94.7695 155.82C94.6568 155.963 94.633 156.059 94.6318 156.115C94.6299 156.209 94.7064 156.441 95.2959 156.781L95.667 156.971C96.5502 157.407 97.5431 157.787 98.4883 158.036L98.499 158.039C102.081 159.08 105.787 159.372 109.563 159.139H109.591C111.257 159.139 112.869 159.197 114.492 159.081L114.509 159.079H114.524C114.83 159.079 115.08 159.03 115.449 158.968L115.456 158.967L115.464 158.966C125.148 157.681 134.124 154.413 142.166 148.872L142.169 148.871C145.414 146.667 148.236 143.895 150.132 140.445C153.29 134.698 153.338 128.944 149.625 123.455V123.454C147.678 120.589 144.919 118.341 141.792 116.602V116.601C138.057 114.573 134.376 113.531 130.768 113.624Z" fill="#00FFB6"/>
<path d="M140.265 88.4263C146.703 88.6649 152.482 90.8135 157.713 94.5015L158.43 95.0103C161.858 97.5065 164.742 100.522 166.756 104.324L166.961 104.719L166.962 104.722C168.663 108.127 168.805 111.543 166.515 114.765C164.984 116.946 163.325 119.023 161.751 121.123L161.738 121.14C161.414 121.53 161.028 121.849 160.681 122.138L160.666 122.151L160.651 122.162C159.639 122.867 158.663 123.222 157.728 123.051C156.787 122.879 156.02 122.199 155.371 121.148L155.37 121.146C154.095 119.059 152.654 117.216 150.817 115.607C145.817 111.222 140.065 108.529 133.497 107.68L132.858 107.604C131.799 107.486 130.753 107.37 129.71 107.312L129.702 107.311H129.693C128.717 107.217 127.927 106.891 127.447 106.26C126.965 105.627 126.873 104.787 127.063 103.835L127.064 103.83C127.242 102.996 127.486 102.075 127.859 101.266C129.208 98.3298 130.566 95.3765 132.161 92.48C132.999 90.8681 134.174 89.8137 135.58 89.1851C136.803 88.6378 138.183 88.4208 139.637 88.4155L140.265 88.4263ZM140.232 89.3247C138.628 89.2675 137.176 89.4563 135.947 90.0063C134.727 90.552 133.701 91.4646 132.955 92.9038L132.95 92.9136L132.555 92.6968L132.949 92.9136C131.766 95.0613 130.715 97.2434 129.693 99.4409L128.676 101.643C128.346 102.36 128.118 103.201 127.945 104.011C127.783 104.823 127.897 105.365 128.164 105.716C128.432 106.069 128.935 106.333 129.779 106.415H129.778C130.844 106.474 131.908 106.593 132.957 106.709C139.983 107.484 146.118 110.287 151.411 114.93C153.331 116.612 154.827 118.531 156.136 120.675L156.356 121.006C156.867 121.726 157.378 122.072 157.89 122.166C158.479 122.273 159.2 122.071 160.119 121.434C160.47 121.141 160.786 120.876 161.045 120.564C162.639 118.439 164.263 116.408 165.781 114.246L165.782 114.244C167.837 111.353 167.745 108.304 166.159 105.126L165.961 104.746C163.891 100.837 160.854 97.7734 157.201 95.2417L157.198 95.2388C152.093 91.6392 146.479 89.5572 140.232 89.3257V89.3247Z" fill="#00FFB6"/>
<path d="M67.5601 71.6535C67.5601 70.7767 67.5598 69.8575 67.5035 68.9406C67.4765 68.728 67.4236 68.4668 67.355 68.2609C67.3288 68.1824 67.303 68.1231 67.2818 68.0812C66.2624 67.9247 65.29 67.8347 64.3794 67.967C64.3774 67.9706 64.3757 67.9747 64.3736 67.9787C64.3256 68.0683 64.2718 68.2075 64.2212 68.383C64.1198 68.7351 64.0553 69.1478 64.0552 69.4191V69.4269C63.9966 72.8905 64.0552 76.286 64.0552 79.7648V89.9142L64.0601 90.1808C64.0594 90.7939 63.9562 91.3439 63.6802 91.8254C63.3622 92.38 62.8487 92.7874 62.147 93.1066L62.1421 93.1086C60.26 93.9398 58.9025 95.4181 58.4663 97.4914L58.4654 97.4953C57.7162 100.924 59.3935 104.077 62.6167 105.378L62.9331 105.498L62.9361 105.499C66.3218 106.721 70.0745 105.324 71.6656 102.359C72.2976 101.175 72.6734 99.4818 72.4107 97.8068C72.1503 96.1474 71.2654 94.5069 69.3658 93.3771V93.3762C68.665 92.9907 68.1831 92.522 67.8863 91.9279C67.5922 91.3392 67.5015 90.6714 67.5015 89.9338V89.9299C67.5602 83.8193 67.5601 77.7669 67.5601 71.6535ZM68.4595 71.6535C68.4595 77.7662 68.4597 83.8231 68.4009 89.9387C68.4013 90.6094 68.4873 91.116 68.6919 91.5256C68.8672 91.8764 69.1462 92.1889 69.604 92.4748L69.8111 92.5959L69.8189 92.5998L69.8257 92.6037C71.9784 93.8839 73.0017 95.7705 73.2994 97.6672C73.5944 99.5479 73.1779 101.439 72.4595 102.783L72.4585 102.784C70.6435 106.167 66.4111 107.708 62.6324 106.345V106.346C58.7791 104.977 56.7155 101.288 57.5865 97.3029C58.0904 94.9129 59.6663 93.2195 61.774 92.2873L61.9839 92.1848C62.4469 91.943 62.7275 91.6771 62.899 91.3781C63.0974 91.0321 63.1832 90.584 63.1558 89.9533L63.1548 89.9435V79.7648C63.1548 76.3078 63.096 72.8846 63.1548 69.4123C63.1559 69.0378 63.2381 68.5432 63.356 68.134C63.4155 67.9276 63.49 67.7214 63.5796 67.5539C63.6242 67.4707 63.6809 67.3812 63.7525 67.3039C63.8198 67.2312 63.9359 67.1305 64.104 67.0969L64.1109 67.0959L64.1187 67.0949C65.2518 66.9059 66.4285 67.0347 67.5513 67.2121L67.5708 67.215L67.5904 67.2199C67.8289 67.2796 67.9654 67.4686 68.0288 67.5715C68.1051 67.695 68.1639 67.8399 68.2095 67.9767C68.2787 68.1845 68.3318 68.4187 68.3677 68.631L68.398 68.8351L68.3999 68.8488V68.8625C68.4597 69.8192 68.4595 70.7739 68.4595 71.6535Z" fill="#00FFB6"/>
<path d="M22.3377 59.7793C22.3377 58.7143 22.3587 57.9781 22.325 57.4317C22.2906 56.8744 22.2018 56.6647 22.0994 56.5606C21.9972 56.4567 21.7861 56.3608 21.2176 56.3184C20.6617 56.2769 19.8976 56.2911 18.7938 56.2911C17.6751 56.2911 16.9039 56.277 16.3455 56.3194C15.7739 56.3628 15.5683 56.4608 15.4705 56.5635C15.3699 56.6695 15.2838 56.8835 15.2537 57.4522C15.2243 58.0099 15.2498 58.7559 15.2498 59.8379C15.2498 60.9059 15.2243 61.6412 15.2537 62.1905C15.2838 62.7507 15.3699 62.9576 15.4686 63.0596C15.5661 63.1604 15.7719 63.2573 16.3446 63.2998C16.9034 63.3414 17.6752 63.3262 18.7938 63.3262C19.9125 63.3262 20.6837 63.3412 21.242 63.2989C21.8134 63.2555 22.0182 63.1574 22.116 63.0547C22.2168 62.9489 22.3037 62.7353 22.3338 62.1661C22.3633 61.6083 22.3377 60.8617 22.3377 59.7793ZM23.2371 59.7793C23.2371 60.8129 23.2633 61.6245 23.2323 62.2129C23.2018 62.7897 23.1154 63.3114 22.7684 63.6758C22.4184 64.0432 21.9003 64.1515 21.3104 64.1963C20.707 64.2421 19.8774 64.2266 18.7938 64.2266C17.71 64.2266 16.8811 64.2421 16.2782 64.1973C15.6894 64.1535 15.1724 64.0474 14.8221 63.6856C14.473 63.3247 14.3858 62.8076 14.3553 62.2383C14.3242 61.6579 14.3504 60.8566 14.3504 59.8379C14.3504 58.8044 14.3242 57.9927 14.3553 57.4043C14.3858 56.8276 14.4722 56.3068 14.8192 55.9424C15.1691 55.5749 15.6872 55.4667 16.2772 55.4219C16.8806 55.3761 17.7101 55.3916 18.7938 55.3916C19.8628 55.3916 20.6847 55.3761 21.285 55.4209C21.8722 55.4648 22.3881 55.5709 22.741 55.9297C23.0939 56.2885 23.1881 56.8036 23.2235 57.376C23.2595 57.9592 23.2371 58.7583 23.2371 59.7793Z" fill="#00FFB6"/>
<path d="M107.379 57.1935C107.379 56.6814 107.547 56.2411 107.887 55.9337C108.22 55.6328 108.663 55.5089 109.121 55.5089C110.862 55.5089 112.71 55.4499 114.481 55.5089L114.48 55.5099C115.007 55.5127 115.463 55.675 115.781 56.0363C116.091 56.3904 116.208 56.8665 116.208 57.3693V57.3868L116.206 57.4044C116.149 58.1482 116.15 58.9533 116.15 59.7208V62.3068C116.15 62.8597 115.993 63.3561 115.636 63.713C115.279 64.0699 114.783 64.2267 114.231 64.2267H109.063C108.588 64.2267 108.155 64.0782 107.841 63.7638C107.527 63.4494 107.379 63.0171 107.379 62.5421V57.1935ZM108.28 62.5421C108.28 62.8311 108.366 63.0163 108.478 63.1281C108.589 63.2398 108.774 63.3263 109.063 63.3263H114.231C114.618 63.3263 114.857 63.2189 114.999 63.0763C115.142 62.9336 115.249 62.6941 115.249 62.3068V59.7208C115.249 58.9674 115.248 58.1355 115.307 57.3575C115.305 56.986 115.217 56.7603 115.104 56.631C114.998 56.5106 114.814 56.4093 114.466 56.4093H114.458L114.45 56.4083C112.697 56.3499 110.904 56.4093 109.121 56.4093C108.816 56.4093 108.613 56.4912 108.49 56.6017C108.375 56.7059 108.28 56.8831 108.28 57.1935V62.5421Z" fill="#00FFB6"/>
<path d="M68.7932 61.8364V56.8989C68.7931 56.535 68.6975 56.3278 68.5803 56.2104C68.4631 56.0932 68.2563 55.9976 67.8928 55.9976H62.7834C62.3831 55.9976 62.1467 56.0972 62.01 56.23C61.8757 56.3605 61.7649 56.5934 61.7649 57.0171V61.896C61.7649 62.2745 61.8542 62.5036 61.969 62.6343C62.0747 62.7547 62.2587 62.8559 62.6067 62.856H62.6145L62.6223 62.8569C64.315 62.9154 66.0077 62.9153 67.7004 62.8569L67.7083 62.856H67.7161C68.0812 62.856 68.3448 62.7592 68.511 62.6108C68.6689 62.4698 68.7932 62.2339 68.7932 61.8364ZM69.6936 61.8364C69.6936 62.438 69.4948 62.9379 69.1096 63.2817C68.7361 63.6152 68.2415 63.7528 67.7307 63.7554L67.7317 63.7563C66.0182 63.8155 64.3045 63.8155 62.5911 63.7563V63.7554C62.0649 63.7522 61.6091 63.5897 61.2922 63.229C60.9813 62.8749 60.8646 62.3988 60.8645 61.896V57.0171C60.8645 56.4415 61.0182 55.9389 61.3831 55.5845C61.7455 55.2324 62.2443 55.0972 62.7834 55.0972H67.8928C68.41 55.0972 68.8792 55.2365 69.217 55.5747C69.5547 55.9128 69.6935 56.3817 69.6936 56.8989V61.8364Z" fill="#00FFB6"/>
</g>
<defs>
<clipPath id="clip0_40_215">
<rect width="223" height="160" fill="white"/>
</clipPath>
</defs>
</svg>
