<svg width="180" height="232" viewBox="0 0 180 232" fill="none" xmlns="http://www.w3.org/2000/svg">
<path d="M73.2507 167.4C73.1681 169.005 73.003 170.611 73.0443 172.216C73.2094 179.997 72.8791 187.737 71.021 195.312C70.3603 197.988 69.4932 200.582 68.7499 203.217C68.2131 205.152 66.9331 205.934 64.9098 205.893C59.9547 205.81 54.9997 205.851 50.0447 205.851C40.1347 205.893 30.2246 205.934 20.3146 205.975C17.0526 205.975 16.1854 204.905 17.6719 201.982C20.6037 196.177 23.7831 190.495 26.9213 184.773C28.4904 181.891 30.3072 179.092 31.7937 176.169C32.7434 174.316 33.9409 173.616 36.0055 173.657C41.4973 173.781 46.3285 172.134 50.0447 167.935C52.77 164.847 54.1326 161.224 53.3481 156.901C53.059 157.354 52.7287 157.807 52.4396 158.301C48.806 165.135 42.9425 167.852 35.3861 167.564C31.6699 167.4 27.9536 166.823 24.3199 167.235C21.4295 167.564 18.6629 169.129 15.8551 170.199C15.5248 170.323 15.277 170.57 14.988 170.775C8.83549 174.851 4.45856 173.493 2.35267 166.329C1.27909 162.706 0.990044 158.795 0.535834 155.008C0.288083 153.073 1.36167 151.632 2.88947 150.479C11.1065 144.139 19.2823 137.799 27.4994 131.418C30.1834 129.359 30.1421 129.153 28.9446 125.901C28.0775 123.513 27.2929 121.084 26.6323 118.655C26.4258 117.873 26.6323 116.967 26.6736 116.144C27.4581 116.267 28.2839 116.185 29.0272 116.473C34.3538 118.491 39.2263 121.249 43.3554 125.242C43.7271 125.613 44.2226 125.901 45.1723 126.642C44.7594 125.16 44.5116 124.213 44.2226 123.349C43.4793 121.208 42.6535 119.108 41.9928 116.926C41.7451 116.144 41.9515 115.238 41.9928 114.374C42.8186 114.415 43.7684 114.209 44.5116 114.456C55.743 118.285 64.1665 125.489 70.1125 135.658C76.5128 146.609 79.8161 158.63 81.7568 171.022C82.7478 177.527 83.4085 184.073 84.1105 190.619C84.4408 193.748 83.202 195.148 80.1877 195.395C77.1321 195.642 75.8934 194.365 76.0999 191.319C76.6779 183.661 76.0586 176.127 74.1591 168.676C74.0353 168.223 73.8701 167.811 73.7049 167.358C73.5398 167.358 73.4159 167.4 73.2507 167.4ZM31.835 145.292C32.0415 145.251 32.537 145.333 32.8673 145.127C33.8996 144.427 34.8493 143.645 35.799 142.904C34.8493 142.286 33.8996 141.628 32.8673 141.092C32.4957 140.887 31.9176 140.928 31.4634 141.01C30.0182 141.257 28.2839 141.216 27.9123 143.151C27.7058 144.345 29.564 145.333 31.835 145.292Z" stroke="#00FFB6" stroke-miterlimit="10"/>
<path d="M98.0258 129.853C84.5647 130.224 73.5811 124.748 63.4646 116.432C55.3714 109.804 49.8795 101.817 47.1543 91.8541C41.6212 71.5578 50.5402 48.8736 68.4609 37.7167C85.597 27.0539 107.523 27.5068 123.585 38.8695C125.485 40.1869 125.526 40.5162 123.874 42.163C120.819 45.1272 117.681 48.009 114.666 51.0144C113.262 52.4553 112.024 52.4141 110.289 51.5907C98.6452 46.0741 87.3725 46.6504 76.6366 53.8962C64.0013 62.4182 59.9135 81.109 67.5524 94.3243C73.4572 104.534 82.1697 110.298 93.814 111.656C117.887 114.497 136.097 91.0308 127.219 68.5524C126.393 66.4116 126.558 65.053 128.293 63.5709C131.555 60.7303 134.652 57.6838 137.831 54.8019C139.689 53.114 140.02 53.1963 141.258 55.4606C144.52 61.3478 146.791 67.5232 147.617 74.2338C149.269 88.0254 146.255 100.623 137.336 111.409C127.219 123.719 113.923 129.689 98.0258 129.853Z" stroke="#00FFB6" stroke-miterlimit="10"/>
<path d="M130.481 31.1708C127.013 29.3182 124.04 27.6303 120.984 26.107C94.2682 12.8917 60.0786 22.5665 44.429 47.8855C37.3681 59.2894 34.6016 71.7224 35.7165 85.1024C36.2533 91.4836 37.9049 97.4943 40.465 103.299C41.1257 104.822 40.8779 105.646 39.5153 106.716C36.9139 108.816 34.519 109.063 31.2157 107.951C28.1601 106.922 26.591 105.399 25.7238 102.393C20.6037 84.1967 21.0992 66.3293 29.0685 48.9559C37.6985 30.0593 52.1919 17.5439 71.7642 11.1626C92.1624 4.49324 112.065 6.09883 130.935 16.8028C133.495 18.2437 133.289 18.2026 132.092 20.8786C131.266 22.69 130.894 24.7485 130.522 26.7246C130.316 28.0832 130.481 29.4417 130.481 31.1708Z" stroke="#00FFB6" stroke-miterlimit="10"/>
<path d="M83.6975 138.293C86.7118 138.622 89.1893 138.952 91.7081 139.199C110.868 140.969 127.756 135.658 141.713 122.402C151.581 113.015 157.032 101.158 158.436 87.4902C159.716 74.9336 157.403 63.2004 151.21 52.2083C150.921 51.7142 150.755 51.1379 150.425 50.3145C151.457 50.1498 152.242 49.9028 153.026 49.9028C155.917 49.8616 158.436 48.9147 160.542 47.021C161.904 45.7447 162.689 46.0741 163.515 47.5973C169.997 60.1127 172.723 73.328 171.649 87.3667C170.865 97.7413 167.892 107.457 162.771 116.473C156.289 127.918 147.039 136.729 135.519 143.027C121.48 150.685 106.491 153.773 90.5107 152.208C88.9416 152.043 88.0745 151.467 87.579 149.903C86.6705 146.98 85.5144 144.098 84.4821 141.175C84.193 140.351 84.0279 139.569 83.6975 138.293Z" stroke="#00FFB6" stroke-miterlimit="10"/>
<path d="M152.159 44.5096C149.352 43.8921 147.163 43.4804 145.057 42.904C143.571 42.4923 142.456 42.7805 141.3 43.8509C129.077 55.4195 116.814 66.9468 104.591 78.5153C101.825 81.1502 99.3058 81.5619 97.4064 79.6269C95.5483 77.7331 96.0025 75.1806 98.8104 72.5046C110.62 61.2243 122.429 49.9028 134.321 38.7048C136.056 37.058 136.758 35.4113 136.179 33.0646C135.725 31.1297 135.684 29.1124 135.395 27.1363C134.941 23.8427 135.89 21.0432 138.327 18.7378C144.107 13.2623 149.888 7.7456 155.669 2.27011C155.999 1.94075 156.371 1.6114 156.784 1.32322C158.642 -0.0765339 159.881 0.293988 160.335 2.55829C161.078 6.30468 161.822 10.0922 162.276 13.921C162.565 16.2676 163.597 17.2557 165.827 17.6674C169.502 18.2849 173.136 19.0671 176.728 19.8905C179.371 20.4669 179.866 21.8254 177.925 23.7192C171.608 29.8946 165.249 36.1111 158.601 41.9571C156.867 43.4804 154.017 43.7686 152.159 44.5096Z" stroke="#00FFB6" stroke-miterlimit="10"/>
<path d="M46.5762 231.088C34.2712 231.088 21.9663 231.088 9.62003 231.088C6.06894 231.088 5.61473 230.635 5.57344 227.054C5.57344 225.489 5.53214 223.884 5.57344 222.319C5.77989 216.473 10.3633 211.944 16.2267 211.903C36.0468 211.78 55.8669 211.697 75.6456 211.697C83.1195 211.697 87.4138 216.103 87.4138 223.554C87.4138 224.995 87.4138 226.436 87.4138 227.877C87.3725 230.594 86.8357 231.129 84.1105 231.129C71.6403 231.088 59.1289 231.088 46.5762 231.088Z" stroke="#00FFB6" stroke-miterlimit="10"/>
<path d="M95.6722 55.8723C98.3974 56.4487 101.205 56.9015 103.848 57.6838C106.16 58.3836 106.284 59.2893 104.55 60.9773C100.627 64.806 96.8283 68.8406 92.6992 72.4223C88.7351 75.8805 89.7261 81.603 92.0798 84.032C95.3005 87.3667 101.205 87.7372 104.632 84.6084C108.266 81.2737 111.776 77.7743 115.368 74.3573C115.864 73.8632 116.359 73.4104 116.855 72.9163C118.672 71.2696 119.539 71.4342 119.91 73.9044C120.365 77.0744 120.86 80.3268 120.447 83.4556C118.341 99.5528 99.3471 108.528 85.1015 100.541C75.274 95.0242 70.1951 83.6203 73.3333 72.6282C76.1411 62.9122 85.2253 56.2428 95.6722 55.8723Z" stroke="#00FFB6" stroke-miterlimit="10"/>
</svg>
