<svg width="225" height="175" viewBox="0 0 225 175" fill="none" xmlns="http://www.w3.org/2000/svg">
<g clip-path="url(#clip0_40_237)">
<path d="M146.005 171.777C145.941 171.826 145.903 171.894 145.887 171.956C145.875 172.001 145.877 172.039 145.877 172.015H146.06V171.743C146.044 171.751 146.025 171.761 146.005 171.777ZM169.685 88.429C169.685 86.3681 169.343 85.0786 168.612 84.2864C167.888 83.5015 166.695 83.1119 164.74 83.0842H164.739C157.387 82.9716 150.035 82.9156 142.685 82.9719H142.682C140.421 82.9719 139.054 83.3794 138.232 84.2473C137.405 85.1216 137.034 86.5613 137.034 88.8801C137.034 100.427 137.02 111.973 137.007 123.52C136.993 135.066 136.979 146.613 136.979 158.159C136.979 160.671 137.089 163.237 136.925 165.788V165.792C136.892 166.235 136.702 166.758 136.45 167.195C136.207 167.616 135.848 168.058 135.413 168.221L135.406 168.224L135.399 168.226C133.682 168.799 132.283 168.84 131.313 168.11C130.35 167.384 129.97 166.013 129.97 164.186V115.184C129.97 114.084 130.021 113.129 129.814 112.169V112.168C129.54 110.906 128.856 110.056 127.778 109.563C126.676 109.058 125.128 108.909 123.119 109.158L123.12 109.159C122.52 109.237 122.174 109.411 121.969 109.606C121.767 109.797 121.658 110.048 121.612 110.368C121.565 110.697 121.588 111.07 121.629 111.48C121.668 111.871 121.726 112.313 121.726 112.705V112.709C121.671 117.691 121.671 122.66 121.671 127.631C121.671 132.601 121.672 137.575 121.617 142.562C121.617 145.472 121.175 148.43 120.517 151.265C118.688 159.17 113.846 164.476 106.171 166.431C102.222 167.451 98.109 168.075 94.0488 168.245L94.0498 168.246C86.6937 168.584 79.3049 168.359 71.9814 168.471C71.5793 168.486 71.1064 168.449 70.6865 168.432C70.2464 168.414 69.8404 168.415 69.4931 168.486C69.152 168.555 68.9025 168.684 68.7344 168.898C68.5646 169.113 68.4321 169.472 68.4443 170.09C68.4564 170.616 68.5908 170.936 68.7627 171.139C68.9362 171.344 69.1874 171.476 69.5195 171.555C69.8554 171.635 70.2471 171.654 70.668 171.649C70.8767 171.646 71.0858 171.638 71.2959 171.63C71.5038 171.622 71.714 171.615 71.9131 171.615H146.678V171.728H200.267C207.51 171.728 214.809 171.671 222.055 171.615H222.059C222.671 171.614 223.191 171.542 223.557 171.325C223.884 171.131 224.141 170.789 224.164 170.086C224.188 169.354 223.948 169.008 223.64 168.81C223.287 168.584 222.77 168.5 222.149 168.472H222.145C220.142 168.36 218.192 168.36 216.175 168.36C215.258 168.36 214.531 168.356 213.975 168.286C213.418 168.217 212.951 168.072 212.616 167.722C212.285 167.375 212.15 166.894 212.084 166.318C212.018 165.738 212.016 164.98 212.016 164.017C212.016 147.204 212.029 130.404 212.043 113.606C212.057 96.807 212.069 80.0081 212.069 63.1956C212.069 60.6765 211.684 59.1265 210.796 58.1829C209.913 57.245 208.438 56.8085 205.982 56.7805V56.7796C198.085 56.7233 190.191 56.7805 182.288 56.7805C180.378 56.7805 179.102 57.2071 178.283 58.0413C177.461 58.8795 177.021 60.2078 176.968 62.1926C176.913 65.2852 176.968 68.3692 176.968 71.4758C176.968 86.9371 176.954 102.385 176.94 117.824C176.927 133.264 176.913 148.697 176.913 164.129C176.913 165.082 176.9 165.836 176.818 166.416C176.736 166.996 176.577 167.474 176.228 167.816C175.878 168.158 175.401 168.302 174.836 168.368C174.271 168.435 173.544 168.429 172.639 168.415V168.414C171.642 168.413 170.852 168.194 170.34 167.629C169.831 167.068 169.683 166.26 169.739 165.294C169.793 164.066 169.739 162.916 169.739 161.652C169.685 137.206 169.685 112.817 169.685 88.429ZM212.861 88.4065L212.824 138.807C212.819 147.208 212.815 155.611 212.815 164.017C212.815 164.996 212.819 165.703 212.879 166.227C212.939 166.754 213.049 167.016 213.195 167.169C213.338 167.319 213.578 167.431 214.074 167.493C214.57 167.556 215.24 167.56 216.175 167.56C218.187 167.56 220.158 167.559 222.185 167.672C222.816 167.701 223.526 167.786 224.072 168.137C224.662 168.516 224.995 169.156 224.964 170.113V170.114C224.933 171.044 224.563 171.659 223.965 172.014C223.404 172.346 222.699 172.415 222.059 172.415V172.414C214.814 172.471 207.513 172.528 200.267 172.528H146.06V172.415H71.9131C71.731 172.415 71.5354 172.421 71.3262 172.429C71.1192 172.437 70.8986 172.446 70.6777 172.449C70.2389 172.454 69.7685 172.436 69.3349 172.333C68.8978 172.229 68.4708 172.032 68.1523 171.656C67.8322 171.278 67.6596 170.765 67.6445 170.109V170.108C67.6298 169.375 67.7844 168.812 68.1064 168.403C68.4302 167.992 68.8786 167.794 69.334 167.701C69.7834 167.61 70.273 167.614 70.7197 167.633C71.1864 167.653 71.5918 167.685 71.9521 167.672H71.9609L74.7275 167.644C81.1747 167.607 87.5812 167.743 94.0127 167.448H94.0146C98.0171 167.28 102.076 166.665 105.972 165.657L105.973 165.657C113.333 163.782 117.97 158.724 119.737 151.084C120.386 148.288 120.816 145.39 120.816 142.557V142.553C120.871 137.571 120.871 132.602 120.871 127.631C120.871 122.662 120.871 117.691 120.926 112.705L120.917 112.444C120.901 112.175 120.864 111.882 120.832 111.558C120.791 111.144 120.758 110.687 120.82 110.255C120.883 109.815 121.048 109.375 121.418 109.025C121.785 108.677 122.311 108.457 123.018 108.365H123.02C125.096 108.108 126.816 108.242 128.111 108.835C129.43 109.439 130.272 110.504 130.597 112V112.001C130.826 113.069 130.77 114.144 130.77 115.184V164.186C130.77 165.963 131.151 166.986 131.795 167.471C132.431 167.95 133.481 168.02 135.135 167.47C135.299 167.406 135.538 167.174 135.757 166.795C135.967 166.43 136.104 166.026 136.126 165.737C136.288 163.219 136.18 160.717 136.18 158.159C136.18 146.613 136.193 135.065 136.207 123.519C136.221 111.972 136.234 100.426 136.234 88.8801C136.234 86.5241 136.599 84.8087 137.651 83.6975C138.709 82.5807 140.365 82.1715 142.679 82.1712L145.438 82.1555C151.877 82.1301 158.315 82.1858 164.752 82.2844C166.774 82.3131 168.25 82.7119 169.201 83.7434C170.146 84.7675 170.484 86.3223 170.484 88.429C170.484 112.818 170.485 137.206 170.539 161.651L170.56 163.477C170.566 164.089 170.566 164.705 170.539 165.329V165.335C170.487 166.226 170.639 166.768 170.933 167.092C171.223 167.413 171.738 167.615 172.645 167.615H172.651C173.571 167.63 174.241 167.632 174.743 167.574C175.245 167.515 175.507 167.402 175.668 167.244C175.829 167.086 175.953 166.82 176.026 166.304C176.099 165.788 176.113 165.091 176.113 164.129C176.113 148.696 176.127 133.263 176.141 117.823C176.154 102.384 176.168 86.9366 176.168 71.4758C176.168 68.388 176.113 65.277 176.168 62.1751V62.1712C176.224 60.1012 176.683 58.5293 177.713 57.4807C178.746 56.4281 180.276 55.9807 182.288 55.9807C190.183 55.9807 198.088 55.9244 205.989 55.9807H205.991C208.493 56.0091 210.26 56.4457 211.379 57.634C212.492 58.8166 212.87 60.6459 212.87 63.1956C212.87 71.602 212.866 80.0054 212.861 88.4065Z" fill="#00FFB6"/>
<path d="M59.9266 79.0737C72.0729 79.0737 84.226 79.0174 96.4305 79.0737L96.4295 79.0747C101.235 79.0749 105.751 80.218 109.602 83.565H109.601C112.467 86.0063 113.934 89.214 113.934 92.9341L113.98 105.946C114.016 116.791 114.036 127.643 113.947 138.515L113.881 145.041C113.825 149.234 112.53 152.622 110.121 155.047C107.714 157.47 104.237 158.891 99.8924 159.234L99.8914 159.233C96.0061 159.572 92.0427 159.405 88.1531 159.46H88.1512C76.9833 159.573 65.813 159.685 54.6424 159.685C53.6747 159.685 52.8988 159.835 52.2381 160.176C51.5801 160.517 51.0023 161.065 50.4588 161.921C45.4158 169.998 37.4953 173.243 29.0067 174.942H29.0047C26.9559 175.343 25.3953 175.123 24.5047 174.084C23.6297 173.064 23.549 171.412 24.0164 169.336V169.335C24.4547 167.41 25.1804 165.492 25.7117 163.679V163.678C26.012 162.662 26.2102 161.906 26.283 161.332C26.3565 160.752 26.2902 160.44 26.1551 160.247C26.0206 160.054 25.7534 159.887 25.1893 159.762C24.629 159.638 23.8564 159.573 22.8055 159.516V159.515C20.2998 159.412 17.6945 159.503 15.1268 159.282L14.6131 159.233C9.21887 158.664 4.1352 156.826 1.59651 151.227V151.226C0.480845 148.802 -0.0728033 145.875 -0.0734144 143.181L-0.125172 137.202C-0.223506 123.251 -0.17577 109.295 -0.128102 95.2993V95.2984C-0.100487 91.3584 0.755938 88.1667 2.58088 85.7388C4.40875 83.307 7.1716 81.6896 10.9149 80.8296C15.5244 79.7518 20.2925 79.3004 24.9979 79.2437C36.4923 79.0205 47.9923 79.1828 59.5272 79.186V79.0737H59.9266ZM96.4266 79.8735C84.2993 79.8176 72.2279 79.8719 60.1512 79.8726L60.0418 79.9868H59.8729C48.2064 79.9868 36.6126 79.8173 25.0135 80.0425H25.0106C20.347 80.0986 15.6371 80.5469 11.0955 81.6089L11.0946 81.6099C7.48325 82.4396 4.90659 83.9762 3.22053 86.2192C1.53155 88.4663 0.698567 91.4713 0.671703 95.3042C0.617224 111.3 0.562994 127.236 0.72639 143.172V143.176C0.72639 145.612 1.19782 148.238 2.13166 150.457L2.32405 150.895L2.32502 150.897C4.68948 156.112 9.41336 157.88 14.6971 158.437H14.6961C17.4092 158.717 20.0692 158.603 22.8426 158.717H22.8485C23.8946 158.773 24.7292 158.841 25.3621 158.981C25.991 159.12 26.5032 159.347 26.8114 159.789C27.1189 160.229 27.1584 160.79 27.077 161.432C26.9949 162.079 26.7783 162.893 26.4793 163.905C25.9909 165.571 25.4007 167.157 24.9705 168.803L24.7967 169.512C24.3382 171.548 24.5027 172.853 25.1121 173.564C25.7059 174.257 26.8682 174.544 28.8494 174.157C37.2486 172.476 44.9088 169.3 49.7811 161.496L49.783 161.493C50.3833 160.547 51.0585 159.885 51.8709 159.465C52.6811 159.047 53.5945 158.885 54.6424 158.885C65.8077 158.885 76.9734 158.773 88.1414 158.661L89.6209 158.648C93.0653 158.638 96.4576 158.73 99.826 158.436H99.8289C104.038 158.103 107.316 156.736 109.554 154.484C111.788 152.234 113.027 149.06 113.08 145.03C113.298 127.63 113.189 110.286 113.135 92.937V92.9351C113.135 89.4473 111.77 86.4607 109.081 84.1714L109.078 84.1694C105.411 80.9831 101.102 79.8736 96.4285 79.8735H96.4266ZM96.5438 132.864C99.8298 132.867 102.439 135.654 102.439 139.008V139.016C102.381 142.331 99.9154 144.759 96.5369 144.702V144.704C93.1571 144.703 90.4638 141.931 90.5809 138.657V138.656C90.6975 135.466 93.4248 132.808 96.5369 132.864H96.5438ZM80.0369 132.807C83.3289 132.868 85.823 135.604 85.8231 139.065V139.072C85.794 140.724 85.1525 142.141 84.0721 143.127C82.9928 144.113 81.4982 144.65 79.7977 144.59V144.589C76.5799 144.525 74.0147 141.807 74.0731 138.607C74.1316 135.463 76.8684 132.747 80.0369 132.807ZM96.2811 133.666C93.8058 133.753 91.6236 135.853 91.3963 138.426L91.3797 138.685C91.2791 141.494 93.5976 143.903 96.5369 143.903H96.5447C99.4798 143.955 101.586 141.883 101.639 139.008C101.639 136.057 99.3493 133.664 96.5369 133.664H96.5291L96.2811 133.666ZM80.0223 133.607C77.3074 133.555 74.9235 135.908 74.8729 138.622C74.8223 141.39 77.0476 143.738 79.8192 143.791H79.826C81.3396 143.844 82.6239 143.367 83.533 142.537C84.4397 141.708 84.9962 140.508 85.0233 139.065C85.0232 135.992 82.832 133.659 80.0223 133.607ZM44.3533 92.7827C47.6021 92.9527 50.7997 94.2374 53.6815 96.5982L54.2537 97.0845L54.2615 97.0923C54.5296 97.3417 54.7974 97.5767 55.0926 97.8394C55.3062 98.0294 55.5309 98.2334 55.7762 98.4614C58.2206 96.0111 60.7193 93.8679 64.0535 93.27L64.3914 93.2153C67.7668 92.6727 70.9296 92.8847 73.7645 93.9702C76.6036 95.0573 79.0901 97.0114 81.1199 99.9146C85.4268 106.044 84.788 112.522 81.3621 118.864L81.3631 118.865C78.5455 124.12 74.2429 128.048 69.8817 131.711L69.8778 131.714C65.9448 134.933 61.7211 137.714 57.6571 140.683C57.0724 141.135 56.4892 141.392 55.8602 141.401C55.2324 141.409 54.6225 141.168 53.9871 140.75H53.9862C47.0771 136.195 40.1074 131.658 34.616 125.186C32.251 122.4 30.157 119.154 28.7225 115.732C25.7078 108.517 28.1644 100.435 34.1951 96.0474C37.3936 93.6901 40.8879 92.6014 44.3533 92.7827ZM44.3114 93.5816C41.0493 93.4109 37.7339 94.4326 34.6678 96.6929L34.6658 96.6948C28.9293 100.869 26.5918 108.557 29.4608 115.423L29.7303 116.046C31.1159 119.154 33.0513 122.106 35.2264 124.668C40.6307 131.038 47.4982 135.514 54.4266 140.083L54.6326 140.211C55.1021 140.489 55.493 140.606 55.8494 140.601C56.2522 140.596 56.6738 140.433 57.1756 140.044L57.1854 140.038C61.2931 137.036 65.4589 134.297 69.3709 131.095C73.7249 127.438 77.9195 123.594 80.658 118.487L80.659 118.486C83.988 112.324 84.5484 106.185 80.4656 100.375L80.4647 100.374C78.5177 97.5887 76.1549 95.7422 73.4783 94.7173C70.7991 93.6914 67.7811 93.4801 64.5125 94.0064L64.5067 94.0073C61.1646 94.4932 58.6867 96.6515 56.0711 99.2993L55.7948 99.5796L55.5106 99.3081C55.1615 98.975 54.852 98.6965 54.5604 98.437C54.2729 98.1813 53.9984 97.9397 53.7244 97.6851L53.1746 97.2173C50.4087 94.9514 47.3701 93.7416 44.3114 93.5816Z" fill="#00FFB6"/>
<path d="M195.801 -0.0804486C196.327 -0.140775 196.803 -0.0616712 197.194 0.227169C197.577 0.510428 197.821 0.952199 197.98 1.49182C198.139 2.03244 198.227 2.71311 198.268 3.52795C198.595 10.0328 198.935 16.5382 199.276 23.0436C199.446 26.2963 199.617 29.5495 199.786 32.8024L200.285 42.5612V42.5651C200.34 43.9068 200.092 44.9863 199.358 45.5231C198.603 46.0753 197.548 45.9074 196.377 45.3024V45.3014C193.107 43.6671 189.876 41.8565 186.678 40.1754V40.1744C185.913 39.7787 185.352 39.5 184.896 39.3297C184.444 39.1611 184.132 39.1146 183.857 39.1539C183.581 39.1935 183.293 39.3263 182.903 39.6129C182.509 39.9025 182.046 40.3224 181.415 40.9039C163.975 57.069 143.472 66.5644 120.463 70.2936H120.462C114.829 71.1982 108.996 71.1456 103.375 71.5367L103.374 71.5358C102.753 71.5959 102.117 71.4047 101.632 71.3043L101.607 71.2994L101.583 71.2906C101.376 71.2195 101.243 71.0535 101.155 70.943C101.045 70.8056 100.94 70.66 100.753 70.4391L100.417 70.0416L100.888 69.819C101.868 69.3545 102.791 68.919 103.701 68.5153L104.608 68.1217C120.228 61.2003 135.333 53.3335 148.637 42.3297V42.3287C153.195 38.5702 157.373 34.2517 161.63 30.0192C162.1 29.5471 162.415 29.1745 162.598 28.8658C162.779 28.5609 162.807 28.3612 162.775 28.2115C162.741 28.0538 162.622 27.8598 162.318 27.61C162.015 27.3612 161.571 27.0912 160.963 26.7701L160.962 26.7692C159.966 26.2401 158.941 25.7663 157.904 25.2867C156.87 24.8087 155.825 24.3249 154.806 23.7838L154.799 23.7809L154.792 23.777C154.338 23.5126 153.805 23.1414 153.379 22.7242C152.974 22.3271 152.578 21.8025 152.578 21.234C152.578 20.9531 152.685 20.6781 152.822 20.4381C152.962 20.193 153.152 19.9518 153.36 19.7291C153.774 19.2855 154.297 18.8787 154.746 18.6315L154.757 18.6246L154.768 18.6197C164.195 14.1692 173.622 9.83151 183.046 5.49475L188.501 2.96643C190.321 2.12805 192.148 1.29667 194.002 0.479122L194.498 0.273067C194.978 0.0870243 195.412 -0.0357428 195.801 -0.0804486ZM153.378 21.234C153.378 21.454 153.554 21.7757 153.939 22.153C154.301 22.5078 154.772 22.8386 155.187 23.0807C156.182 23.6085 157.205 24.0816 158.24 24.5602C159.273 25.0379 160.317 25.5214 161.335 26.0621H161.336C161.954 26.3887 162.458 26.6897 162.826 26.9918C163.192 27.2927 163.468 27.6304 163.557 28.0426C163.648 28.4632 163.524 28.8735 163.287 29.274C163.051 29.6707 162.678 30.1 162.196 30.5846L162.195 30.5865C158.219 34.539 154.268 38.6133 150.003 42.2291L149.147 42.9459C135.758 54.0197 120.574 61.9224 104.925 68.8561L104.919 68.859C103.869 69.3031 102.819 69.7922 101.687 70.3268C101.723 70.374 101.756 70.4134 101.781 70.4449C101.821 70.4951 101.846 70.5216 101.859 70.5348C102.427 70.6555 102.859 70.7861 103.306 70.7399L103.32 70.7389C109.03 70.3415 114.746 70.4011 120.335 69.5035L121.405 69.3258C143.833 65.5019 163.825 56.118 180.872 40.317L180.873 40.316C181.495 39.7429 181.992 39.2895 182.429 38.9684C182.87 38.6444 183.283 38.428 183.743 38.3619C184.203 38.2958 184.66 38.3876 185.175 38.5797C185.558 38.7225 185.994 38.9292 186.507 39.1891L187.048 39.4664L187.05 39.4674C189.876 40.9526 192.675 42.5108 195.519 43.9703L196.741 44.5895L196.746 44.5914C197.863 45.169 198.525 45.1419 198.886 44.8776C199.269 44.5978 199.538 43.9042 199.485 42.6012C199.158 36.0963 198.818 29.5911 198.477 23.0856C198.137 16.5804 197.796 10.0747 197.469 3.56897C197.429 2.77869 197.347 2.17043 197.213 1.71838C197.08 1.26554 196.908 1.00987 196.719 0.870723C196.539 0.737371 196.285 0.669299 195.892 0.714473C195.492 0.760499 194.98 0.921254 194.327 1.21057H194.326C190.626 2.84199 187.035 4.52936 183.382 6.22033L183.381 6.22131C173.96 10.5566 164.541 14.8908 155.122 19.3375C154.755 19.5418 154.303 19.8919 153.945 20.275C153.765 20.4675 153.617 20.6592 153.517 20.8346C153.414 21.015 153.379 21.1488 153.378 21.234Z" fill="#00FFB6"/>
</g>
<defs>
<clipPath id="clip0_40_237">
<rect width="225" height="175" fill="white"/>
</clipPath>
</defs>
</svg>
