<svg width="72" height="90" viewBox="0 0 72 90" fill="none" xmlns="http://www.w3.org/2000/svg">
<path d="M5.78356 0.866752C9.24308 -0.677893 13.1187 -0.0160376 16.3311 1.73419L16.9639 2.09599L17.0958 2.17881L17.2232 2.26599L65.3507 36.1659C68.7169 38.0901 71.993 41.1091 72 45.481C72.0062 49.8211 68.7573 52.9865 65.3902 55.1101L65.3946 55.1144L17.7066 87.0135L17.5133 87.1443L17.3067 87.2533C13.8459 89.0848 9.59361 90.204 5.79674 88.2645C1.88399 86.2654 0.463081 82.0757 0.21095 78.0253L0.202161 77.8945V77.7637L0 10.9971L0.0043948 10.9927C-0.0647848 6.57509 1.82716 2.63356 5.78356 0.866752Z" fill="white"/>
</svg>
