<svg width="106" height="31" viewBox="0 0 106 31" fill="none" xmlns="http://www.w3.org/2000/svg">
<g clip-path="url(#clip0_1_303)">
<path d="M67.915 11.9294L13.4862 10.217C12.7414 10.2134 12.0282 9.91568 11.5023 9.38889C10.9763 8.8621 10.6804 8.14895 10.6789 7.40505V6.0994C10.6833 5.35741 10.9805 4.64708 11.5061 4.12265C12.0317 3.59823 12.7433 3.30206 13.4862 3.29845L67.915 1.23416V11.9294Z" stroke="#EDE7DF" stroke-width="1.1018" stroke-miterlimit="10"/>
<path d="M9.43847 14.4913C10.6404 14.4835 11.8187 14.8242 12.8305 15.4722C13.8423 16.1202 14.644 17.0475 15.1384 18.1416L15.2815 18.4522L18.0888 17.1411L17.9457 16.8305C17.0392 14.8924 15.4979 13.321 13.5764 12.3759C11.6549 11.4308 9.46811 11.1684 7.37715 11.6321C5.2862 12.0959 3.41612 13.2579 2.07575 14.9264C0.735384 16.5949 0.00488281 18.6701 0.00488281 20.8092C0.00488281 22.9484 0.735384 25.0235 2.07575 26.6921C3.41612 28.3606 5.2862 29.5226 7.37715 29.9863C9.46811 30.4501 11.6549 30.1877 13.5764 29.2426C15.4979 28.2975 17.0392 26.7261 17.9457 24.788L18.0806 24.4637L15.2733 23.1525L15.1384 23.4659C14.642 24.5575 13.8394 25.4819 12.8278 26.1273C11.8161 26.7727 10.6389 27.1115 9.43847 27.1025C8.60934 27.1025 7.78833 26.9394 7.02232 26.6225C6.25631 26.3056 5.56029 25.8411 4.97401 25.2556C4.38773 24.6701 3.92266 23.9749 3.60537 23.2099C3.28808 22.4449 3.12477 21.6249 3.12477 20.7969C3.12477 19.9688 3.28808 19.1489 3.60537 18.3838C3.92266 17.6188 4.38773 16.9237 4.97401 16.3382C5.56029 15.7526 6.25631 15.2882 7.02232 14.9713C7.78833 14.6544 8.60934 14.4913 9.43847 14.4913Z" fill="#EDE7DF"/>
<path d="M29.8821 18.378C28.6959 16.8084 27.2096 16.1322 25.2032 16.2559C24.059 16.314 22.9759 16.7893 22.1592 17.5918V16.4538H19.1758V29.9968H22.129L22.1592 22.7264C22.1592 21.3163 23.6152 19.1174 25.5528 19.0926C26.4803 19.0706 27.1381 19.4884 27.694 20.467L27.9225 20.8601L30.0555 18.6171L29.8821 18.378Z" fill="#EDE7DF"/>
<path d="M48.1793 16.4539H43.6325V19.2906H48.2949C50.2215 19.2906 51.0637 19.8073 51.182 21.1102H47.8903C45.7876 21.1102 44.1279 21.6792 43.0848 22.7595C42.6823 23.1846 42.3713 23.6875 42.1711 24.2374C41.9708 24.7872 41.8856 25.3722 41.9206 25.9562C41.9206 26.0772 41.9206 26.1954 41.9482 26.3136L39.5729 24.81L39.3996 25.1289C39.0609 25.7476 38.5612 26.2635 37.9532 26.622C37.3452 26.9806 36.6515 27.1684 35.9455 27.1657C35.0618 27.1624 34.2045 26.8644 33.5097 26.3191L42.6913 21.0965L42.5702 20.8216C42.0551 19.7333 41.3183 18.7644 40.4069 17.9767C39.1764 16.8898 37.5881 16.2939 35.9455 16.3027C34.7199 16.3034 33.5161 16.6264 32.4552 17.2392C31.3943 17.8519 30.5136 18.7329 29.9017 19.7935C29.2899 20.854 28.9685 22.0568 28.9697 23.2807C28.971 24.5047 29.295 25.7068 29.909 26.7661C30.5231 27.8254 31.4056 28.7045 32.4678 29.3151C33.53 29.9256 34.7344 30.2461 35.96 30.2442C37.1856 30.2424 38.389 29.9183 39.4494 29.3045C40.5097 28.6908 41.3896 27.809 42.0004 26.7479C42.1566 27.5877 42.5839 28.3533 43.2169 28.9276C44.1665 29.7825 45.5756 30.236 47.2353 30.236C47.4628 30.236 47.694 30.2278 47.9288 30.2113C49.6435 30.0986 50.56 29.5241 51.2068 28.9221V30.0216H54.1627V21.9898C54.1792 18.1086 52.3847 16.4539 48.1793 16.4539ZM32.0262 23.2378C32.0277 22.1986 32.4417 21.2025 33.1774 20.4677C33.9131 19.733 34.9105 19.3195 35.951 19.3181C36.8705 19.3207 37.761 19.6401 38.472 20.2224L32.0785 23.859C32.0427 23.6539 32.0252 23.446 32.0262 23.2378ZM45.0224 25.6319C45.0472 24.5324 46.0958 23.9194 47.8958 23.9194H51.2233V25.0189C50.9701 25.3955 49.7701 27.031 48.0114 27.2839C46.927 27.4625 46.0105 27.3059 45.4931 26.8523C45.3257 26.6989 45.1961 26.509 45.1144 26.2972C45.0328 26.0855 45.0013 25.8578 45.0224 25.6319Z" fill="#EDE7DF"/>
<path d="M62.7355 27.1877H61.4584C59.7135 27.1877 59.1548 26.6132 59.1548 24.8293V19.2906H62.7327V16.4539H59.1245V13.98H56.1713V16.4539H54.0383V19.2906H56.1713V24.8293C56.1713 28.2569 57.9878 29.9969 61.5713 29.9969H62.7355V27.1877Z" fill="#EDE7DF"/>
<path d="M69.3107 16.2835C67.9301 16.2862 66.5814 16.6977 65.435 17.4661C64.2886 18.2344 63.3962 19.325 62.8705 20.6C62.3448 21.8749 62.2095 23.2769 62.4817 24.6286C62.754 25.9804 63.4214 27.2211 64.3998 28.194C65.3781 29.1668 66.6233 29.828 67.978 30.094C69.3326 30.36 70.7358 30.2188 72.0101 29.6883C73.2844 29.1578 74.3725 28.2617 75.1369 27.1135C75.9012 25.9653 76.3075 24.6165 76.3042 23.2377C76.3031 22.3222 76.1213 21.4159 75.7691 20.5707C75.4168 19.7255 74.9012 18.958 74.2516 18.312C73.602 17.6661 72.8312 17.1544 71.9834 16.8063C71.1356 16.4582 70.2274 16.2806 69.3107 16.2835ZM69.3107 27.1574C68.5346 27.1569 67.776 26.9265 67.131 26.4955C66.4859 26.0645 65.9833 25.4521 65.6867 24.7358C65.39 24.0195 65.3127 23.2315 65.4645 22.4713C65.6162 21.7112 65.9902 21.013 66.5392 20.4651C67.0882 19.9172 67.7875 19.5442 68.5488 19.3932C69.31 19.2421 70.099 19.3199 70.816 19.6167C71.533 19.9134 72.1458 20.4158 72.5769 21.0604C73.0081 21.7049 73.2382 22.4626 73.2382 23.2377C73.2374 24.2775 72.8233 25.2745 72.0869 26.0095C71.3504 26.7445 70.3518 27.1574 69.3107 27.1574Z" fill="#EDE7DF"/>
<path d="M83.7278 19.0927C84.6554 19.0707 85.3132 19.4885 85.8691 20.467L86.0976 20.8601L88.2306 18.6171L88.0572 18.389C86.8709 16.8195 85.3875 16.146 83.3783 16.267C82.2356 16.3221 81.1527 16.7934 80.3343 17.5919V16.4539H77.3398V29.9968H80.293L80.3233 22.7265C80.3343 21.3164 81.7903 19.1174 83.7278 19.0927Z" fill="#EDE7DF"/>
<path d="M94.5105 21.6325C92.9141 21.2229 91.5352 20.8711 91.5435 20.0877C91.5435 19.6919 91.7664 19.2906 93.4206 19.2906H99.704V16.4539H92.6527C91.2243 16.4539 90.1261 16.8442 89.3885 17.6139C89.0768 17.9516 88.8355 18.3479 88.6786 18.7797C88.5217 19.2115 88.4524 19.6701 88.4747 20.1289C88.6234 23.3999 91.7252 24.1448 94.2215 24.7385C95.8728 25.1344 97.2902 25.4752 97.2902 26.3878C97.2902 26.5857 97.2902 27.1849 95.3829 27.1849H84.0986V29.9941H96.1618C97.582 29.9941 98.6746 29.6148 99.404 28.8699C99.7191 28.5329 99.964 28.1369 100.125 27.7047C100.285 27.2725 100.358 26.8127 100.34 26.352C100.257 23.0893 97.0701 22.2867 94.5105 21.6325Z" fill="#EDE7DF"/>
<path d="M68.4743 7.2154H76.1944V13.3423H77.9311V0H76.1944V5.58816H68.4743V0H66.7597V13.3423H68.4743V7.2154Z" fill="#EDE7DF"/>
<path d="M83.8671 13.5127C85.0708 13.4585 86.2139 12.9702 87.0845 12.1383V13.3615H88.8212V10.5578C90.1093 9.03779 91.6505 7.25936 92.3606 6.55294C93.4313 5.48094 94.3313 5.31052 94.9753 5.31052C95.6117 5.31052 96.2339 5.49904 96.7631 5.85224C97.2922 6.20544 97.7046 6.70745 97.948 7.29475C98.1915 7.88206 98.255 8.52828 98.1307 9.15166C98.0063 9.77505 97.6996 10.3476 97.2494 10.7969C96.7991 11.2461 96.2256 11.552 95.6013 11.6756C94.977 11.7993 94.33 11.7353 93.7421 11.4916C93.1543 11.248 92.652 10.8357 92.2988 10.307C91.9456 9.77819 91.7573 9.15667 91.7579 8.52103C91.7568 8.30489 91.779 8.08925 91.8239 7.87783L90.0212 10.0191V13.3643H91.7579V12.1631C92.6337 12.9836 93.7755 13.4625 94.9753 13.5127C95.633 13.5182 96.2853 13.3928 96.8941 13.1439C97.5028 12.8949 98.0558 12.5274 98.5208 12.0628C98.9858 11.5981 99.3535 11.0456 99.6024 10.4375C99.8513 9.82945 99.9765 9.17795 99.9706 8.52103C99.9761 7.86332 99.8508 7.21106 99.602 6.60208C99.3531 5.9931 98.9857 5.4395 98.5211 4.97339C98.0564 4.50728 97.5037 4.13793 96.8951 3.88674C96.2864 3.63555 95.6339 3.50753 94.9753 3.5101C93.7687 3.55156 92.6213 4.04173 91.7579 4.88447V0.0219727H90.0212V6.63815C89.8506 6.85255 88.3506 8.67221 87.3625 9.72222C85.7992 11.3715 85.0479 11.8415 83.8479 11.8855C81.7231 11.9487 80.9305 10.2802 80.9305 8.50179V3.66128H79.2158V8.50179C79.2158 11.2698 80.7158 13.6199 83.8671 13.5127Z" fill="#EDE7DF"/>
<path d="M88.8219 3.6613H87.0852V9.18624L88.8219 7.30336V3.6613Z" fill="#EDE7DF"/>
<path d="M101.911 16.9981L101.534 16.2175C101.06 15.3529 100.339 14.6494 99.4619 14.1972L98.672 13.8398L99.2004 13.5265C100.183 12.8806 100.992 12.005 101.559 10.9757L101.793 10.5029L102.261 11.2808C102.764 12.0417 103.413 12.6956 104.171 13.2049L105.057 13.7546L104.331 14.1175C103.614 14.5175 103.011 15.0937 102.58 15.7914L101.911 16.9981Z" fill="#EDE7DF"/>
<path d="M101.889 17.7595L101.215 16.3659C100.779 15.5735 100.119 14.9278 99.3158 14.5105L97.9121 13.8755L99.013 13.2186C99.9343 12.6081 100.696 11.7862 101.234 10.8217L101.754 9.7717L102.555 11.1021C103.029 11.8184 103.638 12.4348 104.35 12.9162L105.77 13.7986L104.479 14.4418C103.825 14.81 103.274 15.3364 102.877 15.9728L101.889 17.7595ZM99.4314 13.7903L99.6075 13.87C100.561 14.3591 101.343 15.126 101.851 16.069L101.933 16.2422L102.272 15.6375C102.738 14.8783 103.393 14.2524 104.174 13.8206L104.339 13.7409L103.986 13.521C103.179 12.9818 102.49 12.2842 101.961 11.4704L101.82 11.2423C101.229 12.2624 100.412 13.134 99.4314 13.7903Z" fill="#EDE7DF"/>
<path d="M7.84122 12.8915L7.31003 11.792C6.80086 10.742 5.30088 9.36214 4.23575 8.88111L3.30273 8.44956L4.57153 7.69641C5.55959 7.11093 6.83114 5.47819 7.34306 4.44742L7.67058 3.78223L8.34488 4.90096C9.06775 5.94499 9.96968 6.85321 11.0091 7.58371L12.2531 8.3561L11.2348 8.86462C10.3403 9.31266 9.08249 10.6568 8.59809 11.5446L7.84122 12.8915Z" fill="#EDE7DF"/>
<path d="M7.81933 13.6557L6.99365 11.9432C6.53952 11.0004 5.13036 9.66726 4.09276 9.19448L2.53223 8.4908L4.39276 7.39131C5.28174 6.86081 6.51751 5.31602 7.02667 4.28525L7.64043 3.04558L8.64501 4.71405C9.33916 5.71424 10.2036 6.58504 11.1991 7.28686L12.9771 8.38635L11.3945 9.17798C10.5688 9.59304 9.35509 10.8987 8.91748 11.7041L7.81933 13.6557ZM4.05148 8.40834L4.38175 8.55677C5.55972 9.09002 7.10649 10.5578 7.62667 11.6381L7.86336 12.1301L8.29272 11.3605C8.80739 10.4451 10.112 9.0323 11.0808 8.55127L11.5376 8.32313L10.8276 7.88058C9.73789 7.11865 8.79442 6.16709 8.04226 5.07139L7.70648 4.50515L7.66245 4.59311C7.11199 5.71459 5.7799 7.38581 4.75606 7.99053L4.05148 8.40834Z" fill="#EDE7DF"/>
<path d="M24.4681 6.90751C24.3095 6.71506 24.1345 6.53665 23.9452 6.37426C23.7993 6.23957 23.5791 6.03616 23.4553 5.90148L24.4021 4.48588C24.4348 4.4362 24.4535 4.37858 24.4562 4.31915C24.4588 4.25972 24.4453 4.20067 24.4171 4.14827C24.3889 4.09587 24.347 4.05207 24.2959 4.0215C24.2448 3.99093 24.1864 3.97473 24.1268 3.97462C24.0688 3.97416 24.0118 3.98935 23.9617 4.0186L21.27 5.57713C21.2326 5.59816 21.2 5.62654 21.174 5.66056C21.1479 5.69458 21.1291 5.73353 21.1186 5.77503C21.0934 5.85342 21.0909 5.93732 21.1113 6.01707C21.1318 6.09682 21.1744 6.16919 21.2342 6.22582C21.3929 6.41997 21.5688 6.59936 21.7599 6.76183C21.9058 6.89926 22.1259 7.10267 22.2498 7.23736L21.303 8.64745C21.2702 8.69714 21.2515 8.75475 21.2489 8.81418C21.2462 8.87362 21.2597 8.93266 21.2879 8.98506C21.3162 9.03746 21.358 9.08127 21.4091 9.11184C21.4602 9.14241 21.5187 9.15861 21.5782 9.15871C21.6365 9.15848 21.6936 9.14232 21.7434 9.11199L24.4351 7.55621C24.5095 7.51253 24.5638 7.44149 24.5865 7.3583C24.6117 7.2797 24.6139 7.19555 24.593 7.11571C24.572 7.03587 24.5287 6.96365 24.4681 6.90751Z" fill="#F3FF00"/>
<path d="M30.8676 4.50238C30.8376 4.47161 30.8016 4.44722 30.7618 4.43069C30.7221 4.41416 30.6795 4.40582 30.6364 4.40618C30.6145 4.40353 30.5923 4.40353 30.5704 4.40618L29.4695 4.62882C29.4063 4.6402 29.348 4.66983 29.3016 4.71403L28.2007 5.79428H28.1704H28.0273H27.8456C27.6797 5.78428 27.5153 5.83186 27.3805 5.92897C27.1531 6.16362 26.9536 6.42372 26.786 6.70411C26.7515 6.75361 26.7313 6.81167 26.7278 6.87189C26.7242 6.93211 26.7374 6.99214 26.7659 7.04534C26.7944 7.09853 26.8371 7.14282 26.8892 7.17332C26.9413 7.20381 27.0008 7.21932 27.0612 7.21812H27.386L26.4667 8.18017C26.4128 8.2402 26.3829 8.31803 26.3829 8.3987C26.3829 8.47937 26.4128 8.55719 26.4667 8.61722C26.4972 8.65415 26.5354 8.68389 26.5787 8.70433C26.622 8.72476 26.6693 8.73538 26.7172 8.73542C26.782 8.73626 26.8454 8.71706 26.8988 8.68044L28.1594 7.85583C28.1355 8.01385 28.1006 8.16999 28.0548 8.32311C28.0353 8.38759 28.0362 8.45652 28.0573 8.52048C28.0785 8.58444 28.119 8.6403 28.1731 8.68044C28.2293 8.72324 28.2979 8.74642 28.3685 8.74641C28.4321 8.74733 28.4944 8.72913 28.5474 8.69419C29.5245 8.05923 29.5575 7.86957 29.5795 7.76512C29.5947 7.64557 29.5947 7.52459 29.5795 7.40503C29.5795 7.35556 29.5795 7.28134 29.5795 7.23186L30.6419 6.15162C30.6863 6.10609 30.7169 6.04889 30.73 5.98669L30.9694 4.81848C30.9823 4.76151 30.9796 4.70215 30.9617 4.64657C30.9438 4.59098 30.9113 4.5412 30.8676 4.50238Z" fill="#00FFB6"/>
<path d="M16.1566 4.30447H15.2099C15.0441 4.33756 14.8919 4.41891 14.7724 4.53827C14.6529 4.65762 14.5714 4.80964 14.5383 4.97516V5.92347C14.5383 6.00975 14.5724 6.09254 14.6333 6.1538C14.6941 6.21506 14.7767 6.24985 14.8631 6.25057H15.3062C15.393 6.25057 15.4764 6.21611 15.5378 6.15477C15.5992 6.09342 15.6337 6.01022 15.6337 5.92347V5.40396H16.1566C16.1996 5.40396 16.2422 5.3955 16.282 5.37906C16.3217 5.36263 16.3578 5.33853 16.3882 5.30816C16.4186 5.27778 16.4428 5.24173 16.4592 5.20204C16.4757 5.16236 16.4842 5.11982 16.4842 5.07687V4.63157C16.4842 4.58862 16.4757 4.54608 16.4592 4.5064C16.4428 4.46671 16.4186 4.43065 16.3882 4.40028C16.3578 4.3699 16.3217 4.34581 16.282 4.32937C16.2422 4.31293 16.1996 4.30447 16.1566 4.30447Z" fill="#FF001F"/>
<path d="M18.397 4.30447H17.4474C17.4044 4.30447 17.3618 4.31293 17.3221 4.32937C17.2824 4.34581 17.2462 4.3699 17.2158 4.40028C17.1854 4.43065 17.1613 4.46671 17.1448 4.5064C17.1284 4.54608 17.1199 4.58862 17.1199 4.63157V5.07687C17.1206 5.16339 17.1554 5.24618 17.2166 5.30737C17.2779 5.36855 17.3608 5.40325 17.4474 5.40396H17.9676V5.92347C17.9683 6.01 18.0031 6.09278 18.0643 6.15397C18.1256 6.21516 18.2085 6.24985 18.2951 6.25057H18.741C18.8278 6.25057 18.9112 6.21611 18.9726 6.15477C19.034 6.09342 19.0685 6.01022 19.0685 5.92347V4.97516C19.035 4.80979 18.9535 4.65796 18.834 4.53866C18.7146 4.41936 18.5625 4.3379 18.397 4.30447Z" fill="#FF001F"/>
<path d="M16.1562 7.73214H15.6361V7.21263C15.6361 7.12588 15.6016 7.04268 15.5401 6.98133C15.4787 6.91999 15.3954 6.88553 15.3085 6.88553H14.8627C14.7758 6.88553 14.6925 6.91999 14.6311 6.98133C14.5697 7.04268 14.5352 7.12588 14.5352 7.21263V8.15819C14.5683 8.32371 14.6497 8.47573 14.7693 8.59508C14.8888 8.71444 15.041 8.79579 15.2067 8.82888H16.1562C16.2431 8.82888 16.3264 8.79442 16.3878 8.73307C16.4493 8.67173 16.4838 8.58853 16.4838 8.50178V8.05923C16.4838 8.01628 16.4753 7.97374 16.4588 7.93406C16.4424 7.89437 16.4182 7.85831 16.3878 7.82794C16.3574 7.79757 16.3213 7.77347 16.2816 7.75703C16.2418 7.7406 16.1993 7.73214 16.1562 7.73214Z" fill="#FF001F"/>
<path d="M18.741 6.88553H18.2951C18.2083 6.88553 18.125 6.91999 18.0635 6.98133C18.0021 7.04268 17.9676 7.12588 17.9676 7.21263V7.73214H17.4474C17.3606 7.73214 17.2773 7.7666 17.2158 7.82794C17.1544 7.88928 17.1199 7.97248 17.1199 8.05923V8.50178C17.1199 8.58853 17.1544 8.67173 17.2158 8.73307C17.2773 8.79442 17.3606 8.82888 17.4474 8.82888H18.397C18.5625 8.79545 18.7146 8.71399 18.834 8.59469C18.9535 8.47539 19.035 8.32356 19.0685 8.15819V7.21263C19.0685 7.12588 19.034 7.04268 18.9726 6.98133C18.9112 6.91999 18.8278 6.88553 18.741 6.88553Z" fill="#FF001F"/>
<path d="M16.6298 5.73111C17.9564 5.5222 18.0059 7.55626 16.6655 7.40783C15.7325 7.30613 15.716 5.87404 16.6298 5.73111Z" fill="#FF001F" stroke="#FF001F" stroke-width="0.620487"/>
</g>
<defs>
<clipPath id="clip0_1_303">
<rect width="105.778" height="30.2222" fill="white"/>
</clipPath>
</defs>
</svg>
