<svg width="145" height="182" viewBox="0 0 145 182" fill="none" xmlns="http://www.w3.org/2000/svg">
<path d="M139.532 2.28113C136.872 0.409273 133.729 -0.381919 130.484 0.174961C129.835 0.286338 128.861 0.453403 128.268 0.887874L89.0861 15.9263C86.8698 16.6392 85.1443 18.2657 83.4743 20.2153L50.2642 66.1596C49.9397 66.2153 49.6151 66.271 48.966 66.3824C47.3433 66.6608 45.3961 66.995 43.718 66.9503C41.4462 67.3401 39.119 67.4068 37.1717 67.741C32.6282 68.5206 25.9237 70.3362 21.1273 75.4832C19.9954 76.6752 16.9245 80.1957 4.20646 107.324C2.21999 111.323 2.72706 116.225 5.71956 120.036C8.33209 123.579 12.9392 125.117 17.1582 124.393L17.4827 124.337C17.4827 124.337 20.0791 123.891 23.9735 123.223C25.9208 122.889 27.5435 122.611 29.4907 122.276L2.10614 163.23C-1.3367 168.477 -0.496993 175.318 4.17365 179.173C6.94439 181.691 10.7361 182.371 13.9815 181.814C16.2533 181.424 18.4142 180.388 20.1396 178.762L61.0128 140.483C61.0926 146.789 60.8478 153.15 60.0013 157.952C59.2102 163.077 62.0445 167.912 66.4379 170.152C68.9869 171.378 71.3695 171.634 73.9658 171.189C76.2376 170.799 78.3985 169.763 80.124 168.136C111.887 139.071 111.696 132.119 112.005 128.074C111.933 123.763 111.157 119.239 110.056 114.772C109.724 112.833 108.956 110.304 108.678 108.689L140.859 62.5882C142.205 60.6943 142.846 58.5887 143.107 56.2156L144.607 12.3864C144.97 8.66531 142.952 4.6878 139.532 2.28113Z" fill="#00FFB6"/>
</svg>
