<svg width="32" height="32" viewBox="0 0 32 32" fill="none" xmlns="http://www.w3.org/2000/svg">
<path d="M11.4833 0L4.74641 0C2.83254 0 0 2.84615 0 4.76923L0 11.4615C0 12.7692 1.07177 13.7692 2.29665 13.7692H5.43541C6.73684 13.7692 7.73206 12.6923 7.73206 11.4615L7.73206 7.76923L11.4067 7.76923C12.7081 7.76923 13.7033 6.69231 13.7033 5.46154V2.30769C13.7799 1 12.7081 0 11.4833 0Z" fill="white"/>
<path d="M27.2536 0L20.5933 0C19.2919 0 18.2966 1.07692 18.2966 2.30769V5.46154C18.2966 6.76923 19.3684 7.76923 20.5933 7.76923L24.2679 7.76923V11.4615C24.2679 12.7692 25.3397 13.7692 26.5646 13.7692H29.7034C31.0048 13.7692 32 12.6923 32 11.4615V4.69231C31.9234 2.84615 29.0909 0 27.2536 0Z" fill="white"/>
<path d="M11.4833 24.2308H7.80861L7.80861 20.5385C7.80861 19.2308 6.73684 18.2308 5.51196 18.2308H2.37321C1.07177 18.2308 0.076555 19.3077 0.076555 20.5385L0.076555 27.2308C0.076555 29.1538 2.90909 32 4.82297 32H11.4833C12.7847 32 13.7799 30.9231 13.7799 29.6923V26.5385C13.7799 25.3077 12.7081 24.2308 11.4833 24.2308Z" fill="white"/>
<path d="M29.6268 18.2308H26.488C25.1866 18.2308 24.1914 19.3077 24.1914 20.5385V24.2308H20.5167C19.2153 24.2308 18.2201 25.3077 18.2201 26.5385V29.6923C18.2201 31 19.2919 32 20.5167 32H27.177C29.0909 32 31.9234 29.1538 31.9234 27.2308V20.5385C31.9234 19.3077 30.9282 18.2308 29.6268 18.2308Z" fill="white"/>
<path d="M20.4103 13.5227C23.7901 21.1519 11.5957 24.6992 10.2971 16.4424C9.46633 10.7186 18.0886 8.26838 20.4103 13.5227Z" fill="white"/>
</svg>
