<svg width="177" height="36" viewBox="0 0 177 36" fill="none" xmlns="http://www.w3.org/2000/svg">
<path d="M72.3243 34.2485C71.7909 34.3682 71.2624 34.5079 70.8137 34.832C70.6691 34.9367 70.5096 34.9517 70.35 34.9816C69.7418 35.0913 69.1634 35.2808 68.5851 35.4902C68.291 35.5949 68.5004 35.2708 68.3757 35.2209C68.2461 35.1661 68.1314 35.2459 68.0666 35.3157C67.8024 35.59 67.4733 35.5451 67.1493 35.555C66.9748 35.56 66.8302 35.5301 66.7155 35.3805C66.541 35.1561 66.2917 35.0963 66.0175 35.0813C65.5888 35.0614 65.4841 34.9317 65.3445 34.5328C65.16 34.0042 65.1301 33.4457 65.0005 32.9071C64.9406 32.6628 65.0703 32.4184 65.16 32.194C65.3345 31.7652 65.5788 31.4012 66.0275 31.1668C66.3416 31.0022 66.6258 30.7778 66.9598 30.6581C66.9249 30.4986 66.7903 30.4786 66.7105 30.3939C66.5161 30.1794 66.4263 29.9899 66.4812 29.6508C66.5859 28.9627 66.7504 28.2845 66.8601 27.6013C66.8701 27.5365 66.8651 27.4717 66.905 27.4168C67.3337 26.8433 67.3836 26.1302 67.6428 25.492C67.9968 24.6143 68.3209 23.7267 68.7247 22.864C69.4825 21.2483 70.2254 19.6227 71.048 18.0369C71.4817 17.1991 71.9105 16.3664 72.3143 15.5136C72.6584 14.7806 72.9575 14.0276 73.2716 13.2796C73.5109 12.7012 73.7801 12.1327 74.0443 11.5692C74.3684 10.886 74.6626 10.1879 74.9368 9.46481C74.6675 9.39001 74.4382 9.30025 74.1989 9.26534C73.3513 9.13569 72.778 8.59214 72.2794 7.9738C72.075 7.71948 71.8158 7.50007 71.6612 7.20585C71.4319 6.77201 71.1577 6.36311 71.0281 5.88937C70.9283 5.53033 70.9981 5.23612 71.2275 4.91697C71.7061 4.26871 72.3044 3.8598 73.117 3.79497C73.4461 3.77004 73.6854 3.54065 73.9696 3.41599C74.3784 3.24145 74.8071 3.13175 75.2409 3.04697C75.5001 2.99711 75.7594 2.92231 75.9788 2.77271C76.2729 2.57823 76.602 2.48847 76.936 2.39871C77.619 2.22417 78.312 2.0646 78.9901 1.87012C79.2842 1.78535 79.5933 1.7255 79.8426 1.49113C79.9473 1.3914 80.1417 1.37145 80.3013 1.33156C81.772 0.932625 83.2677 0.648385 84.7684 0.409025C85.4464 0.299319 86.1444 0.269396 86.8224 0.169663C88.2583 -0.0447637 89.6941 0.0100946 91.13 0.000121219C91.9227 -0.00486545 92.7005 0.144731 93.4682 0.314278C94.0765 0.448918 94.6897 0.578572 95.2381 0.907692C95.9511 1.34153 96.4995 1.90004 96.7837 2.70788C96.8435 2.87244 96.8485 3.02703 96.8535 3.19159C96.8585 3.99444 96.7687 4.78732 96.6989 5.58519C96.659 6.01903 96.669 6.45785 96.5643 6.88172C96.4247 7.46017 96.1306 7.94388 95.6868 8.3478C95.2132 8.78164 94.6847 9.11076 94.1313 9.43988C93.6078 9.74905 93.1442 10.1929 92.7802 10.7115C92.7204 10.7962 92.6805 10.881 92.5858 10.9259C91.7682 11.3248 91.0801 11.9532 90.2326 12.2923C89.8936 12.4269 89.6941 12.7311 89.4499 12.9704C89.2405 13.1749 89.0261 13.3444 88.712 13.3145C88.5524 13.2996 88.4079 13.3644 88.2982 13.4591C88.019 13.7035 87.6949 13.8431 87.3459 13.9329C87.0318 14.0126 86.8773 14.2869 86.6878 14.5063C86.5532 14.6011 86.3887 14.6061 86.2242 14.646C86.3339 14.8504 86.5283 14.8404 86.7028 14.8753C87.311 15.1745 87.9243 15.4638 88.5325 15.768C89.5446 16.2716 90.4869 16.885 91.2397 17.7377C91.9975 18.5954 92.5908 19.5628 92.8301 20.6948C92.9348 21.1885 92.9647 21.7021 93.0594 22.2008C93.0694 22.2456 93.0744 22.2955 93.1841 22.2955C93.3336 21.9564 93.4982 21.6073 93.6378 21.2483C94.1612 19.9219 94.8792 18.6901 95.4824 17.4086C95.9561 16.4063 96.5494 15.4837 97.0928 14.5263C97.6362 13.5688 98.2395 12.6413 98.8128 11.6939C99.3862 10.7464 99.9495 9.79892 100.508 8.84148C100.782 8.37273 101.041 7.89401 101.311 7.41529C101.326 7.38537 101.346 7.35545 101.355 7.32553C101.555 6.72214 101.874 6.20852 102.293 5.72481C102.677 5.281 103.424 5.01671 103.928 5.51039C104.187 5.76471 104.471 5.98911 104.671 6.30825C104.89 6.65732 105.055 6.69721 105.469 6.61244C106.999 6.30327 108.52 5.96417 110.055 5.70486C111.172 5.51537 112.289 5.32588 113.416 5.20121C114.577 5.07156 115.739 4.93193 116.911 4.92694C117.2 4.92694 117.469 5.00673 117.713 5.14137C117.958 5.27601 117.997 5.39569 117.843 5.65001C117.708 5.86444 117.863 6.12873 117.633 6.33817C117.529 6.43292 117.524 6.65233 117.314 6.69222C117.255 6.7022 117.21 6.777 117.21 6.84681C117.22 7.24076 117.015 7.56489 116.901 7.91894C116.821 8.16828 116.676 8.37273 116.422 8.51236C115.913 8.79161 115.42 9.13071 114.842 9.17559C114.134 9.23044 113.47 9.5047 112.753 9.51468C112.219 9.51966 111.691 9.70916 111.157 9.79892C110.369 9.93356 109.592 10.128 108.814 10.3175C107.902 10.5419 106.999 10.8112 106.107 11.1054C105.857 11.1852 105.603 11.255 105.344 11.2899C105.015 11.3348 104.82 11.5343 104.641 11.7886C104.337 12.2174 104.182 12.7311 103.863 13.1549C103.674 13.4093 103.484 13.6536 103.255 13.878C102.333 14.7756 101.64 15.8378 101.086 16.9947C101.051 17.0695 101.026 17.1443 100.972 17.2739C101.525 17.2141 102.034 17.1542 102.542 17.0994C103.051 17.0445 103.574 17.0645 104.043 16.8251C103.973 16.6207 103.838 16.6406 103.739 16.5908C103.325 16.3713 103.28 15.8477 103.654 15.5735C103.813 15.4588 103.998 15.364 104.182 15.3092C105.154 15.0249 106.127 14.7457 107.139 14.6061C107.917 14.4964 108.699 14.3817 109.477 14.267C109.866 14.2071 110.265 14.2171 110.659 14.1672C110.968 14.1273 111.287 14.1772 111.551 13.9428C111.641 13.8631 111.765 13.878 111.885 13.9229C112.319 14.0924 112.777 14.1373 113.241 14.1623C113.545 14.1772 113.819 14.3069 114.079 14.4515C114.233 14.5363 114.463 15.2144 114.423 15.394C114.393 15.5286 114.303 15.5884 114.173 15.5884C113.75 15.5934 113.321 15.5735 112.897 15.6034C112.538 15.6283 112.184 15.7031 111.82 15.6882C111.716 15.6832 111.621 15.748 111.606 15.8577C111.576 16.0921 111.416 16.117 111.222 16.1669C110.489 16.3514 109.741 16.4212 108.993 16.516C108.475 16.5808 108.231 16.6356 107.747 16.9099C107.956 17.1991 108.325 17.2839 108.555 17.5432C108.799 17.8225 108.794 18.0768 108.5 18.3012C108.29 18.4608 108.066 18.6104 107.817 18.6951C106.466 19.1589 105.1 19.5578 103.689 19.7723C102.602 19.9418 101.585 20.3357 100.573 20.7496C100.134 20.9292 99.6753 21.0688 99.2167 21.1885C98.9724 21.2533 98.8078 21.368 98.6782 21.5774C98.3342 22.1309 98.1497 22.7493 97.8955 23.3377C97.6661 23.8663 97.5116 24.4248 97.2922 24.9584C97.1925 25.1977 97.347 25.3623 97.362 25.5568C98.0151 25.6715 98.5984 25.4271 99.1518 25.2127C100.972 24.5196 102.816 23.9062 104.661 23.2928C105.628 22.9687 106.595 22.6296 107.568 22.3254C108.226 22.121 108.894 21.9016 109.572 21.8018C110.09 21.727 110.599 21.5525 111.127 21.5824C111.317 21.5924 111.441 21.4976 111.551 21.368C111.795 21.0788 112.099 21.004 112.473 20.984C113.296 20.9391 114.094 20.7446 114.866 20.4405C114.926 20.4155 114.986 20.3657 115.046 20.3607C115.779 20.3208 116.088 19.7822 116.432 19.2437C117.01 18.3411 117.638 17.4734 118.227 16.5808C119.259 15.02 120.366 13.509 121.482 12.003C122.465 10.6816 123.422 9.35012 124.384 8.01369C124.504 7.84913 124.633 7.70452 124.778 7.56489C125.261 7.08617 125.68 6.56756 125.964 5.93924C126.049 5.75473 126.214 5.63505 126.398 5.54529C126.608 5.44556 126.837 5.36577 127.016 5.22116C127.38 4.92695 127.779 4.85713 128.238 4.79231C128.726 4.72249 129.205 4.79729 129.689 4.74743C130.063 4.70753 130.466 4.80228 130.85 4.91199C130.99 4.95188 131.09 5.03166 131.154 5.14636C131.299 5.42063 131.498 5.53033 131.803 5.41564C131.877 5.38572 131.967 5.39569 132.047 5.39569C132.785 5.37076 133.184 5.6899 133.268 6.42793C133.378 7.3754 133.533 8.32785 133.453 9.28529C133.348 10.5918 133.393 11.9033 133.358 13.2098C133.343 13.7284 133.253 14.252 133.139 14.7656C133.064 15.0997 133.109 15.4239 133.084 15.753C133.069 15.9375 133.189 15.9874 133.338 15.9624C134.186 15.8178 135.043 15.763 135.901 15.7729C136.115 15.7779 136.23 15.6383 136.32 15.4737C136.678 14.8305 137.242 14.3119 137.491 13.5988C137.506 13.5539 137.551 13.519 137.586 13.4841C138.224 12.8109 138.862 12.1377 139.505 11.4695C139.954 11.0057 140.393 10.5369 140.871 10.1081C141.519 9.52465 142.178 8.94121 142.935 8.49241C143.165 8.35777 143.319 8.13337 143.529 7.96382C144.192 7.44022 144.97 7.0762 145.623 6.5526C146.056 6.20852 146.525 5.96417 146.999 5.70486C147.477 5.44556 147.871 5.0566 148.37 4.82223C148.764 4.63273 149.157 4.51305 149.606 4.52801C150.364 4.55294 151.132 4.47316 151.865 4.72748C152.348 4.89204 152.902 4.88207 153.3 5.27103C153.32 5.29097 153.36 5.29596 153.395 5.29596C154.078 5.38572 154.617 5.77966 155.1 6.20353C155.399 6.46284 155.664 6.76702 155.649 7.3006C155.619 8.37273 155.155 9.30524 154.911 10.3026C154.881 10.4173 154.851 10.502 154.896 10.6317C154.991 10.9159 155.04 11.1902 154.726 11.4296C154.577 11.5443 154.622 11.8085 154.686 11.9931C154.826 12.4219 154.726 12.7909 154.472 13.135C154.452 13.1599 154.422 13.1849 154.412 13.2148C154.073 14.0276 153.315 14.1573 152.588 14.3168C152.413 14.3567 152.224 14.2869 152.054 14.3966C152.029 14.4116 151.984 14.4216 151.959 14.4116C151.376 14.1124 150.593 14.1174 150.274 13.3993C150.17 13.1649 150.15 12.8956 150.11 12.6363C150.075 12.4119 150.12 12.1975 150.01 11.9631C149.945 11.8185 150.08 11.5692 150.15 11.3747C150.289 11.0057 150.449 10.6417 150.598 10.2727C150.633 10.1879 150.718 10.0931 150.628 10.0034C150.543 9.92358 150.449 9.99339 150.349 10.0183C149.272 10.2826 148.385 10.9109 147.467 11.4894C146.645 12.008 145.907 12.6363 145.104 13.1799C144.396 13.6586 143.658 14.1024 142.975 14.6111C142.502 14.9651 142.003 15.2992 141.599 15.743C141.51 15.8378 141.39 15.9275 141.47 16.0821C141.529 16.2018 141.649 16.2068 141.764 16.2267C142.522 16.3813 143.269 16.2068 144.017 16.1569C144.596 16.122 145.164 16.0422 145.732 15.9475C146.425 15.8328 147.133 15.9475 147.806 15.8328C148.579 15.6981 149.322 15.8577 150.075 15.8727C150.982 15.8926 151.81 16.2616 152.583 16.7254C152.797 16.855 153.006 17.0844 153.096 17.3138C153.35 17.9721 153.799 18.5056 154.153 19.0991C154.323 19.3883 154.397 19.6725 154.253 19.9767C154.063 20.3756 154.038 20.8145 154.013 21.2284C153.954 22.096 153.58 22.7244 152.917 23.2879C152.109 23.976 151.187 24.4148 150.224 24.7988C149.796 24.9684 149.357 25.1479 148.968 25.3623C148.584 25.5717 148.195 25.8011 147.796 25.9856C147.213 26.2549 146.68 26.579 146.156 26.9431C145.992 27.0578 145.887 27.362 145.593 27.2822C145.338 27.2124 145.179 27.4717 144.94 27.4717C144.745 27.4717 144.621 27.6362 144.466 27.726C144.396 27.7659 144.321 27.8357 144.351 27.9255C144.491 28.2845 144.202 28.3294 143.992 28.3693C143.803 28.4042 143.613 28.4441 143.394 28.4141C143.11 28.3742 142.761 28.3044 142.477 28.469C142.332 28.5488 142.068 28.5338 142.128 28.838C142.138 28.8929 141.973 29.0125 141.873 29.0425C141.619 29.1173 141.38 29.227 141.121 29.2768C140.846 29.3267 140.512 29.2818 140.353 29.6159C140.348 29.6259 140.323 29.6309 140.308 29.6359C139.675 29.7456 139.206 30.1844 138.653 30.4487C138.558 30.4936 138.498 30.5634 138.428 30.6332C138.134 30.9374 137.715 30.8476 137.361 30.9524C137.332 30.9623 137.277 30.9125 137.247 30.8776C137.052 30.6831 136.833 30.5684 136.544 30.5983C136.255 30.6282 136.165 30.3889 136.14 30.1844C136.11 29.9849 136.04 29.9251 135.861 29.9401C135.661 29.955 135.522 29.9002 135.417 29.7057C135.352 29.591 135.228 29.4913 135.093 29.4165C134.729 29.202 134.55 28.8081 134.42 28.459C134.285 28.1 134.475 27.6612 134.824 27.4767C135.382 27.1874 135.796 26.6838 136.399 26.4743C137.137 26.215 137.78 25.7712 138.493 25.4521C139.091 25.1878 139.615 24.7639 140.178 24.4198C141.375 23.6868 142.561 22.9388 143.783 22.2456C144.112 22.0611 144.356 21.742 144.715 21.5974C145.548 21.2683 146.281 20.7446 147.053 20.3108C147.253 20.2011 147.542 20.1413 147.562 19.8221C147.393 19.7623 147.218 19.7174 147.058 19.6426C146.864 19.5478 146.675 19.5578 146.485 19.6227C146.271 19.6975 146.061 19.8022 145.842 19.6326C145.782 19.5877 145.712 19.6227 145.658 19.6476C145.189 19.8919 144.66 19.847 144.162 19.9667C143.818 20.0515 143.474 20.1014 143.1 20.0764C142.721 20.0465 142.327 20.1961 141.938 20.2709C141.873 20.2809 141.804 20.3308 141.749 20.3158C141.29 20.231 140.846 20.3507 140.398 20.3756C139.874 20.4056 139.386 20.5302 138.907 20.6599C138.199 20.8544 137.611 20.6599 137.057 20.2809C136.868 20.1462 136.738 19.9069 136.619 19.6925C136.32 19.1738 135.956 18.6852 135.821 18.0868C135.781 17.9172 135.686 17.8723 135.547 17.8673C135.018 17.8524 134.475 17.8125 134.036 18.1965C133.832 18.376 133.557 18.3311 133.338 18.5256C132.919 18.8946 132.894 19.3534 132.939 19.8171C132.964 20.0615 133.009 20.2709 132.815 20.4504C132.685 20.5701 132.705 20.7197 132.705 20.8693C132.705 21.2184 132.67 21.5724 132.715 21.9165C132.79 22.49 132.565 23.0186 132.506 23.5721C132.496 23.6768 132.401 23.7367 132.311 23.7865C132.157 23.617 132.112 23.4125 132.127 23.1931C132.152 22.8291 132.102 22.47 132.037 22.111C132.022 22.0312 132.027 21.9165 131.927 21.9415C131.832 21.9614 131.648 21.9564 131.673 22.116C131.718 22.4401 131.603 22.7543 131.633 23.0834C131.688 23.7267 131.658 24.3799 131.658 25.0282C131.658 25.2277 131.404 25.3773 131.493 25.5767C131.563 25.7413 131.528 25.9258 131.623 26.1153C131.832 26.0106 131.832 25.7263 132.107 25.7064C132.122 26.0305 132.321 26.3247 132.171 26.6838C132.127 26.7935 132.221 26.963 132.241 27.1076C132.311 27.5515 132.122 27.9504 132.032 28.3593C131.977 28.6036 131.952 28.843 131.952 29.0923C131.952 29.3018 131.902 29.5262 131.718 29.606C131.344 29.7705 131.508 30.2692 131.159 30.4238C131.369 30.6631 131.194 30.9175 131.189 31.1668C131.189 31.3313 131.129 31.2715 131.015 31.2615C130.91 31.2516 130.771 31.3513 130.696 31.4411C130.476 31.7004 130.227 31.6505 129.973 31.5408C129.609 31.3862 129.419 31.102 129.385 30.708C129.37 30.5285 129.355 30.344 129.355 30.1645C129.35 29.9052 129.454 29.6359 129.245 29.4065C129.265 28.6834 129.055 27.9753 129.095 27.2523C129.125 26.7087 128.971 26.1851 128.986 25.6416C129.026 24.1206 128.986 22.5947 129.016 21.0738C129.026 20.615 128.806 20.1861 128.896 19.7224C128.926 19.5828 128.791 19.5877 128.692 19.5828C128.392 19.5728 128.108 19.6775 127.819 19.7324C127.056 19.872 126.323 20.1163 125.576 20.3158C125.446 20.3507 125.296 20.4554 125.192 20.246C125.142 20.1413 125.042 20.2161 124.982 20.256C124.334 20.63 123.571 20.6698 122.888 20.9591C122.639 21.0638 122.345 21.0588 122.125 21.2583C122.096 21.2882 122.036 21.3331 122.001 21.2683C121.921 21.1087 121.821 21.1236 121.682 21.1935C121.517 21.2782 121.363 21.348 121.278 21.5375C121.009 22.1309 120.56 22.6246 120.316 23.238C120.161 23.6319 119.932 23.996 119.568 24.2652C119.458 24.345 119.383 24.5096 119.349 24.6442C119.279 24.9384 119.149 25.1678 118.895 25.3424C118.725 25.462 118.631 25.6116 118.611 25.856C118.571 26.3197 118.222 26.6439 117.938 26.988C117.773 27.1874 117.569 27.337 117.574 27.6562C117.579 27.9404 117.279 28.1199 117.13 28.3543C116.921 28.6834 116.731 29.0425 116.357 29.2369C116.203 29.3167 116.148 29.4913 116.078 29.6409C115.983 29.8453 115.824 29.945 115.604 29.8902C115.41 29.8453 115.3 29.95 115.181 30.0697C114.986 30.2692 114.782 30.4637 114.463 30.4337C114.418 30.4288 114.338 30.4387 114.323 30.4687C114.134 30.8576 113.844 30.6532 113.56 30.6332C113.017 30.5933 112.463 30.6182 111.915 30.6133C111.631 30.6133 111.352 30.6232 111.067 30.6083C110.768 30.5933 110.674 30.4337 110.698 30.1296C110.773 29.217 111.097 28.3743 111.466 27.5515C111.696 27.0428 112.01 26.5741 112.284 26.0854C112.628 25.467 112.982 24.8586 113.301 24.2253C113.485 23.8613 113.74 23.5372 113.964 23.1333C113.515 23.0186 113.146 23.243 112.763 23.1981C112.349 23.1482 112.109 23.5272 111.79 23.7267C111.81 23.7965 111.825 23.8862 111.85 23.971C111.885 24.0907 112.05 24.2204 111.955 24.3251C111.855 24.4348 111.681 24.5245 111.526 24.5395C110.793 24.6143 110.15 24.9783 109.452 25.1579C109.193 25.2227 109.158 25.5518 108.879 25.5668C108.649 25.5817 108.415 25.5269 108.186 25.6067C108.081 25.6416 107.976 25.6864 107.842 25.7363C107.946 25.9557 108.196 25.7612 108.325 25.9457C107.877 26.1901 107.453 26.4394 106.949 26.5142C106.431 26.594 105.967 26.8583 105.459 26.973C105.035 27.4617 104.427 27.4567 103.863 27.5913C103.579 27.6562 103.34 27.8507 103.08 27.9803C102.432 28.3044 101.729 28.4989 101.096 28.8679C100.488 29.227 99.8299 29.5012 99.1419 29.6857C98.419 29.8802 97.7509 30.1944 97.0728 30.5036C96.325 30.8426 95.5273 30.9474 94.7496 30.698C93.9917 30.4587 93.2439 30.1794 92.4811 29.95C92.2617 29.8852 92.0623 29.7356 91.9177 29.5561C91.6635 29.2419 91.5289 28.853 91.2347 28.5538C91.0303 28.3443 91.2048 28.0551 91.2546 27.7808C90.8707 27.8556 90.6663 28.1449 90.4171 28.3443C89.1956 29.3267 87.8744 30.1196 86.4336 30.728C85.9948 30.9125 85.576 31.1468 85.0924 31.2067C85.0027 31.2166 84.903 31.2815 84.8332 31.3463C84.5141 31.6305 84.1003 31.6954 83.7214 31.84C83.6466 31.8699 83.5369 31.8649 83.4871 31.9148C83.1381 32.2838 82.6694 32.3137 82.2157 32.4284C81.8568 32.5182 81.5028 32.7027 81.2286 32.962C81.0491 33.1315 80.8447 33.2412 80.6204 33.2512C80.1717 33.2761 79.7529 33.3609 79.374 33.6152C79.3391 33.6402 79.2792 33.6352 79.2294 33.6352C78.9552 33.6352 78.661 33.7549 78.4267 33.7349C78.0927 33.705 77.8683 33.8745 77.5941 33.9344C77.3199 33.9942 77.0606 34.1089 76.7964 34.2037C76.6568 34.2535 76.5172 34.3034 76.3776 34.3582C76.2978 34.3882 76.228 34.4281 76.1383 34.4031C76.0735 34.3882 76.0037 34.3533 75.9887 34.2884C75.9688 34.2186 76.0137 34.1638 76.0835 34.1388C76.2231 34.084 76.3577 34.0241 76.4973 33.9743C76.8163 33.8696 77.0856 33.69 77.3448 33.4856C77.6689 33.3809 77.9929 33.2712 78.317 33.1664C78.4217 33.1315 78.4317 33.0617 78.4117 32.9769C78.3818 32.8672 78.312 32.8772 78.2223 32.9121C77.9231 33.0368 77.619 33.1515 77.3149 33.2712C76.7067 33.321 76.1433 33.6352 75.4902 33.5255C75.1661 33.4706 74.847 33.7449 74.523 33.8696C73.8848 34.1239 73.2417 34.3632 72.5536 34.4331C72.5487 34.3882 72.5237 34.2984 72.5337 34.2984C72.7331 34.2186 72.8677 34.0391 73.112 34.0042C73.3513 33.9693 73.6405 33.9194 73.7701 33.6402C73.7701 33.6402 73.7951 33.6452 73.8001 33.6501C73.83 33.71 73.825 33.5803 73.8549 33.5454C73.2766 33.8197 72.7979 34.0341 72.3243 34.2485ZM87.326 12.9256C87.0518 12.9206 86.8823 13.0901 86.6779 13.2946C87.0119 13.3444 87.1515 13.1051 87.3509 12.9854C87.5254 12.9355 87.7099 12.9006 87.7996 12.6313C87.5703 12.6962 87.4257 12.776 87.326 12.9256ZM88.014 12.5416C88.4278 12.4069 88.717 12.0529 89.1358 11.9332C88.6222 11.9382 88.3431 12.0828 87.9691 12.5067C87.9292 12.5216 87.8794 12.5466 87.9243 12.5915C87.9641 12.6313 87.999 12.5865 88.014 12.5416ZM79.4687 12.5915C79.6731 12.6912 79.8177 12.5416 79.9772 12.4718C81.1887 11.9282 82.2855 11.1852 83.4572 10.5669C84.7584 9.88369 86.0347 9.14567 87.316 8.42759C88.0389 8.02367 88.7818 7.65964 89.4598 7.19089C90.2027 6.67726 90.8857 6.07388 91.5737 5.49044C91.7682 5.32588 92.0623 5.25606 92.1221 4.97183C92.0573 4.85215 91.9576 4.84217 91.8579 4.84716C91.2696 4.88207 90.6963 4.75241 90.093 4.81724C89.1308 4.92196 88.1735 5.03166 87.2213 5.2062C86.987 5.25108 86.7826 5.44556 86.5831 5.39569C86.3438 5.33086 86.1743 5.41564 85.9749 5.47548C85.7904 5.53033 85.601 5.62009 85.4165 5.63006C84.215 5.6899 83.1929 6.27833 82.116 6.71217C81.9864 6.76204 81.8119 6.93159 81.9366 7.06124C82.2157 7.37041 82.0512 7.64468 81.9415 7.93391C81.777 8.37772 81.6923 8.88636 81.423 9.25537C80.6453 10.3076 80.0321 11.4495 79.4587 12.6164C79.4836 12.5964 79.4936 12.6164 79.4787 12.6214C79.4188 12.6214 79.5086 12.6413 79.4687 12.5915ZM69.2183 29.96C69.8963 29.7107 70.5694 29.4314 71.2624 29.212C72.7082 28.7532 74.164 28.3294 75.6098 27.8706C77.1952 27.3669 78.7707 26.8433 80.3561 26.3347C82.2806 25.7213 84.1551 24.9783 85.95 24.0658C86.4934 23.7915 87.0169 23.4724 87.5653 23.2081C87.9691 23.0086 88.3431 22.7144 88.5225 22.2506C88.5724 22.116 88.6322 21.9863 88.7668 21.8866C88.8965 21.7918 89.0161 21.6223 88.9413 21.4577C88.8267 21.2034 88.707 20.9341 88.4378 20.8045C88.1037 20.6499 87.8295 20.4105 87.5404 20.1961C87.3758 20.0764 87.2113 20.0016 87.0119 19.9518C86.5233 19.8221 86.0397 19.6625 85.5611 19.488C85.1971 19.3534 84.8681 19.0891 84.4443 19.2736C84.4094 19.2885 84.3346 19.2786 84.3047 19.2536C83.9408 18.9245 83.4572 18.9794 83.0384 18.9345C82.3204 18.8597 81.6175 18.6702 80.8995 18.6054C80.6951 18.5854 80.4957 18.5056 80.2913 18.5904C79.9672 18.3112 79.5534 18.4109 79.1795 18.3361C78.6461 18.2264 78.0976 18.2713 77.5592 18.1715C77.2252 18.1067 77.1105 18.1715 77.0008 18.5056C76.9011 18.8098 76.7465 19.0791 76.592 19.3534C76.4324 19.6426 76.248 19.9268 76.1433 20.236C75.884 21.0389 75.565 21.8118 75.1163 22.5349C74.8769 22.9138 74.6476 23.2928 74.1939 23.4574C73.9696 23.5372 73.82 23.7267 73.6754 23.9062C73.6256 23.966 73.6106 24.0807 73.5258 24.0957C73.127 24.1555 73.127 24.5295 72.9824 24.7839C72.9026 24.9235 72.8727 25.093 72.8229 25.2526C72.7331 25.5318 72.6185 25.7812 72.2545 25.7313C72.1448 25.7164 72.08 25.8161 72.1 25.8809C72.1897 26.1452 72.0601 26.2549 71.8607 26.3945C71.6313 26.5591 71.6313 26.9481 71.2773 27.0129C71.377 27.2822 71.1078 27.4318 71.058 27.6612C70.9882 27.9803 70.8286 28.2795 70.7239 28.5937C70.6143 28.9278 70.3251 29.0425 70.0459 29.1173C69.7418 29.197 69.7218 29.1572 69.647 29.2868C69.5224 29.4913 69.3379 29.6309 69.1734 29.7905C69.0438 29.8802 68.8444 29.9002 68.7845 30.1445C68.969 30.1296 69.0936 30.0498 69.2183 29.96ZM129.16 11.4096C128.946 11.4445 128.871 11.5692 128.791 11.6889C128.203 12.5565 127.475 13.3195 126.917 14.2171C126.627 14.6809 126.164 15.0349 125.974 15.5785C125.954 15.6383 125.895 15.6832 125.845 15.7231C125.092 16.2965 124.773 17.1941 124.155 17.9521C125.685 17.5781 127.176 17.3338 128.592 16.8052C128.981 16.6606 129.006 16.6705 128.981 16.2666C128.916 15.1596 129.18 14.0675 129.065 12.9605C129.06 12.8906 129.08 12.8358 129.1 12.771C129.245 12.3371 129.14 11.8883 129.16 11.4096ZM70.2702 28.2596C70.3899 28.2197 70.4298 28.1199 70.4298 28.0003C70.4298 27.9504 70.3999 27.9005 70.345 27.9105C70.2104 27.9404 70.1905 28.0601 70.1705 28.1698C70.1606 28.2197 70.2054 28.2546 70.2702 28.2596ZM131.244 21.6622C131.139 21.8467 131.12 22.0561 131.244 22.2606C131.244 22.0611 131.244 21.8617 131.244 21.6622ZM79.5784 32.6777C79.5634 32.6528 79.5534 32.6079 79.5335 32.6029C79.4836 32.583 79.4388 32.6129 79.4338 32.6678C79.4288 32.6927 79.4537 32.7376 79.4737 32.7426C79.5235 32.7575 79.5634 32.7326 79.5784 32.6777ZM79.1945 32.0993C79.1396 32.1093 79.1147 32.1492 79.1297 32.199C79.1346 32.219 79.1795 32.2439 79.2044 32.2389C79.2593 32.2339 79.2842 32.194 79.2693 32.1442C79.2643 32.1242 79.2194 32.1143 79.1945 32.0993ZM79.4936 32.0045C79.4388 32.0195 79.4138 32.0544 79.4288 32.1043C79.4338 32.1242 79.4787 32.1492 79.5036 32.1442C79.5584 32.1392 79.5883 32.0993 79.5684 32.0444C79.5634 32.0245 79.5185 32.0145 79.4936 32.0045ZM116.372 28.3593C116.397 28.3493 116.437 28.3443 116.452 28.3244C116.477 28.2795 116.457 28.2346 116.412 28.2197C116.392 28.2147 116.347 28.2296 116.337 28.2496C116.307 28.2895 116.322 28.3344 116.372 28.3593ZM117.389 26.1153C117.339 26.1352 117.319 26.1751 117.344 26.22C117.354 26.24 117.399 26.2599 117.424 26.2549C117.474 26.24 117.494 26.1951 117.469 26.1502C117.459 26.1302 117.414 26.1253 117.389 26.1153ZM111.601 24.2104C111.591 24.1805 111.586 24.1406 111.566 24.1256C111.521 24.1007 111.471 24.1206 111.456 24.1705C111.451 24.1954 111.466 24.2403 111.491 24.2503C111.536 24.2802 111.576 24.2603 111.601 24.2104ZM117.773 25.6565C117.803 25.6216 117.833 25.5867 117.863 25.5518C117.843 25.5368 117.818 25.5119 117.798 25.5119C117.743 25.5119 117.708 25.5468 117.713 25.6017C117.708 25.6166 117.743 25.6316 117.773 25.6565Z" fill="white"/>
<path d="M29.0643 31.7302C28.7552 32.1191 28.6704 32.6427 28.3713 33.0566C28.117 32.9719 28.0173 32.7076 27.788 32.5929C27.6683 32.7325 27.6534 32.902 27.6135 33.0716C27.5437 33.4007 27.434 33.4905 27.095 33.4655C26.6214 33.4306 26.1527 33.3608 25.6791 33.306C25.2503 33.2561 24.9611 33.0267 24.7717 32.6328C24.6421 32.3635 24.6221 32.3735 24.2881 32.4433C24.323 31.8499 24.318 31.2664 24.3429 30.683C24.3828 29.7205 24.677 28.813 24.7817 27.8655C24.8564 27.1724 25.1307 26.5091 25.3301 25.8359C25.8237 24.1804 26.3721 22.5497 26.9454 20.9241C27.3792 19.6924 27.773 18.4407 28.2616 17.229C28.7701 15.9623 29.2886 14.6957 29.7723 13.4191C29.9019 13.08 30.1212 12.7659 30.1462 12.3819C29.9617 12.352 29.8919 12.4916 29.8072 12.5814C29.2288 13.1897 28.6455 13.7881 28.132 14.4514C27.5038 15.2542 26.8706 16.0571 26.2724 16.8899C25.8137 17.5331 25.3401 18.1664 24.9312 18.8446C24.6371 19.3333 24.2981 19.812 23.8743 20.211C23.6599 20.4104 23.4854 20.6299 23.3707 20.9241C23.2262 21.2881 22.9121 21.5723 22.6329 21.8416C21.4513 22.9636 20.494 24.2701 19.5418 25.5766C19.3723 25.806 19.1828 26.0055 18.9435 26.1601C18.5148 26.4443 18.091 26.7285 17.6722 27.0228C17.5675 27.0976 17.4578 27.0926 17.3431 27.1026C16.7 27.1724 16.0618 27.2671 15.4486 27.4815C15.0099 27.6311 14.5811 27.6112 14.1374 27.5015C13.6488 27.3818 13.3248 27.0676 13.2201 26.6188C13.1054 26.1202 12.7863 25.7113 12.7115 25.2026C12.6966 25.1079 12.6716 25.0181 12.6716 24.9184C12.6816 24.0357 12.6816 23.1581 12.6816 22.2755C12.6816 21.7868 12.8062 21.308 12.8362 20.8293C12.876 20.2259 13.0854 19.6525 13.0555 19.0341C13.0406 18.7499 13.1253 18.4307 13.1752 18.1266C13.2998 17.3137 13.3646 16.5009 13.4594 15.6831C13.4893 15.4088 13.589 15.1395 13.6488 14.8703C13.8283 14.0325 13.6937 13.1898 13.6638 12.3171C13.5242 12.5016 13.3746 12.6861 13.24 12.8756C12.6218 13.7333 12.1083 14.6608 11.5947 15.5834C10.9416 16.7502 10.3483 17.947 9.73512 19.1388C9.04711 20.4703 8.40396 21.8267 7.93532 23.2578C7.78076 23.7316 7.51653 24.1504 7.2822 24.5893C7.07281 24.9782 6.99802 25.3871 6.98307 25.826C6.95814 26.4144 6.84347 26.9879 6.68892 27.5663C6.52439 28.1847 6.18038 28.7382 6.1056 29.3864C6.07569 29.6557 5.88623 29.93 5.68681 30.1644C5.32286 30.5982 5.08854 31.0869 4.97885 31.6604C4.88413 32.174 4.7545 32.7026 4.31078 33.0616C4.15623 33.1863 4.00168 33.3159 3.76237 33.2561C3.7524 33.0666 3.74243 32.8871 3.72747 32.7076C3.54799 32.6826 3.4732 32.7574 3.4383 32.912C3.39842 33.1065 3.26381 33.2661 3.06937 33.2661C2.33649 33.2611 1.63352 33.5553 0.890661 33.4755C0.790949 33.4655 0.701208 33.4556 0.601496 33.4207C0.0431089 33.2411 0.0131953 33.2012 0.00322407 32.6228C-0.00674713 31.9496 -0.00674714 31.2764 0.207634 30.6231C0.242533 30.5184 0.227576 30.3937 0.222591 30.2791C0.197663 29.5859 0.357202 28.9327 0.666309 28.3143C0.721151 28.1996 0.71118 28.0849 0.706194 27.9752C0.686252 27.4716 0.75605 27.0028 0.970431 26.5291C1.14493 26.1451 1.21971 25.7163 1.29449 25.2874C1.40916 24.6242 1.62354 23.9809 1.86285 23.3476C2.64559 21.2831 3.26381 19.1688 4.02162 17.0943C4.56505 15.5983 5.09851 14.1023 5.6569 12.6163C6.23523 11.0754 6.84846 9.54948 7.5265 8.04849C8.1846 6.5874 8.85765 5.12631 9.67529 3.74002C9.90961 3.34607 10.1589 2.94714 10.453 2.59807C10.6375 2.37866 10.9616 2.28391 11.156 2.06949C11.4402 1.76031 11.7942 1.61071 12.1731 1.48604C12.6866 1.31649 12.891 1.39628 13.2201 1.84009C13.3896 2.06449 13.6588 2.07447 13.8881 2.07946C14.9002 2.08943 15.9023 2.23903 16.9194 2.18417C17.378 2.15924 17.7819 2.30386 18.1658 2.56815C18.4749 2.78258 18.8638 2.86236 19.2277 2.93716C19.6365 3.02692 19.9506 3.22639 20.2448 3.50564C20.6935 3.93449 21.0574 4.4182 21.4014 4.92684C21.5311 5.12132 21.5859 5.32578 21.6058 5.52026C21.6707 6.11866 21.6308 6.72204 21.4463 7.30548C21.3117 7.74431 21.3017 8.22303 21.1322 8.63692C20.8979 9.22535 20.853 9.84868 20.6835 10.4421C20.6237 10.6465 20.5339 10.841 20.4641 11.0405C20.1849 11.8882 20.0802 12.7609 19.9406 13.6336C19.7063 15.0548 19.3872 16.461 19.0183 17.8523C18.9535 18.1016 18.9984 18.326 18.9984 18.5754C19.3723 18.2313 19.6764 17.8523 19.9406 17.4434C20.4641 16.6405 20.9976 15.8476 21.5859 15.0897C21.9249 14.6508 22.1144 14.1073 22.4783 13.6784C22.7126 13.3992 22.937 13.1149 23.1913 12.8556C23.4206 12.6163 23.625 12.362 23.7796 12.0628C24.0239 11.589 24.3728 11.2001 24.7318 10.8161C25.1157 10.4072 25.5145 10.0083 25.8386 9.54948C25.8685 9.50959 25.8984 9.46471 25.9333 9.43479C26.6214 8.85135 27.1099 8.09338 27.7182 7.43514C27.9774 7.1509 28.2865 6.89159 28.4212 6.49764C28.466 6.36799 28.6156 6.27823 28.7253 6.17351C29.0394 5.86433 29.2986 5.5053 29.5479 5.14127C29.7623 4.83708 30.0564 4.58775 30.3207 4.32844C30.7245 3.92951 31.1732 3.57546 31.4873 3.09674C31.6568 2.84242 31.8961 2.67287 32.1255 2.49335C32.5891 2.12434 33.0428 1.73537 33.4616 1.31649C33.676 1.10207 33.9452 1.03225 34.2144 0.967427C34.723 0.84276 35.2415 0.767962 35.6254 0.339108C35.745 0.204468 35.9793 0.119695 36.1638 0.114708C36.787 0.089775 37.4202 0.0199654 38.0384 0.199485C38.0982 0.219432 38.173 0.239376 38.2129 0.284256C38.6716 0.777936 39.2898 1.03725 39.8282 1.42122C40.3866 1.82015 40.8652 2.28889 41.2441 2.85737C41.5931 3.37599 41.5682 3.97439 41.4585 4.53788C41.294 5.3557 41.0447 6.16354 40.5511 6.86666C40.5262 6.90156 40.5312 6.9614 40.5212 7.02124C40.8503 7.09105 41.1344 6.93647 41.4336 6.88162C42.2612 6.74199 43.0489 6.45775 43.8616 6.25329C44.6892 6.04385 45.5317 5.90921 46.3743 5.80449C46.7133 5.75961 47.0523 5.68481 47.3864 5.60503C47.9797 5.4654 48.5829 5.40556 49.1812 5.32577C50.4775 5.14625 51.7837 5.17119 53.0899 5.12132C53.6982 5.09639 54.3114 5.02657 54.9196 5.05649C56.4851 5.13129 58.0356 5.30583 59.5014 5.90423C60.2443 6.20841 60.8026 6.737 61.2912 7.35535C61.4258 7.5249 61.4657 7.69943 61.4607 7.90388C61.4508 8.25295 61.6701 8.61199 61.386 8.94609C61.366 8.97103 61.4258 9.06079 61.4458 9.12562C61.5904 9.55946 61.5455 10.0083 61.5505 10.4521C61.5555 10.6914 61.5006 10.9258 61.3411 11.0954C61.0768 11.3746 60.8774 11.6937 60.6531 12.0029C60.5733 12.1126 60.5185 12.2173 60.339 12.1575C60.1396 12.0927 59.9601 12.2473 59.7706 12.2822C59.7008 12.2971 59.6659 12.342 59.646 12.4168C59.4914 12.9654 59.0377 13.2845 58.6239 13.5837C57.8013 14.1821 56.874 14.586 55.8868 14.8603C55.473 14.975 55.1191 15.2941 54.7052 15.4437C54.1469 15.6482 53.7281 16.107 53.1448 16.2366C52.8107 16.3114 52.5166 16.4411 52.2473 16.6405C52.1676 16.6954 52.1077 16.7353 52.0828 16.855C52.028 17.1591 51.8635 17.4384 51.5593 17.5232C51.3649 17.578 51.3499 17.6728 51.3799 17.7974C51.5095 18.2911 51.4397 18.8047 51.5942 19.3084C51.7438 19.8071 51.7737 20.3356 51.8585 20.8543C51.9432 21.4028 52.033 21.9513 52.1077 22.5048C52.1825 23.0434 52.2473 23.582 52.3171 24.1205C52.4019 24.7538 52.5166 25.3871 52.5664 26.0254C52.5963 26.4194 52.6412 26.8034 52.7708 27.1773C52.8257 27.3369 52.7459 27.4915 52.6312 27.5763C52.3022 27.8206 52.2274 28.1547 52.2274 28.5287C52.2274 28.7731 52.1825 28.9526 51.9133 29.0773C51.684 29.182 51.674 29.4762 51.664 29.7255C51.6491 30.1943 51.4995 30.3389 51.0259 30.2691C50.622 30.2092 50.2282 30.0945 49.8243 30.0197C49.6149 29.9799 49.4803 29.8652 49.3607 29.6856C49.1214 29.3266 48.9668 28.9177 48.6826 28.5936C48.5381 28.424 48.6178 28.2146 48.543 28.0251C48.2439 27.2871 48.1492 26.5041 48.0495 25.7163C47.875 24.3798 47.5559 23.0683 47.2518 21.7568C47.167 21.3878 47.0673 21.0188 47.0922 20.6398C47.1022 20.4503 47.0424 20.2808 46.9826 20.1112C46.823 19.6425 46.6535 19.1837 46.494 18.72C46.4291 18.5255 46.3294 18.4607 46.13 18.5554C45.7461 18.7399 45.3174 18.6302 44.9135 18.72C44.754 18.7549 44.6593 18.7898 44.739 18.9593C44.8238 19.1289 44.7191 19.1987 44.6044 19.2735C44.2006 19.5228 43.8017 19.7721 43.5275 20.1811C43.4478 20.3057 43.3431 20.4154 43.2932 20.5551C43.019 21.2831 42.6152 21.9513 42.326 22.6744C42.0468 23.3775 41.633 24.0208 41.3887 24.7389C41.3139 24.9583 41.1943 25.1577 41.1245 25.3772C41.0796 25.5118 41.0347 25.5816 40.8901 25.6415C40.6159 25.7512 40.6708 26.0703 40.6409 26.2897C40.596 26.5939 40.5362 26.8682 40.3667 27.1225C40.3417 27.1624 40.3367 27.2472 40.3068 27.2571C39.7484 27.4367 39.7734 27.9353 39.6786 28.3741C39.6637 28.444 39.6587 28.5238 39.5789 28.5238C39.1552 28.5188 39.1053 28.8678 39.0056 29.1421C38.8909 29.4612 38.5369 29.6009 38.4622 30.0547C38.3325 29.7754 38.1929 29.7555 37.9935 29.7854C37.6994 29.8253 37.3753 29.7255 37.141 30.0048C37.0762 30.0796 36.9565 30.1095 36.8618 30.0696C36.423 29.91 35.9743 29.9848 35.5306 29.9948C35.1517 29.9998 34.9772 29.8352 34.9124 29.3515C34.8077 28.5537 35.1118 27.8456 35.3611 27.1175C35.9245 25.4869 36.423 23.8363 36.9316 22.1907C37.121 21.5773 37.3853 20.9889 37.6196 20.3955C37.6994 20.191 37.8639 20.0265 37.6595 19.7722C37.5448 19.6325 37.7243 19.2984 37.9287 19.2186C38.2827 19.084 38.4472 18.8197 38.5918 18.4856C39.2599 16.9297 40.0725 15.4487 40.8752 13.9627C41.2192 13.3244 41.5532 12.6761 41.8274 11.9979C41.9969 11.5741 42.2363 11.1701 42.4556 10.7363C42.2014 10.6067 42.0269 10.7313 41.8524 10.841C41.633 10.9856 41.4236 11.1502 41.1743 11.2549C40.7805 11.4245 40.5112 11.4045 40.247 11.0904C40.0077 10.8111 39.6637 10.6815 39.4244 10.4022C39.2997 10.2576 39.0754 10.2277 38.876 10.2077C38.6666 10.1828 38.5419 10.2626 38.4572 10.467C38.2278 11.0255 37.9486 11.5541 37.5797 12.0478C37.3603 12.342 37.2058 12.7011 37.0961 13.0751C36.9914 13.4391 36.8369 13.7881 36.6723 14.1272C36.3483 14.8004 36.0242 15.4687 35.6154 16.097C35.5605 16.1817 35.5107 16.2566 35.4808 16.3563C35.3013 16.9796 35.0171 17.5581 34.718 18.1315C34.3341 18.8596 34.0599 19.6275 33.8056 20.4055C33.6311 20.939 33.4117 21.4576 33.1724 21.9663C33.0129 22.3004 32.9481 22.6495 32.8783 23.0035C32.8434 23.178 32.8334 23.4074 32.6838 23.5022C32.3498 23.7166 32.3249 24.1155 32.0906 24.3898C31.9609 24.5444 31.8562 24.7887 31.936 25.078C32.0357 25.432 31.8064 25.7811 31.6967 26.1152C31.607 26.3895 31.5372 26.6388 31.587 26.928C31.6618 27.3968 31.4574 27.8356 31.3876 28.2894C31.3826 28.3193 31.3676 28.3592 31.3427 28.3741C30.9189 28.6733 30.9887 29.1371 30.9289 29.561C30.8392 30.1943 30.7345 30.8226 30.6497 31.4559C30.6198 31.6853 30.6497 31.9197 30.6397 32.154C30.6348 32.3385 30.6148 32.5231 30.3705 32.3136C30.3257 32.2737 30.2708 32.2737 30.2459 32.3136C30.0265 32.6876 29.9966 32.2787 29.9019 32.2189C29.857 32.1889 29.877 32.0643 29.867 31.9845C29.862 31.8997 29.857 31.8149 29.7423 31.805C29.6526 31.795 29.5778 31.8349 29.5329 31.9097C29.4831 31.9945 29.4432 32.0892 29.3983 32.174C29.3634 32.2388 29.3036 32.2687 29.2338 32.2588C29.1241 32.2438 29.1291 32.159 29.1142 32.0743C29.1241 31.9496 29.2388 31.8499 29.0643 31.7302ZM46.2497 15.3141C46.8679 15.1545 47.3266 14.8553 47.8301 14.6459C49.4604 13.9677 51.1106 13.3443 52.711 12.6013C53.0849 12.4268 53.4788 12.3021 53.8527 12.1276C54.8 11.6888 55.6725 11.1153 56.535 10.5368C56.8889 10.2975 57.223 10.0282 57.552 9.74895C57.8761 9.4697 57.8163 9.18047 57.4174 9.04583C57.3725 9.03087 57.3177 9.03087 57.2728 9.02089C56.7892 8.92116 56.3056 8.85135 55.8121 8.82143C55.3284 8.79151 54.8598 8.95108 54.3812 8.92116C53.8976 8.89124 53.4339 9.01591 52.9553 9.04084C52.3022 9.07575 51.6541 9.20041 51.0109 9.31511C50.3329 9.43479 49.6698 9.62428 48.9868 9.71903C48.7774 9.74895 48.6577 9.85865 48.7026 10.1379C48.7724 10.5668 48.6926 10.9707 48.4284 11.3596C48.209 11.6838 47.9448 12.0229 47.8351 12.3869C47.6406 13.0302 47.2268 13.5039 46.843 14.0126C46.5638 14.3866 46.4142 14.8154 46.2497 15.3141ZM30.1212 31.7202C30.216 31.7302 30.2758 31.6753 30.2808 31.6155C30.2957 31.2016 30.2957 30.7877 30.2957 30.3688C30.2957 30.2691 30.2309 30.2192 30.1362 30.2242C30.0116 30.2292 29.9717 30.309 29.9717 30.4237C29.9767 30.8675 29.9218 31.3113 30.1212 31.7202ZM31.1184 26.1102C31.1882 26.0853 31.228 26.0304 31.2081 25.9656C31.1882 25.9057 31.1483 25.811 31.1184 25.811C31.0087 25.811 31.0336 25.9157 31.0336 25.9855C31.0286 26.0454 31.0386 26.1052 31.1184 26.1102ZM30.1611 12.2822C30.1761 12.2971 30.1861 12.3071 30.196 12.3171C30.206 12.2971 30.221 12.2722 30.2259 12.2523C30.2259 12.2423 30.206 12.2323 30.196 12.2174C30.1811 12.2423 30.1711 12.2622 30.1611 12.2822Z" fill="white"/>
<path d="M158.865 7.51015C159.738 7.67969 160.655 7.32065 161.602 7.17604C162.525 7.03641 163.417 6.7422 164.364 6.72724C164.948 6.71726 165.531 6.57265 166.114 6.48788C166.179 6.47791 166.244 6.45298 166.309 6.45796C166.912 6.52279 167.47 6.24353 168.054 6.20364C168.597 6.16374 169.131 6.07398 169.664 5.97924C170.412 5.84958 171.165 5.79473 171.913 5.72492C172.536 5.67007 173.159 5.58031 173.787 5.60025C174.485 5.62519 175.183 5.61022 175.881 5.60524C176.086 5.60524 176.27 5.63516 176.444 5.75983C176.784 5.99919 176.788 5.99918 176.519 6.30337C176.37 6.47292 176.39 6.70231 176.589 6.83695C176.664 6.88681 176.759 6.96162 176.704 7.0065C176.504 7.16108 176.474 7.27079 176.704 7.42039C176.749 7.45031 176.739 7.62484 176.669 7.63481C176.4 7.67471 176.454 8.03375 176.185 8.08361C176.011 8.11353 175.971 8.35788 175.996 8.44764C176.061 8.67204 175.991 8.82663 175.861 8.98121C175.717 9.14577 175.557 9.31033 175.338 9.33028C174.67 9.38513 174.016 9.54471 173.353 9.63447C172.82 9.70428 172.247 9.72921 171.758 10.0533C171.554 10.188 171.299 10.2379 171.055 10.2678C170.402 10.3525 170.282 10.4672 170.257 11.0906C170.247 11.3997 170.138 11.6491 169.928 11.8884C169.669 12.1827 169.5 12.5517 169.185 12.806C169.151 12.8359 169.126 12.8908 169.121 12.9356C169.031 13.7734 168.492 14.4067 168.153 15.1348C168.104 15.2445 168.014 15.3243 167.909 15.3791C167.814 15.429 167.76 15.5088 167.72 15.5985C167.291 16.556 166.807 17.4885 166.428 18.4659C165.93 19.7574 165.381 21.024 164.883 22.3156C164.624 22.9888 164.424 23.6869 164.115 24.3451C163.796 25.0283 163.512 25.7314 163.218 26.4345C163.128 26.649 163.063 26.8684 162.988 27.0878C162.909 27.3172 162.864 27.5516 162.56 27.6313C162.405 27.6712 162.335 27.8657 162.275 28.0253C162.071 28.5639 161.877 29.1024 161.677 29.641C161.592 29.8753 161.448 30.0798 161.338 30.3042C161.124 30.738 160.496 30.9575 159.977 30.8278C159.349 30.6682 158.756 30.8727 158.322 31.3564C158.102 31.6007 157.888 31.8501 157.499 31.7603C157.33 31.7204 157.215 31.6656 157.22 31.4761C157.23 31.2118 157.195 30.9475 157.265 30.6832C157.424 30.0698 157.554 29.4465 157.724 28.8381C158.003 27.8308 158.287 26.8285 158.611 25.8361C158.98 24.7141 159.274 23.5672 159.663 22.4502C160.167 20.9991 160.75 19.5779 161.298 18.1467C161.832 16.7504 162.46 15.3941 163.003 14.0028C163.243 13.3944 163.487 12.7711 163.801 12.1926C163.856 12.0929 163.916 11.9882 163.946 11.8785C163.98 11.7438 163.856 11.664 163.781 11.7239C163.522 11.9283 163.238 11.8136 162.978 11.7937C162.31 11.7488 161.797 12.0281 161.348 12.4769C161.303 12.5217 161.248 12.6265 161.228 12.6165C160.79 12.4519 160.481 12.9556 160.042 12.8409C159.872 12.796 159.683 12.811 159.533 12.6913C159.508 12.6713 159.483 12.6414 159.454 12.6364C158.556 12.4918 158.342 11.674 157.908 11.0706C157.823 10.9509 157.744 10.8263 157.634 10.7265C157.519 10.6318 157.404 10.552 157.375 10.3875C157.35 10.2528 157.24 10.1631 157.105 10.1182C156.821 10.0184 156.751 9.7691 156.756 9.51977C156.761 9.2455 156.786 8.93633 156.966 8.7219C157.265 8.35289 157.609 8.02377 157.948 7.68468C158.172 7.46028 158.471 7.50516 158.865 7.51015Z" fill="white"/>
<path d="M72.3247 34.2486C72.8033 34.0342 73.277 33.8197 73.8453 33.5654C73.8154 33.6003 73.8204 33.73 73.7905 33.6701C73.7855 33.6652 73.7606 33.6552 73.7606 33.6602C73.6309 33.9394 73.3418 33.9843 73.1025 34.0242C72.8582 34.0591 72.7236 34.2386 72.5241 34.3184C72.5142 34.3234 72.5341 34.4082 72.5441 34.4531C72.3596 34.5079 72.3496 34.3733 72.3247 34.2486Z" fill="white"/>
<path d="M70.2704 28.2595C70.2056 28.2595 70.1607 28.2246 70.1707 28.1698C70.1906 28.0601 70.2106 27.9404 70.3452 27.9105C70.405 27.9005 70.4299 27.9504 70.4299 28.0002C70.4299 28.1199 70.3901 28.2196 70.2704 28.2595Z" fill="white"/>
<path d="M79.5776 32.678C79.5626 32.7328 79.5228 32.7577 79.4729 32.7428C79.453 32.7378 79.428 32.6929 79.433 32.668C79.438 32.6131 79.4829 32.5882 79.5327 32.6032C79.5527 32.6081 79.5626 32.653 79.5776 32.678Z" fill="white"/>
<path d="M79.1941 32.0994C79.219 32.1143 79.2589 32.1243 79.2689 32.1442C79.2838 32.1941 79.2589 32.239 79.2041 32.239C79.1791 32.239 79.1392 32.219 79.1293 32.1991C79.1143 32.1492 79.1392 32.1143 79.1941 32.0994Z" fill="white"/>
<path d="M79.4945 31.9998C79.5194 32.0147 79.5593 32.0247 79.5693 32.0446C79.5892 32.0945 79.5593 32.1394 79.5045 32.1444C79.4795 32.1444 79.4347 32.1244 79.4297 32.1045C79.4147 32.0546 79.4397 32.0147 79.4945 31.9998Z" fill="white"/>
<path d="M79.469 12.5916C79.5089 12.6464 79.4242 12.6215 79.489 12.6115C79.5039 12.6115 79.494 12.5866 79.469 12.6115C79.4641 12.6115 79.469 12.5916 79.469 12.5916Z" fill="white"/>
<path d="M30.1615 12.2824C30.1715 12.2624 30.1864 12.2375 30.1964 12.2175C30.2064 12.2275 30.2313 12.2425 30.2263 12.2524C30.2213 12.2774 30.2064 12.2973 30.1964 12.3173C30.1864 12.3073 30.1715 12.2973 30.1615 12.2824Z" fill="white"/>
</svg>
