<svg width="16" height="16" viewBox="0 0 16 16" fill="none" xmlns="http://www.w3.org/2000/svg">
<path d="M3.57543 15.8044C3.4076 15.8044 3.2158 15.7543 3.07194 15.6291C2.78424 15.4036 2.66436 15.0529 2.73628 14.7023L3.67133 10.2942C3.69531 10.1439 3.64735 10.0186 3.55145 9.91839L0.290783 6.91284C0.027052 6.66238 -0.0688501 6.28668 0.0510275 5.96107C0.170905 5.61043 0.434635 5.35996 0.794268 5.33492L5.08589 4.90912C5.22974 4.88408 5.34962 4.80894 5.39757 4.6837L7.12381 0.551024C7.26766 0.225419 7.57934 0 7.915 0C8.27463 0 8.58631 0.200372 8.70619 0.551024L10.4325 4.6837C10.4804 4.80894 10.6003 4.90912 10.7441 4.90912L15.0357 5.33492C15.3954 5.35996 15.6831 5.61043 15.7789 5.96107C15.8989 6.31173 15.803 6.68742 15.5392 6.93789L12.3025 9.94351C12.2066 10.0436 12.1586 10.1939 12.1827 10.3192L13.1177 14.7273C13.1897 15.078 13.0697 15.4537 12.782 15.6541C12.4943 15.8795 12.1347 15.8795 11.823 15.7042L8.1068 13.4249C7.98693 13.3498 7.84307 13.3498 7.7232 13.4249L4.00699 15.6791C3.86313 15.7543 3.71928 15.8044 3.57543 15.8044Z" fill="#F3FF00"/>
</svg>
