<svg width="14" height="14" viewBox="0 0 14 14" fill="none" xmlns="http://www.w3.org/2000/svg">
<path d="M12.2929 0.292893C12.6834 -0.097629 13.3164 -0.0976294 13.707 0.292893C14.0975 0.683417 14.0975 1.31643 13.707 1.70696L8.41399 6.99992L13.707 12.2929C14.0975 12.6834 14.0975 13.3164 13.707 13.707C13.3164 14.0975 12.6834 14.0975 12.2929 13.707L6.99992 8.41399L1.70696 13.707C1.31643 14.0975 0.683417 14.0975 0.292893 13.707C-0.097631 13.3164 -0.0976311 12.6834 0.292893 12.2929L5.58586 6.99992L0.292893 1.70696C-0.0976306 1.31643 -0.0976306 0.683417 0.292893 0.292893C0.683417 -0.0976312 1.31643 -0.0976309 1.70696 0.292893L6.99992 5.58586L12.2929 0.292893Z" fill="white"/>
</svg>
