<svg width="16" height="18" viewBox="0 0 16 18" fill="none" xmlns="http://www.w3.org/2000/svg">
<path d="M11.3828 9.99995C11.3828 9.44767 11.8305 8.99995 12.3828 8.99995C12.935 9.00003 13.3828 9.44772 13.3828 9.99995V17C13.3828 17.4043 13.1392 17.7689 12.7656 17.9238C12.392 18.0785 11.9618 17.9929 11.6758 17.707L7.79297 13.8242C7.40252 13.4336 7.40247 12.8006 7.79297 12.4101C8.18347 12.0197 8.81653 12.0197 9.20703 12.4101L11.3828 14.5859V9.99995ZM11.6758 0.292921C11.9618 0.00698364 12.392 -0.0786432 12.7656 0.0761241C13.1392 0.230966 13.3828 0.595583 13.3828 0.999952V3.59956L14.3359 2.75288C14.7487 2.38596 15.3802 2.42311 15.7471 2.83589C16.114 3.24867 16.0768 3.8801 15.6641 4.24702L2.16406 16.247C1.75128 16.6139 1.11985 16.5768 0.75293 16.164C0.386012 15.7512 0.423155 15.1198 0.835938 14.7529L2.41699 13.3476H1C0.447715 13.3476 0 12.8999 0 12.3476V5.65132C0 5.38614 0.105483 5.13182 0.292969 4.94429C0.480505 4.75675 0.734784 4.65132 1 4.65132H7.31738L11.6758 0.292921ZM8.43848 6.35835C8.25095 6.54583 7.99662 6.65132 7.73145 6.65132H2V11.3476H4.66602L11.3828 5.37691V3.41401L8.43848 6.35835Z" fill="white"/>
</svg>
