<svg width="13" height="16" viewBox="0 0 13 16" fill="none" xmlns="http://www.w3.org/2000/svg">
<path d="M3.76267 0.162834L2.024 1.81083C1.79333 2.02817 1.79333 2.3815 2.024 2.59883L5.15333 5.56283C5.276 5.68017 5.18933 5.88017 5.01467 5.88017H0.588C0.262667 5.88017 0 6.1295 0 6.4375V8.76817C0 9.07617 0.262667 9.3255 0.588 9.3255H5.01467C5.18933 9.3255 5.27733 9.5255 5.15333 9.6415L2.024 12.6055C1.79333 12.8242 1.79333 13.1762 2.024 13.3948L3.764 15.0428C3.99333 15.2602 4.36667 15.2602 4.596 15.0428L12.0227 8.0095C12.2533 7.79217 12.2533 7.44017 12.024 7.2215L4.596 0.164167C4.36667 -0.0544997 3.99333 -0.0544996 3.76267 0.162834Z" fill="white"/>
</svg>
