<svg width="97" height="121" viewBox="0 0 97 121" fill="none" xmlns="http://www.w3.org/2000/svg">
<path d="M7.79173 1.1747C12.4525 -0.91874 17.6738 -0.0217355 22.0016 2.35033L22.8542 2.84066L23.0318 2.95291L23.2035 3.07106L88.0419 49.0151C92.5769 51.6231 96.9906 55.7147 97 61.6399C97.0083 67.5219 92.6313 71.812 88.0951 74.6899L88.1011 74.6958L23.8548 117.928L23.5943 118.105L23.316 118.253C18.6535 120.735 12.9247 122.252 7.8095 119.624C2.53816 116.914 0.623873 111.236 0.284197 105.747L0.272355 105.569V105.392L0 14.9042L0.00592077 14.8982C-0.0872795 8.91113 2.46159 3.56924 7.79173 1.1747Z" fill="white"/>
</svg>
