<svg width="13" height="16" viewBox="0 0 13 16" fill="none" xmlns="http://www.w3.org/2000/svg">
<path d="M8.43313 15.043L10.1718 13.395C10.4025 13.1776 10.4025 12.8243 10.1718 12.607L7.04247 9.64298C6.9198 9.52564 7.00647 9.32564 7.18113 9.32564L11.6078 9.32564C11.9331 9.32564 12.1958 9.07631 12.1958 8.76831L12.1958 6.43764C12.1958 6.12964 11.9331 5.88031 11.6078 5.88031L7.18114 5.88031C7.00647 5.88031 6.91847 5.68031 7.04247 5.56431L10.1718 2.60031C10.4025 2.38164 10.4025 2.02964 10.1718 1.81098L8.4318 0.162976C8.20247 -0.0543576 7.82914 -0.0543576 7.5998 0.162976L0.173134 7.19631C-0.0575325 7.41364 -0.0575331 7.76564 0.1718 7.98431L7.5998 15.0416C7.82913 15.2603 8.20247 15.2603 8.43313 15.043Z" fill="white"/>
</svg>
