<svg width="20" height="14" viewBox="0 0 20 14" fill="none" xmlns="http://www.w3.org/2000/svg">
<path d="M9.37988 0.215853C9.68052 -0.0218381 10.0906 -0.0672397 10.4355 0.0996417C10.7806 0.266704 11 0.616664 11 1.00003V13C11 13.3834 10.7807 13.7334 10.4355 13.9004C10.0905 14.0673 9.68052 14.022 9.37988 13.7842L5.24023 10.5098L1 10.5108C0.734933 10.5108 0.48048 10.4061 0.292969 10.2188C0.105373 10.0312 0 9.77604 0 9.51077V4.48831C6.64812e-05 3.93609 0.447756 3.48831 1 3.48831H5.24121L9.37988 0.215853ZM17.1494 2.23343C17.6167 1.93909 18.234 2.07959 18.5283 2.54691C20.3018 5.36269 20.5393 9.08404 18.875 12.3555C18.6246 12.8476 18.0225 13.0432 17.5303 12.793C17.038 12.5426 16.8414 11.9405 17.0918 11.4483C18.4405 8.79708 18.2298 5.82541 16.8359 3.61234C16.5418 3.14507 16.6822 2.52776 17.1494 2.23343ZM13.6963 3.9639C14.1159 3.60527 14.7466 3.65475 15.1055 4.07425C16.7297 5.97269 16.9591 8.55219 15.4229 10.7754C15.1088 11.2296 14.4856 11.3433 14.0312 11.0293C13.5769 10.7154 13.4634 10.0921 13.7773 9.63773C14.7841 8.18053 14.6353 6.60058 13.5859 5.37406C13.227 4.9544 13.2767 4.32289 13.6963 3.9639ZM6.20801 5.27249C6.03147 5.41207 5.81294 5.48828 5.58789 5.48831H2V8.5098H5.58789L5.75488 8.52347C5.91963 8.55138 6.07555 8.62086 6.20801 8.72562L9 10.9336V3.06449L6.20801 5.27249Z" fill="white"/>
</svg>
