<svg width="102" height="51" viewBox="0 0 102 51" fill="none" xmlns="http://www.w3.org/2000/svg">
<g clip-path="url(#clip0_46_373)">
<g clip-path="url(#clip1_46_373)">
<g clip-path="url(#clip2_46_373)">
<mask id="mask0_46_373" style="mask-type:luminance" maskUnits="userSpaceOnUse" x="0" y="7" width="102" height="38">
<path d="M101.378 7.89648H0.485352V44.5846H101.378V7.89648Z" fill="white"/>
</mask>
<g mask="url(#mask0_46_373)">
<path d="M66.0118 23.3387C64.3585 23.3387 62.9808 24.1155 62.0164 25.3035V23.6128H60.7306V38.5076H62.0164V33.1619C62.9808 34.3954 64.3585 35.1265 66.0118 35.1265C69.0427 35.1265 71.5225 32.4765 71.5225 29.2326C71.4766 25.9888 69.0427 23.3387 66.0118 23.3387ZM66.0118 33.893C63.6697 33.893 61.7869 31.8368 61.7869 29.2784C61.7869 26.7198 63.6697 24.6638 66.0118 24.6638C68.3538 24.6638 70.2367 26.7198 70.2367 29.2784C70.1907 31.7912 68.308 33.893 66.0118 33.893Z" fill="#181B4A"/>
<path d="M51.5035 18.9988C47.1407 18.9988 43.6047 22.6996 43.6047 27.2228C43.6047 31.746 47.1407 35.4468 51.5035 35.4468C55.8661 35.4468 59.4023 31.746 59.4023 27.2228C59.4023 22.6996 55.8661 18.9988 51.5035 18.9988ZM51.5035 34.2133C47.8297 34.2133 44.8446 31.0607 44.8446 27.2228C44.8446 23.3849 47.8297 20.2324 51.5035 20.2324C55.1773 20.2324 58.1622 23.3849 58.1622 27.2228C58.1622 31.1064 55.1773 34.2133 51.5035 34.2133Z" fill="#181B4A"/>
<path d="M89.7091 23.3849C89.2504 23.3849 88.8365 23.5219 88.4233 23.7504C87.5971 24.2072 86.9998 24.8468 86.6323 25.715C86.6323 25.715 86.6323 25.7607 86.5867 25.7607C86.5867 25.0754 86.5867 24.3899 86.5867 23.7046H85.3009C85.3009 27.4054 85.3009 31.1062 85.3009 34.8527C85.714 34.8527 86.1727 34.8527 86.5867 34.8527C86.5867 34.807 86.5867 34.807 86.5867 34.7613C86.5867 32.7511 86.5867 30.9691 86.5867 29.0046C86.5867 28.1822 86.7244 27.4969 86.9998 26.8572C87.2296 26.2632 87.5971 25.715 88.1023 25.3037C88.6988 24.8012 89.3881 24.5727 90.1687 24.7098C90.3064 24.7098 90.3977 24.7555 90.5362 24.8012C90.6275 24.4357 90.7652 23.9787 90.8572 23.5675C90.5362 23.4305 90.031 23.3849 89.7091 23.3849Z" fill="#181B4A"/>
<path d="M78.1837 23.3848C75.1526 23.3848 72.6729 26.0347 72.6729 29.2785C72.6729 32.5225 75.1526 35.1724 78.1837 35.1724C80.342 35.1724 82.2249 33.8018 83.1433 31.8371L82.0412 31.1974C81.3523 32.7966 79.9287 33.8931 78.2295 33.8931C76.0252 33.8931 74.2342 32.02 74.0046 29.6898H82.9137H83.6944C83.6944 29.5527 83.6944 29.4156 83.6944 29.2785C83.6944 25.8062 81.3983 23.3848 78.1837 23.3848ZM78.1837 24.6641C80.4798 24.6641 82.087 26.2174 82.3626 28.5475H74.0046C74.3262 26.3545 76.0712 24.6641 78.1837 24.6641Z" fill="#181B4A"/>
<path d="M100.09 23.6139V25.3044C99.1249 24.0709 97.7479 23.3398 96.0946 23.3398C93.0634 23.3398 90.5839 25.9897 90.5839 29.2336C90.5839 32.4776 93.0634 35.1276 96.0946 35.1276C97.7479 35.1276 99.1249 34.3508 100.09 33.1629V34.8534H101.376V23.6139H100.09ZM96.0946 33.8939C93.7519 33.8939 91.8697 31.8379 91.8697 29.2793C91.8697 26.7208 93.7519 24.6647 96.0946 24.6647C98.4364 24.6647 100.32 26.7208 100.32 29.2793C100.32 31.7922 98.4364 33.8939 96.0946 33.8939Z" fill="#181B4A"/>
<path d="M37.4035 26.263C37.4035 31.7001 35.0155 36.5887 31.2499 39.9698C26.5198 42.2542 22.1112 40.6551 20.6416 39.65C25.2798 38.6448 28.8159 33.025 28.8159 26.263C28.8159 19.5011 25.2798 13.8813 20.6416 12.8762C22.1112 11.8711 26.5198 10.272 31.2499 12.5564C35.0155 15.9374 37.4035 20.8261 37.4035 26.263Z" fill="#181B4A"/>
<path d="M12.8797 15.892C10.8591 18.2679 9.52731 21.8317 9.43548 25.8066V26.6746C9.52731 30.6495 10.8591 34.2133 12.8797 36.5891C15.5432 40.0158 19.4466 42.1631 23.8552 42.1631C26.5647 42.1631 29.0904 41.3408 31.2488 39.9244C27.9884 42.8485 23.6715 44.5846 18.9415 44.5846C18.6659 44.5846 18.3445 44.5846 18.0689 44.5846C8.28736 44.1735 0.480469 36.1323 0.480469 26.2634C0.480469 16.1205 8.74661 7.89648 18.9415 7.89648C18.9875 7.89648 18.9875 7.89648 19.0332 7.89648C23.7175 7.89648 27.9884 9.67833 31.2488 12.5568C29.0904 11.1404 26.5647 10.318 23.8552 10.318C19.4466 10.318 15.4973 12.511 12.8797 15.892Z" fill="#181B4A"/>
</g>
</g>
</g>
</g>
<defs>
<clipPath id="clip0_46_373">
<rect width="101.378" height="50.6844" fill="white"/>
</clipPath>
<clipPath id="clip1_46_373">
<rect width="101.378" height="50.6844" fill="white"/>
</clipPath>
<clipPath id="clip2_46_373">
<rect width="101.378" height="50.6889" fill="white" transform="translate(0 -0.00195312)"/>
</clipPath>
</defs>
</svg>
