<svg width="124" height="53" viewBox="0 0 124 53" fill="none" xmlns="http://www.w3.org/2000/svg">
<g clip-path="url(#clip0_46_365)">
<g clip-path="url(#clip1_46_365)">
<g clip-path="url(#clip2_46_365)">
<mask id="mask0_46_365" style="mask-type:luminance" maskUnits="userSpaceOnUse" x="-1" y="-1" width="125" height="54">
<path d="M123.191 -0.00238037H-0.00012207V52.7938H123.191V-0.00238037Z" fill="white"/>
</mask>
<g mask="url(#mask0_46_365)">
<path d="M30.1865 33.7202L27.136 32.6837C27.0993 32.6766 27.0611 32.6837 27.0287 32.7007C26.9962 32.719 26.9722 32.75 26.9609 32.7854C26.6248 33.836 25.6758 34.9899 23.8371 34.9899C21.9983 34.9899 20.1736 33.589 20.1736 31.092C20.1736 28.5952 21.8966 27.1943 23.8088 27.1943C25.4004 27.1943 26.276 28.084 26.6841 29.0486C26.6983 29.1065 26.7716 29.1502 26.8295 29.1361L29.9831 28.0417C30.041 28.012 30.0706 27.9399 30.041 27.8806C29.2812 25.7354 27.2094 23.7499 23.7353 23.7499C19.7062 23.7499 16.612 26.8299 16.612 31.092C16.612 35.3542 19.7641 38.4343 23.8371 38.4343C27.4425 38.4343 29.6032 36.1423 30.2599 33.8657C30.2668 33.8516 30.2702 33.836 30.2699 33.8204C30.2697 33.8047 30.2658 33.7892 30.2585 33.7753C30.2518 33.7612 30.2416 33.749 30.2288 33.74C30.2165 33.7302 30.202 33.7234 30.1865 33.7202ZM78.0488 29.5895L76.0787 29.1814C75.3048 29.0203 74.8232 28.6419 74.8232 27.9696C74.8232 27.1674 75.5971 26.5828 76.5745 26.5828C77.9472 26.5828 78.5304 27.3567 78.779 28.0868C78.7931 28.1744 78.8665 28.204 78.9244 28.1744L81.7277 27.0799C81.7856 27.0502 81.8153 26.9923 81.8011 26.9344C81.2899 25.5038 79.8311 23.7527 76.5462 23.7527C73.5677 23.7527 71.3788 25.7961 71.3788 28.2916C71.3788 30.2037 72.5905 31.8829 75.2611 32.4521L77.0857 32.8898C78.166 33.1229 78.5742 33.5607 78.5742 34.1892C78.5742 34.9038 77.9909 35.5619 76.7496 35.5619C75.1735 35.5619 74.3699 34.6128 74.2386 33.5918C74.2386 33.5183 74.1807 33.4746 74.0776 33.49L71.1288 34.1467C71.0709 34.1609 71.0116 34.2202 71.0116 34.2922C71.2446 35.8542 72.719 38.4371 76.7778 38.4371C80.427 38.4371 82.1641 36.131 82.1641 33.8685C82.1641 31.8547 80.7773 30.1459 78.0474 29.5923L78.0488 29.5895ZM100.412 23.7513C96.8359 23.7513 93.5951 26.6125 93.5951 31.0356C93.5951 35.7073 96.938 38.4357 100.732 38.4357C103.564 38.4357 105.564 37.063 106.557 35.1947C106.586 35.1212 106.557 35.0492 106.498 35.0196L103.711 33.8078C103.653 33.7937 103.58 33.8078 103.55 33.8657C103.024 34.6693 102.119 35.2087 100.762 35.2087C98.8791 35.2087 97.3454 33.8953 97.2583 32.0849H107.068C107.126 32.0849 107.185 32.0115 107.185 31.9677C107.215 31.7784 107.243 31.3251 107.243 30.9169C107.243 26.4797 104.673 23.7499 100.412 23.7499V23.7513ZM103.55 29.5174H97.3454C97.4334 28.2619 98.5139 26.8172 100.455 26.8172C102.586 26.8172 103.492 28.1461 103.55 29.5174ZM123.139 17.6348H119.635C119.577 17.6348 119.534 17.6927 119.534 17.752V25.5617C119.154 24.8175 118.015 23.8388 115.622 23.8388C111.724 23.8388 109.01 27.0065 109.01 31.0638C109.01 35.1212 111.797 38.3482 115.739 38.3482C117.578 38.3482 118.994 37.5023 119.607 36.4063L119.621 37.8948C119.621 37.9527 119.665 37.9966 119.738 37.9966H123.139C123.155 37.9969 123.17 37.9941 123.184 37.9883C123.199 37.9824 123.211 37.9737 123.223 37.9627C123.233 37.9519 123.242 37.9388 123.248 37.9245C123.253 37.9101 123.257 37.8948 123.256 37.8793V17.7506C123.256 17.6927 123.198 17.6334 123.139 17.6334V17.6348ZM116.177 35.0196C114.221 35.0196 112.76 33.5451 112.76 31.0638C112.76 28.5826 114.265 27.1378 116.177 27.1378C118.089 27.1378 119.621 28.5684 119.621 31.0356C119.621 33.5028 118.089 35.021 116.177 35.021V35.0196ZM91.8871 34.8162C91.639 34.8459 91.2149 34.8896 90.8805 34.8896C89.7999 34.8896 89.2306 34.4956 89.2306 33.2698V27.4894H91.9012C91.9593 27.4894 92.0191 27.4315 92.0191 27.3722V24.2922C92.0191 24.2483 91.961 24.1904 91.9012 24.1904H89.2306V20.1472C89.2315 20.1317 89.2288 20.1163 89.2227 20.102C89.2165 20.0876 89.2077 20.0747 89.1972 20.0639C89.1866 20.0528 89.1734 20.0441 89.1593 20.0383C89.1444 20.0325 89.1294 20.0297 89.1136 20.03H85.6834C85.5958 20.03 85.552 20.0879 85.552 20.1472L85.5379 24.1904H83.1583C83.0849 24.1904 83.0411 24.2483 83.0411 24.2922V27.3722C83.0408 27.3877 83.0436 27.4031 83.0494 27.4174C83.0552 27.4318 83.0639 27.4447 83.075 27.4555C83.0858 27.4666 83.0988 27.4753 83.1131 27.4811C83.1274 27.4869 83.1428 27.4898 83.1583 27.4894H85.5379V33.9265C85.5379 36.6125 87.2016 38.2041 89.902 38.2041C90.9386 38.2041 91.595 38.029 91.9452 37.9118C91.9892 37.8822 92.0191 37.8383 92.0191 37.7664V34.9207C92.0191 34.8473 91.961 34.7894 91.8871 34.819V34.8162ZM63.0875 23.8092C61.0299 23.8092 59.5258 24.7144 58.8988 25.6917V17.7506C58.8992 17.7351 58.8963 17.7197 58.8905 17.7054C58.8847 17.6911 58.876 17.6781 58.8649 17.6673C58.854 17.6562 58.8411 17.6475 58.8268 17.6417C58.8124 17.6359 58.797 17.6331 58.7815 17.6334H55.3215C55.2636 17.6334 55.2043 17.6913 55.2043 17.7506V37.8793C55.204 37.8948 55.2068 37.9101 55.2127 37.9245C55.2185 37.9388 55.2272 37.9519 55.2383 37.9627C55.2491 37.9737 55.2621 37.9824 55.2764 37.9883C55.2907 37.9941 55.3061 37.9969 55.3215 37.9966H58.7222C58.7957 37.9966 58.8394 37.9527 58.8394 37.8793V36.3174C59.5696 37.4994 61.0285 38.3468 62.9406 38.3468C66.8963 38.3468 69.4949 35.2087 69.4949 31.0341C69.4949 26.8596 67.1449 23.8092 63.0861 23.8092H63.0875ZM62.3136 35.0196C60.4014 35.0196 58.8098 33.5593 58.8098 31.0638C58.8098 28.5684 60.4014 27.1081 62.3136 27.1081C64.2258 27.1081 65.7143 28.5247 65.7143 31.0638C65.7143 33.603 64.2258 35.0196 62.3136 35.0196ZM51.8912 24.189H48.3733C48.2999 24.189 48.2561 24.2469 48.2561 24.2908V37.8808C48.2561 37.9541 48.2999 37.998 48.3733 37.998H51.8912C51.9067 37.9983 51.9221 37.9955 51.9364 37.9897C51.9508 37.9838 51.9637 37.9751 51.9745 37.9641C51.9856 37.9533 51.9943 37.9402 52.0001 37.9259C52.006 37.9116 52.0088 37.8962 52.0085 37.8808V24.2908C52.0085 24.2469 51.9506 24.189 51.8912 24.189ZM50.1245 17.2987C48.8549 17.2987 47.7887 18.3353 47.7887 19.619C47.7887 20.9027 48.8394 21.9111 50.109 21.9111C51.4958 21.9111 52.5761 20.7135 52.3855 19.3563C52.2542 18.2026 51.291 17.3129 50.1231 17.2987H50.1245ZM39.8928 23.8092C38.5794 23.8092 37.0316 24.2611 36.156 25.3132V17.752C36.156 17.6941 36.0981 17.6348 36.0388 17.6348H32.5209C32.5054 17.6345 32.4901 17.6373 32.4757 17.6431C32.4614 17.6489 32.4484 17.6576 32.4376 17.6687C32.4266 17.6795 32.4179 17.6926 32.412 17.7068C32.4061 17.7211 32.4033 17.7365 32.4037 17.752V37.8808C32.4037 37.9541 32.4475 37.998 32.5209 37.998H36.0388C36.0543 37.9983 36.0697 37.9955 36.084 37.9897C36.0984 37.9838 36.1113 37.9751 36.1221 37.9641C36.1332 37.9533 36.1419 37.9402 36.1477 37.9259C36.1535 37.9116 36.1563 37.8962 36.156 37.8808V29.8663C36.1263 28.3481 37.0175 27.1081 38.739 27.1081C40.5495 27.1081 41.2938 28.3933 41.2938 29.9256V37.8808C41.2934 37.8962 41.2962 37.9116 41.302 37.9259C41.3078 37.9402 41.3166 37.9533 41.3276 37.9641C41.3385 37.9751 41.3515 37.9838 41.3658 37.9897C41.3801 37.9955 41.3955 37.9983 41.411 37.998H44.8992C44.9727 37.998 45.0164 37.9541 45.0164 37.8808V29.2972C45.0164 26.2608 43.4107 23.8092 39.8928 23.8092ZM2.42316 27.4301C2.11671 27.4301 1.88369 27.6632 1.88369 27.9696C1.88369 28.1094 1.93594 28.245 2.02915 28.3495C2.14637 28.4808 2.48107 28.7732 2.68584 28.9483C2.80306 29.05 2.94852 29.0656 3.02196 29.0656C3.32841 29.0656 3.56143 28.8325 3.56143 28.5261C3.56143 28.3806 3.47388 28.1899 3.35666 28.1024C3.18154 27.971 2.87508 27.6787 2.80165 27.6067C2.69996 27.505 2.53897 27.4315 2.42175 27.4315L2.42316 27.4301ZM4.204 28.8607C3.9272 28.8607 3.72243 29.0656 3.72243 29.3423C3.72243 29.5471 3.83965 29.6925 3.99923 29.7801C4.10091 29.838 4.30569 29.9114 4.45115 29.9693C4.55283 30.0132 4.56837 30.0132 4.59661 30.0132C4.94685 30.0132 5.10784 29.7646 5.10784 29.5456C5.10784 29.3126 4.94685 29.1375 4.81551 29.0782C4.45115 28.9328 4.52318 28.9469 4.42149 28.9031C4.36359 28.8735 4.2605 28.8593 4.2026 28.8593L4.204 28.8607ZM5.98485 29.5174C5.70805 29.4737 5.45949 29.6346 5.45949 29.9256C5.45949 30.0315 5.4948 30.1346 5.56117 30.2179C5.62755 30.3012 5.72075 30.3577 5.82526 30.3789C5.93118 30.4029 6.03851 30.4185 6.14584 30.4227C6.3944 30.4227 6.58363 30.2476 6.58363 29.999C6.58363 29.7942 6.42264 29.605 6.21928 29.5612C6.13172 29.5471 6.03004 29.5316 5.98625 29.5174H5.98485ZM3.66312 26.7C3.37078 26.7 3.15188 26.9189 3.15188 27.2113C3.15188 27.3864 3.23944 27.5473 3.31288 27.6194C3.40044 27.7069 3.96957 28.1447 4.08679 28.2182C4.18565 28.2733 4.2958 28.3029 4.40737 28.3057C4.67005 28.3057 4.90307 28.0868 4.90307 27.8101C4.90307 27.6208 4.80138 27.4301 4.67005 27.3425C4.48081 27.2253 4.2026 27.0065 4.02747 26.8469C3.91026 26.7452 3.79446 26.7014 3.66312 26.7014V26.7ZM7.34201 29.7067C7.10899 29.7067 6.93388 29.8818 6.93388 30.1148C6.93388 30.3478 7.10899 30.523 7.34201 30.523C7.57503 30.523 7.75015 30.3478 7.75015 30.1148C7.75015 29.8818 7.57503 29.7067 7.34201 29.7067ZM5.82385 27.9399C5.44396 27.8524 5.21093 28.0417 5.21093 28.3481C5.21093 28.5966 5.3564 28.7717 5.54705 28.8296C5.86763 28.9314 5.98485 28.961 6.0724 28.961C6.32096 28.961 6.53986 28.7717 6.53986 28.4936C6.53986 28.2747 6.40852 28.1136 6.17549 28.0417C5.76736 27.9244 5.85492 27.9399 5.82526 27.9399H5.82385ZM7.34201 28.2182C7.10899 28.2182 6.93388 28.3933 6.93388 28.6263C6.93388 28.8593 7.10899 29.0344 7.34201 29.0344C7.57503 29.0344 7.75015 28.8593 7.75015 28.6263C7.75015 28.3933 7.57503 28.2182 7.34201 28.2182ZM4.9186 25.8089C4.65592 25.8089 4.43703 26.0277 4.43703 26.3046C4.43703 26.45 4.52458 26.6111 4.62627 26.6986C4.83104 26.8737 5.53151 27.2818 5.96931 27.4132C6.02157 27.4301 6.07522 27.44 6.13031 27.4429C6.19386 27.4429 6.25741 27.4315 6.31531 27.4076C6.37462 27.3836 6.42687 27.3482 6.47207 27.303C6.51726 27.2578 6.55256 27.2041 6.57658 27.1462C6.60058 27.0883 6.61188 27.0248 6.61188 26.9613C6.61188 26.7127 6.43676 26.5376 6.27577 26.4797C5.89588 26.3342 5.45808 26.0998 5.23918 25.9247C5.15021 25.8484 5.03582 25.8061 4.9186 25.8075V25.8089ZM7.34201 26.7283C7.10899 26.7283 6.93388 26.9034 6.93388 27.1364C6.93388 27.3694 7.10899 27.5445 7.34201 27.5445C7.57503 27.5445 7.75015 27.3694 7.75015 27.1364C7.75015 26.9034 7.57503 26.7283 7.34201 26.7283ZM7.35613 15.8398C3.15188 15.8398 -0.000244141 19.0654 -0.000244141 23.0367C-0.000244141 24.6282 0.510988 26.4374 1.066 27.1095C1.19734 27.2706 1.3428 27.3864 1.5617 27.3864C1.89781 27.3864 2.14495 27.1378 2.14495 26.8031C2.14495 26.7014 2.10118 26.5701 2.0574 26.4967C1.92606 26.3074 2.14495 26.1761 2.24664 26.3512C2.33419 26.4967 2.53897 26.6435 2.77199 26.6435C3.07845 26.6435 3.327 26.3809 3.327 26.0885C3.327 25.9756 3.29594 25.8654 3.23944 25.7679C3.09398 25.5349 3.327 25.4473 3.41456 25.5928C3.53178 25.7821 3.73514 25.8993 3.93992 25.8993C4.09103 25.8993 4.23508 25.84 4.3424 25.7326C4.44974 25.6253 4.50905 25.4812 4.50905 25.3301C4.50905 25.2284 4.47939 25.1112 4.43561 25.0378C4.11503 24.4687 3.96816 23.884 3.96816 23.2273C3.96816 21.14 5.41289 19.636 7.3406 19.636C8.91668 19.636 10.1722 20.6429 10.5817 22.1314L14.3623 20.9055C13.4429 17.8989 10.7271 15.8398 7.35613 15.8398ZM12.2609 26.8455C12.5673 26.8455 12.8004 26.6125 12.8004 26.306C12.8004 26.1662 12.7481 26.0306 12.6549 25.9261C12.5376 25.7947 12.203 25.5024 11.9982 25.3273C11.8809 25.2256 11.7355 25.2101 11.6621 25.2101C11.3556 25.2101 11.1226 25.4431 11.1226 25.7496C11.1226 25.8951 11.2101 26.0856 11.3274 26.1732C11.5025 26.3046 11.8089 26.5969 11.8823 26.669C11.9841 26.7706 12.1451 26.8441 12.2623 26.8441L12.2609 26.8455ZM10.48 25.4149C10.7568 25.4149 10.9616 25.2101 10.9616 24.9333C10.9616 24.7285 10.8444 24.5831 10.6848 24.4955C10.5831 24.4376 10.3783 24.3641 10.2329 24.3062C10.1312 24.2625 10.1157 24.2625 10.0874 24.2625C9.73713 24.2625 9.57619 24.511 9.57619 24.7299C9.57619 24.9629 9.73713 25.138 9.86851 25.1974C10.2329 25.3428 10.1608 25.3287 10.2625 25.3725C10.3204 25.4021 10.4235 25.4163 10.4815 25.4163L10.48 25.4149ZM8.69918 24.7582C8.97599 24.8019 9.22457 24.641 9.22457 24.3501C9.22457 24.2441 9.1892 24.141 9.12285 24.0577C9.0565 23.9758 8.96323 23.9179 8.85878 23.8967C8.75284 23.8727 8.64551 23.8571 8.53818 23.8529C8.28963 23.8529 8.10039 24.028 8.10039 24.2766C8.10039 24.4813 8.26138 24.6706 8.46475 24.7144C8.55231 24.7285 8.65399 24.744 8.69776 24.7582H8.69918ZM11.0209 27.5756C11.3133 27.5756 11.5321 27.3567 11.5321 27.0644C11.5321 26.8892 11.4446 26.7283 11.3712 26.6562C11.2836 26.5686 10.7145 26.1309 10.5973 26.0574C10.4984 26.0023 10.3882 25.9727 10.2766 25.9698C10.014 25.9698 9.78095 26.1888 9.78095 26.4656C9.78095 26.6548 9.88268 26.8455 10.014 26.933C10.2032 27.0502 10.4815 27.2692 10.6566 27.4287C10.7738 27.5304 10.8896 27.5741 11.0209 27.5741V27.5756ZM7.34201 24.5689C7.57503 24.5689 7.75015 24.3938 7.75015 24.1608C7.75015 23.9278 7.57503 23.7527 7.34201 23.7527C7.10899 23.7527 6.93388 23.9278 6.93388 24.1608C6.93388 24.3938 7.10899 24.5689 7.34201 24.5689ZM8.86019 26.3342C9.24006 26.4218 9.47306 26.2325 9.47306 25.9261C9.47306 25.6775 9.32761 25.5024 9.13693 25.4445C8.81637 25.3428 8.69918 25.3132 8.61162 25.3132C8.36306 25.3132 8.14417 25.5024 8.14417 25.7807C8.14417 25.9995 8.27551 26.1605 8.50852 26.2325C8.91668 26.3498 8.82913 26.3342 8.85878 26.3342H8.86019ZM7.34201 26.0574C7.57503 26.0574 7.75015 25.8823 7.75015 25.6493C7.75015 25.4163 7.57503 25.2412 7.34201 25.2412C7.10899 25.2412 6.93388 25.4163 6.93388 25.6493C6.93388 25.8823 7.10899 26.0574 7.34201 26.0574ZM9.76538 28.4653C10.0281 28.4653 10.247 28.2464 10.247 27.9696C10.247 27.8241 10.1594 27.6632 10.0578 27.5756C9.85302 27.4004 9.1525 26.9923 8.71471 26.861C8.66246 26.8441 8.60879 26.8342 8.55372 26.8313C8.49017 26.8313 8.42662 26.8427 8.36871 26.8667C8.31081 26.8906 8.25714 26.926 8.21195 26.9711C8.16676 27.0164 8.13145 27.07 8.10745 27.1279C8.08344 27.1872 8.07214 27.2494 8.07214 27.3129C8.07214 27.5615 8.24726 27.7366 8.40825 27.7945C8.78815 27.9399 9.22598 28.1744 9.44482 28.3495C9.53378 28.4258 9.64817 28.4682 9.76538 28.4668V28.4653ZM7.34201 27.5459C7.57503 27.5459 7.75015 27.3708 7.75015 27.1378C7.75015 26.9048 7.57503 26.7297 7.34201 26.7297C7.10899 26.7297 6.93388 26.9048 6.93388 27.1378C6.93388 27.3708 7.10899 27.5459 7.34201 27.5459ZM7.32788 38.4357C11.5321 38.4357 14.6842 35.2101 14.6842 31.239C14.6842 29.6474 14.1731 27.8383 13.6194 27.166C13.4881 27.005 13.3427 26.8892 13.1237 26.8892C12.7876 26.8892 12.5405 27.1378 12.5405 27.4725C12.5405 27.5741 12.5843 27.7055 12.6281 27.779C12.7594 27.9682 12.5405 28.0996 12.4388 27.9245C12.3512 27.779 12.1465 27.632 11.9135 27.632C11.607 27.632 11.3584 27.8948 11.3584 28.1871C11.3584 28.3001 11.3895 28.4103 11.446 28.5077C11.5914 28.7407 11.3584 28.8282 11.2709 28.6828C11.1537 28.4936 10.9503 28.3763 10.7455 28.3763C10.5944 28.3763 10.4503 28.4357 10.3431 28.543C10.2357 28.6503 10.1764 28.7944 10.1764 28.9454C10.1764 29.0472 10.2061 29.1644 10.2498 29.2378C10.5704 29.8069 10.7173 30.3916 10.7173 31.0483C10.7173 33.1356 9.27253 34.6396 7.34483 34.6396C5.76877 34.6396 4.51328 33.6327 4.10374 32.1428L0.323159 33.3686C1.24253 36.3753 3.95827 38.4343 7.3293 38.4343L7.32788 38.4357Z" fill="#181B4A"/>
</g>
</g>
</g>
</g>
<defs>
<clipPath id="clip0_46_365">
<rect width="123.191" height="52.7911" fill="white"/>
</clipPath>
<clipPath id="clip1_46_365">
<rect width="123.191" height="52.7911" fill="white"/>
</clipPath>
<clipPath id="clip2_46_365">
<rect width="123.191" height="52.7962" fill="white" transform="translate(0 -0.00286865)"/>
</clipPath>
</defs>
</svg>
